<?xml version="1.0" encoding="UTF-8"?>
<!DOCTYPE svg PUBLIC "-//W3C//DTD SVG 1.1//EN"
    "http://www.w3.org/Graphics/SVG/1.1/DTD/svg11.dtd"><svg stroke="rgb(0,0,0)" xmlns="http://www.w3.org/2000/svg" font-size="1" width="700.0000" stroke-opacity="1" xmlns:xlink="http://www.w3.org/1999/xlink" viewBox="0.0 0.0 700.0 200.0" height="200.0000" version="1.1"><defs></defs><g fill="rgb(144,238,144)" stroke="rgb(255,0,0)" stroke-linecap="butt" stroke-width="2.0" stroke-miterlimit="10.0" fill-opacity="1.0" stroke-opacity="1.0" stroke-linejoin="miter"><path d="M 700.0000,169.1211 h 0.0000 c 0.0000,-9.5436 -7.7366,-17.2803 -17.2803 -17.2803h -34.5605 c -9.5436,-0.0000 -17.2803,7.7366 -17.2803 17.2803h 0.0000 c -0.0000,9.5436 7.7366,17.2803 17.2803 17.2803h 34.5605 c 9.5436,0.0000 17.2803,-7.7366 17.2803 -17.2803Z"/></g><g fill="rgb(0,0,0)" stroke="rgb(255,0,0)" stroke-linecap="butt" stroke-width="2.0" font-size="17.28026269593054px" stroke-miterlimit="10.0" fill-opacity="1.0" stroke-opacity="1.0" stroke-linejoin="miter"><text dominant-baseline="middle" stroke="none" transform="matrix(1.0000,0.0000,0.0000,1.0000,665.4395,169.1211)" text-anchor="middle">+</text></g><g fill="rgb(144,238,144)" stroke="rgb(255,0,0)" stroke-linecap="butt" stroke-width="2.0" stroke-miterlimit="10.0" fill-opacity="1.0" stroke-opacity="1.0" stroke-linejoin="miter"><path d="M 596.3184,169.1211 h 0.0000 c 0.0000,-9.5436 -7.7366,-17.2803 -17.2803 -17.2803h -34.5605 c -9.5436,-0.0000 -17.2803,7.7366 -17.2803 17.2803h 0.0000 c -0.0000,9.5436 7.7366,17.2803 17.2803 17.2803h 34.5605 c 9.5436,0.0000 17.2803,-7.7366 17.2803 -17.2803Z"/></g><g fill="rgb(0,0,0)" stroke="rgb(255,0,0)" stroke-linecap="butt" stroke-width="2.0" font-size="17.28026269593054px" stroke-miterlimit="10.0" fill-opacity="1.0" stroke-opacity="1.0" stroke-linejoin="miter"><text dominant-baseline="middle" stroke="none" transform="matrix(1.0000,0.0000,0.0000,1.0000,561.7579,169.1211)" text-anchor="middle">0</text></g><g fill="rgb(255,255,0)" stroke="rgb(255,0,0)" stroke-linecap="butt" stroke-width="2.0" stroke-miterlimit="10.0" fill-opacity="1.0" stroke-opacity="1.0" stroke-linejoin="miter"><path d="M 492.6368,169.1211 h 0.0000 c 0.0000,-9.5436 -7.7366,-17.2803 -17.2803 -17.2803h -34.5605 c -9.5436,-0.0000 -17.2803,7.7366 -17.2803 17.2803h 0.0000 c -0.0000,9.5436 7.7366,17.2803 17.2803 17.2803h 34.5605 c 9.5436,0.0000 17.2803,-7.7366 17.2803 -17.2803Z"/></g><g fill="rgb(0,0,0)" stroke="rgb(255,0,0)" stroke-linecap="butt" stroke-width="2.0" font-size="17.28026269593054px" stroke-miterlimit="10.0" fill-opacity="1.0" stroke-opacity="1.0" stroke-linejoin="miter"><text dominant-baseline="middle" stroke="none" transform="matrix(1.0000,0.0000,0.0000,1.0000,458.0763,169.1211)" text-anchor="middle">0</text></g><g fill="rgb(255,165,0)" stroke="rgb(255,0,0)" stroke-linecap="butt" stroke-width="2.0" stroke-miterlimit="10.0" fill-opacity="1.0" stroke-opacity="1.0" stroke-linejoin="miter"><path d="M 700.0000,100.0000 h 0.0000 c 0.0000,-9.5436 -7.7366,-17.2803 -17.2803 -17.2803h -34.5605 c -9.5436,-0.0000 -17.2803,7.7366 -17.2803 17.2803h 0.0000 c -0.0000,9.5436 7.7366,17.2803 17.2803 17.2803h 34.5605 c 9.5436,0.0000 17.2803,-7.7366 17.2803 -17.2803Z"/></g><g fill="rgb(0,0,0)" stroke="rgb(255,0,0)" stroke-linecap="butt" stroke-width="2.0" font-size="17.28026269593054px" stroke-miterlimit="10.0" fill-opacity="1.0" stroke-opacity="1.0" stroke-linejoin="miter"><text dominant-baseline="middle" stroke="none" transform="matrix(1.0000,0.0000,0.0000,1.0000,665.4395,100.0000)" text-anchor="middle">0+</text></g><g fill="rgb(255,165,0)" stroke="rgb(255,0,0)" stroke-linecap="butt" stroke-width="2.0" stroke-miterlimit="10.0" fill-opacity="1.0" stroke-opacity="1.0" stroke-linejoin="miter"><path d="M 596.3184,100.0000 h 0.0000 c 0.0000,-9.5436 -7.7366,-17.2803 -17.2803 -17.2803h -34.5605 c -9.5436,-0.0000 -17.2803,7.7366 -17.2803 17.2803h 0.0000 c -0.0000,9.5436 7.7366,17.2803 17.2803 17.2803h 34.5605 c 9.5436,0.0000 17.2803,-7.7366 17.2803 -17.2803Z"/></g><g fill="rgb(0,0,0)" stroke="rgb(255,0,0)" stroke-linecap="butt" stroke-width="2.0" font-size="17.28026269593054px" stroke-miterlimit="10.0" fill-opacity="1.0" stroke-opacity="1.0" stroke-linejoin="miter"><text dominant-baseline="middle" stroke="none" transform="matrix(1.0000,0.0000,0.0000,1.0000,561.7579,100.0000)" text-anchor="middle"></text></g><g fill="rgb(0,255,255)" stroke="rgb(255,0,0)" stroke-linecap="butt" stroke-width="2.0" stroke-miterlimit="10.0" fill-opacity="1.0" stroke-opacity="1.0" stroke-linejoin="miter"><path d="M 492.6368,100.0000 h 0.0000 c 0.0000,-9.5436 -7.7366,-17.2803 -17.2803 -17.2803h -34.5605 c -9.5436,-0.0000 -17.2803,7.7366 -17.2803 17.2803h 0.0000 c -0.0000,9.5436 7.7366,17.2803 17.2803 17.2803h 34.5605 c 9.5436,0.0000 17.2803,-7.7366 17.2803 -17.2803Z"/></g><g fill="rgb(0,0,0)" stroke="rgb(255,0,0)" stroke-linecap="butt" stroke-width="2.0" font-size="17.28026269593054px" stroke-miterlimit="10.0" fill-opacity="1.0" stroke-opacity="1.0" stroke-linejoin="miter"><text dominant-baseline="middle" stroke="none" transform="matrix(1.0000,0.0000,0.0000,1.0000,458.0763,100.0000)" text-anchor="middle">0</text></g><g fill="rgb(173,216,230)" stroke="rgb(255,0,0)" stroke-linecap="butt" stroke-width="2.0" stroke-miterlimit="10.0" fill-opacity="1.0" stroke-opacity="1.0" stroke-linejoin="miter"><path d="M 596.3184,30.8789 h 0.0000 c 0.0000,-9.5436 -7.7366,-17.2803 -17.2803 -17.2803h -34.5605 c -9.5436,-0.0000 -17.2803,7.7366 -17.2803 17.2803h 0.0000 c -0.0000,9.5436 7.7366,17.2803 17.2803 17.2803h 34.5605 c 9.5436,0.0000 17.2803,-7.7366 17.2803 -17.2803Z"/></g><g fill="rgb(0,0,0)" stroke="rgb(255,0,0)" stroke-linecap="butt" stroke-width="2.0" font-size="17.28026269593054px" stroke-miterlimit="10.0" fill-opacity="1.0" stroke-opacity="1.0" stroke-linejoin="miter"><text dominant-baseline="middle" stroke="none" transform="matrix(1.0000,0.0000,0.0000,1.0000,561.7579,30.8789)" text-anchor="middle">-0+ *</text></g><g fill="rgb(0,0,0)" stroke="rgb(255,0,0)" stroke-linecap="butt" stroke-width="2.0" stroke-miterlimit="10.0" fill-opacity="0.0" stroke-opacity="1.0" stroke-linejoin="miter"><path d="M 665.4395,117.2803 l 0.0000,22.3877 "/></g><g fill="rgb(255,0,0)" stroke="rgb(255,0,0)" stroke-linecap="butt" stroke-width="0.0" stroke-miterlimit="10.0" fill-opacity="1.0" stroke-opacity="1.0" stroke-linejoin="miter"></g><g fill="rgb(255,0,0)" stroke="rgb(255,0,0)" stroke-linecap="butt" stroke-width="0.0" stroke-miterlimit="10.0" fill-opacity="1.0" stroke-opacity="1.0" stroke-linejoin="miter"></g><g fill="rgb(255,0,0)" stroke="rgb(255,0,0)" stroke-linecap="butt" stroke-width="0.0" stroke-miterlimit="10.0" fill-opacity="1.0" stroke-opacity="1.0" stroke-linejoin="miter"><path d="M 665.4395,151.8408 l 4.5640,-14.0466 l -4.5640,2.3994 l -4.5640,-2.3994 Z"/></g><g fill="rgb(255,0,0)" stroke="rgb(255,0,0)" stroke-linecap="butt" stroke-width="0.0" stroke-miterlimit="10.0" fill-opacity="1.0" stroke-opacity="1.0" stroke-linejoin="miter"><path d="M 665.4395,140.1937 l -0.0000,-0.5257 l 1.0000,-0.0000 l -1.0000,0.5257 l -0.0000,-0.5257 l -1.0000,0.0000 Z"/></g><g fill="rgb(0,0,0)" stroke="rgb(255,0,0)" stroke-linecap="butt" stroke-width="2.0" stroke-miterlimit="10.0" fill-opacity="0.0" stroke-opacity="1.0" stroke-linejoin="miter"><path d="M 641.5085,115.9540 l -45.6911,30.4607 "/></g><g fill="rgb(255,0,0)" stroke="rgb(255,0,0)" stroke-linecap="butt" stroke-width="0.0" stroke-miterlimit="10.0" fill-opacity="1.0" stroke-opacity="1.0" stroke-linejoin="miter"></g><g fill="rgb(255,0,0)" stroke="rgb(255,0,0)" stroke-linecap="butt" stroke-width="0.0" stroke-miterlimit="10.0" fill-opacity="1.0" stroke-opacity="1.0" stroke-linejoin="miter"></g><g fill="rgb(255,0,0)" stroke="rgb(255,0,0)" stroke-linecap="butt" stroke-width="0.0" stroke-miterlimit="10.0" fill-opacity="1.0" stroke-opacity="1.0" stroke-linejoin="miter"><path d="M 585.6889,153.1670 l 14.2191,-3.9941 l -4.5281,-2.4665 l -0.5352,-5.1284 Z"/></g><g fill="rgb(255,0,0)" stroke="rgb(255,0,0)" stroke-linecap="butt" stroke-width="0.0" stroke-miterlimit="10.0" fill-opacity="1.0" stroke-opacity="1.0" stroke-linejoin="miter"><path d="M 595.3799,146.7064 l 0.4374,-0.2916 l 0.5547,0.8321 l -0.9921,-0.5404 l 0.4374,-0.2916 l -0.5547,-0.8321 Z"/></g><g fill="rgb(0,0,0)" stroke="rgb(255,0,0)" stroke-linecap="butt" stroke-width="2.0" stroke-miterlimit="10.0" fill-opacity="0.0" stroke-opacity="1.0" stroke-linejoin="miter"><path d="M 585.6889,115.9540 l 45.6911,30.4607 "/></g><g fill="rgb(255,0,0)" stroke="rgb(255,0,0)" stroke-linecap="butt" stroke-width="0.0" stroke-miterlimit="10.0" fill-opacity="1.0" stroke-opacity="1.0" stroke-linejoin="miter"></g><g fill="rgb(255,0,0)" stroke="rgb(255,0,0)" stroke-linecap="butt" stroke-width="0.0" stroke-miterlimit="10.0" fill-opacity="1.0" stroke-opacity="1.0" stroke-linejoin="miter"></g><g fill="rgb(255,0,0)" stroke="rgb(255,0,0)" stroke-linecap="butt" stroke-width="0.0" stroke-miterlimit="10.0" fill-opacity="1.0" stroke-opacity="1.0" stroke-linejoin="miter"><path d="M 641.5085,153.1670 l -9.1558,-11.5891 l -0.5352,5.1284 l -4.5281,2.4665 Z"/></g><g fill="rgb(255,0,0)" stroke="rgb(255,0,0)" stroke-linecap="butt" stroke-width="0.0" stroke-miterlimit="10.0" fill-opacity="1.0" stroke-opacity="1.0" stroke-linejoin="miter"><path d="M 631.8175,146.7064 l -0.4374,-0.2916 l 0.5547,-0.8321 l -0.1173,1.1237 l -0.4374,-0.2916 l -0.5547,0.8321 Z"/></g><g fill="rgb(0,0,0)" stroke="rgb(255,0,0)" stroke-linecap="butt" stroke-width="2.0" stroke-miterlimit="10.0" fill-opacity="0.0" stroke-opacity="1.0" stroke-linejoin="miter"><path d="M 537.8269,115.9540 l -45.6911,30.4607 "/></g><g fill="rgb(255,0,0)" stroke="rgb(255,0,0)" stroke-linecap="butt" stroke-width="0.0" stroke-miterlimit="10.0" fill-opacity="1.0" stroke-opacity="1.0" stroke-linejoin="miter"></g><g fill="rgb(255,0,0)" stroke="rgb(255,0,0)" stroke-linecap="butt" stroke-width="0.0" stroke-miterlimit="10.0" fill-opacity="1.0" stroke-opacity="1.0" stroke-linejoin="miter"></g><g fill="rgb(255,0,0)" stroke="rgb(255,0,0)" stroke-linecap="butt" stroke-width="0.0" stroke-miterlimit="10.0" fill-opacity="1.0" stroke-opacity="1.0" stroke-linejoin="miter"><path d="M 482.0073,153.1670 l 14.2191,-3.9941 l -4.5281,-2.4665 l -0.5352,-5.1284 Z"/></g><g fill="rgb(255,0,0)" stroke="rgb(255,0,0)" stroke-linecap="butt" stroke-width="0.0" stroke-miterlimit="10.0" fill-opacity="1.0" stroke-opacity="1.0" stroke-linejoin="miter"><path d="M 491.6983,146.7064 l 0.4374,-0.2916 l 0.5547,0.8321 l -0.9921,-0.5404 l 0.4374,-0.2916 l -0.5547,-0.8321 Z"/></g><g fill="rgb(0,0,0)" stroke="rgb(255,0,0)" stroke-linecap="butt" stroke-width="2.0" stroke-miterlimit="10.0" fill-opacity="0.0" stroke-opacity="1.0" stroke-linejoin="miter"><path d="M 585.6889,46.8330 l 45.6911,30.4607 "/></g><g fill="rgb(255,0,0)" stroke="rgb(255,0,0)" stroke-linecap="butt" stroke-width="0.0" stroke-miterlimit="10.0" fill-opacity="1.0" stroke-opacity="1.0" stroke-linejoin="miter"></g><g fill="rgb(255,0,0)" stroke="rgb(255,0,0)" stroke-linecap="butt" stroke-width="0.0" stroke-miterlimit="10.0" fill-opacity="1.0" stroke-opacity="1.0" stroke-linejoin="miter"></g><g fill="rgb(255,0,0)" stroke="rgb(255,0,0)" stroke-linecap="butt" stroke-width="0.0" stroke-miterlimit="10.0" fill-opacity="1.0" stroke-opacity="1.0" stroke-linejoin="miter"><path d="M 641.5085,84.0460 l -9.1558,-11.5891 l -0.5352,5.1284 l -4.5281,2.4665 Z"/></g><g fill="rgb(255,0,0)" stroke="rgb(255,0,0)" stroke-linecap="butt" stroke-width="0.0" stroke-miterlimit="10.0" fill-opacity="1.0" stroke-opacity="1.0" stroke-linejoin="miter"><path d="M 631.8175,77.5853 l -0.4374,-0.2916 l 0.5547,-0.8321 l -0.1173,1.1237 l -0.4374,-0.2916 l -0.5547,0.8321 Z"/></g><g fill="rgb(0,0,0)" stroke="rgb(255,0,0)" stroke-linecap="butt" stroke-width="2.0" stroke-miterlimit="10.0" fill-opacity="0.0" stroke-opacity="1.0" stroke-linejoin="miter"><path d="M 561.7579,48.1592 l 0.0000,22.3877 "/></g><g fill="rgb(255,0,0)" stroke="rgb(255,0,0)" stroke-linecap="butt" stroke-width="0.0" stroke-miterlimit="10.0" fill-opacity="1.0" stroke-opacity="1.0" stroke-linejoin="miter"></g><g fill="rgb(255,0,0)" stroke="rgb(255,0,0)" stroke-linecap="butt" stroke-width="0.0" stroke-miterlimit="10.0" fill-opacity="1.0" stroke-opacity="1.0" stroke-linejoin="miter"></g><g fill="rgb(255,0,0)" stroke="rgb(255,0,0)" stroke-linecap="butt" stroke-width="0.0" stroke-miterlimit="10.0" fill-opacity="1.0" stroke-opacity="1.0" stroke-linejoin="miter"><path d="M 561.7579,82.7197 l 4.5640,-14.0466 l -4.5640,2.3994 l -4.5640,-2.3994 Z"/></g><g fill="rgb(255,0,0)" stroke="rgb(255,0,0)" stroke-linecap="butt" stroke-width="0.0" stroke-miterlimit="10.0" fill-opacity="1.0" stroke-opacity="1.0" stroke-linejoin="miter"><path d="M 561.7579,71.0726 l -0.0000,-0.5257 l 1.0000,-0.0000 l -1.0000,0.5257 l -0.0000,-0.5257 l -1.0000,0.0000 Z"/></g><g fill="rgb(0,0,0)" stroke="rgb(255,255,0)" stroke-linecap="butt" stroke-width="3.0" stroke-miterlimit="10.0" fill-opacity="0.0" stroke-opacity="1.0" stroke-linejoin="miter"><path d="M 537.8269,115.9540 l -45.6911,30.4607 "/></g><g fill="rgb(255,255,0)" stroke="rgb(255,255,0)" stroke-linecap="butt" stroke-width="0.0" stroke-miterlimit="10.0" fill-opacity="1.0" stroke-opacity="1.0" stroke-linejoin="miter"></g><g fill="rgb(255,255,0)" stroke="rgb(255,255,0)" stroke-linecap="butt" stroke-width="0.0" stroke-miterlimit="10.0" fill-opacity="1.0" stroke-opacity="1.0" stroke-linejoin="miter"></g><g fill="rgb(255,255,0)" stroke="rgb(255,255,0)" stroke-linecap="butt" stroke-width="0.0" stroke-miterlimit="10.0" fill-opacity="1.0" stroke-opacity="1.0" stroke-linejoin="miter"><path d="M 482.0073,153.1670 l 13.8982,-3.9040 l -4.4259,-2.4108 l -0.5231,-5.0127 Z"/></g><g fill="rgb(255,255,0)" stroke="rgb(255,255,0)" stroke-linecap="butt" stroke-width="0.0" stroke-miterlimit="10.0" fill-opacity="1.0" stroke-opacity="1.0" stroke-linejoin="miter"><path d="M 491.4796,146.8522 l 0.6562,-0.4374 l 0.8321,1.2481 l -1.4882,-0.8106 l 0.6562,-0.4374 l -0.8321,-1.2481 Z"/></g><g fill="rgb(0,0,0)" stroke="rgb(0,255,255)" stroke-linecap="butt" stroke-width="4.0" stroke-miterlimit="10.0" fill-opacity="0.0" stroke-opacity="1.0" stroke-linejoin="miter"><path d="M 482.0073,115.9540 l 45.6911,30.4607 "/></g><g fill="rgb(0,255,255)" stroke="rgb(0,255,255)" stroke-linecap="butt" stroke-width="0.0" stroke-miterlimit="10.0" fill-opacity="1.0" stroke-opacity="1.0" stroke-linejoin="miter"></g><g fill="rgb(0,255,255)" stroke="rgb(0,255,255)" stroke-linecap="butt" stroke-width="0.0" stroke-miterlimit="10.0" fill-opacity="1.0" stroke-opacity="1.0" stroke-linejoin="miter"></g><g fill="rgb(0,255,255)" stroke="rgb(0,255,255)" stroke-linecap="butt" stroke-width="0.0" stroke-miterlimit="10.0" fill-opacity="1.0" stroke-opacity="1.0" stroke-linejoin="miter"><path d="M 537.8269,153.1670 l -8.7425,-11.0660 l -0.5110,4.8970 l -4.3237,2.3552 Z"/></g><g fill="rgb(0,255,255)" stroke="rgb(0,255,255)" stroke-linecap="butt" stroke-width="0.0" stroke-miterlimit="10.0" fill-opacity="1.0" stroke-opacity="1.0" stroke-linejoin="miter"><path d="M 528.5733,146.9980 l -0.8749,-0.5832 l 1.1094,-1.6641 l -0.2345,2.2473 l -0.8749,-0.5832 l -1.1094,1.6641 Z"/></g><g fill="rgb(0,0,0)" stroke="rgb(0,255,255)" stroke-linecap="butt" stroke-width="4.0" stroke-miterlimit="10.0" fill-opacity="0.0" stroke-opacity="1.0" stroke-linejoin="miter"><path d="M 458.0763,117.2803 l 0.0000,22.3877 "/></g><g fill="rgb(0,255,255)" stroke="rgb(0,255,255)" stroke-linecap="butt" stroke-width="0.0" stroke-miterlimit="10.0" fill-opacity="1.0" stroke-opacity="1.0" stroke-linejoin="miter"></g><g fill="rgb(0,255,255)" stroke="rgb(0,255,255)" stroke-linecap="butt" stroke-width="0.0" stroke-miterlimit="10.0" fill-opacity="1.0" stroke-opacity="1.0" stroke-linejoin="miter"></g><g fill="rgb(0,255,255)" stroke="rgb(0,255,255)" stroke-linecap="butt" stroke-width="0.0" stroke-miterlimit="10.0" fill-opacity="1.0" stroke-opacity="1.0" stroke-linejoin="miter"><path d="M 458.0763,151.8408 l 4.3580,-13.4125 l -4.3580,2.2911 l -4.3580,-2.2911 Z"/></g><g fill="rgb(0,255,255)" stroke="rgb(0,255,255)" stroke-linecap="butt" stroke-width="0.0" stroke-miterlimit="10.0" fill-opacity="1.0" stroke-opacity="1.0" stroke-linejoin="miter"><path d="M 458.0763,140.7194 l -0.0000,-1.0515 l 2.0000,-0.0000 l -2.0000,1.0515 l -0.0000,-1.0515 l -2.0000,0.0000 Z"/></g><g fill="rgb(0,0,0)" stroke="rgb(0,255,255)" stroke-linecap="butt" stroke-width="4.0" stroke-miterlimit="10.0" fill-opacity="0.0" stroke-opacity="1.0" stroke-linejoin="miter"><path d="M 537.8269,46.8330 l -45.6911,30.4607 "/></g><g fill="rgb(0,255,255)" stroke="rgb(0,255,255)" stroke-linecap="butt" stroke-width="0.0" stroke-miterlimit="10.0" fill-opacity="1.0" stroke-opacity="1.0" stroke-linejoin="miter"></g><g fill="rgb(0,255,255)" stroke="rgb(0,255,255)" stroke-linecap="butt" stroke-width="0.0" stroke-miterlimit="10.0" fill-opacity="1.0" stroke-opacity="1.0" stroke-linejoin="miter"></g><g fill="rgb(0,255,255)" stroke="rgb(0,255,255)" stroke-linecap="butt" stroke-width="0.0" stroke-miterlimit="10.0" fill-opacity="1.0" stroke-opacity="1.0" stroke-linejoin="miter"><path d="M 482.0073,84.0460 l 13.5773,-3.8139 l -4.3237,-2.3552 l -0.5110,-4.8970 Z"/></g><g fill="rgb(0,255,255)" stroke="rgb(0,255,255)" stroke-linecap="butt" stroke-width="0.0" stroke-miterlimit="10.0" fill-opacity="1.0" stroke-opacity="1.0" stroke-linejoin="miter"><path d="M 491.2609,77.8769 l 0.8749,-0.5832 l 1.1094,1.6641 l -1.9843,-1.0809 l 0.8749,-0.5832 l -1.1094,-1.6641 Z"/></g><g fill="rgb(173,216,230)" stroke="rgb(0,0,0)" stroke-linecap="butt" stroke-width="1.3911827421098282" stroke-miterlimit="10.0" fill-opacity="1.0" stroke-opacity="1.0" stroke-linejoin="miter"><path d="M 299.0979,144.5800 l -83.4081,-110.2450 l -215.3442,110.2450 Z"/></g><g fill="rgb(0,0,0)" stroke="rgb(255,165,0)" stroke-linecap="butt" stroke-width="3.0" stroke-miterlimit="10.0" fill-opacity="0.0" stroke-opacity="1.0" stroke-linejoin="miter"><path d="M 0.3456,144.5800 l 298.7523,0.0000 "/></g><g fill="rgb(0,0,0)" stroke="rgb(173,216,230)" stroke-linecap="butt" stroke-width="1.0" stroke-miterlimit="10.0" fill-opacity="0.0" stroke-opacity="1.0" stroke-linejoin="miter"><path d="M 215.6898,34.3350 l -215.3442,110.2450 "/></g><g fill="rgb(0,0,0)" stroke="rgb(255,165,0)" stroke-linecap="butt" stroke-width="3.0" stroke-miterlimit="10.0" fill-opacity="0.0" stroke-opacity="1.0" stroke-linejoin="miter"><path d="M 299.0979,144.5800 l -83.4081,-110.2450 "/></g><g fill="rgb(0,0,0)" stroke="rgb(0,0,0)" stroke-linecap="butt" stroke-width="1.3911827421098282" stroke-miterlimit="10.0" fill-opacity="0.0" stroke-opacity="1.0" stroke-linejoin="miter"><path d="M 137.1506,111.2877 l 5.2167,5.2167 "/></g><g fill="rgb(0,0,0)" stroke="rgb(0,0,0)" stroke-linecap="butt" stroke-width="0.0" stroke-miterlimit="10.0" fill-opacity="1.0" stroke-opacity="1.0" stroke-linejoin="miter"></g><g fill="rgb(0,0,0)" stroke="rgb(0,0,0)" stroke-linecap="butt" stroke-width="0.0" stroke-miterlimit="10.0" fill-opacity="1.0" stroke-opacity="1.0" stroke-linejoin="miter"></g><g fill="rgb(0,0,0)" stroke="rgb(0,0,0)" stroke-linecap="butt" stroke-width="0.0" stroke-miterlimit="10.0" fill-opacity="1.0" stroke-opacity="1.0" stroke-linejoin="miter"><path d="M 150.9748,125.1119 l -6.7973,-13.3405 l -1.5516,4.9916 l -4.9916,1.5516 Z"/></g><g fill="rgb(0,0,0)" stroke="rgb(0,0,0)" stroke-linecap="butt" stroke-width="0.0" stroke-miterlimit="10.0" fill-opacity="1.0" stroke-opacity="1.0" stroke-linejoin="miter"><path d="M 142.6259,116.7630 l -0.2586,-0.2586 l 0.4919,-0.4919 l -0.2333,0.7504 l -0.2586,-0.2586 l -0.4919,0.4919 Z"/></g><g fill="rgb(0,0,0)" stroke="rgb(0,255,255)" stroke-linecap="butt" stroke-width="3.47795685527457" stroke-miterlimit="10.0" fill-opacity="0.0" stroke-opacity="1.0" stroke-linejoin="miter"><path d="M 100.1708,149.3043 l 115.9506,-114.0497 "/></g><g fill="rgb(255,255,0)" stroke="rgb(0,0,0)" stroke-linecap="butt" stroke-width="1.3911827421098282" stroke-miterlimit="10.0" fill-opacity="1.0" stroke-opacity="1.0" stroke-linejoin="miter"><path d="M 73.9082,107.0967 c 0.0000,-0.1909 -0.1547,-0.3456 -0.3456 -0.3456c -0.1909,-0.0000 -0.3456,0.1547 -0.3456 0.3456c -0.0000,0.1909 0.1547,0.3456 0.3456 0.3456c 0.1909,0.0000 0.3456,-0.1547 0.3456 -0.3456Z"/></g><g fill="rgb(0,0,0)" stroke="rgb(0,0,0)" stroke-linecap="butt" stroke-width="1.3911827421098282" font-size="0.3456052539186108px" stroke-miterlimit="10.0" fill-opacity="1.0" stroke-opacity="1.0" stroke-linejoin="miter"><text dominant-baseline="middle" stroke="none" transform="matrix(1.0000,0.0000,0.0000,1.0000,73.5626,107.0967)" text-anchor="middle"></text></g><g fill="rgb(255,255,0)" stroke="rgb(0,0,0)" stroke-linecap="butt" stroke-width="1.3911827421098282" stroke-miterlimit="10.0" fill-opacity="1.0" stroke-opacity="1.0" stroke-linejoin="miter"><path d="M 122.6577,144.5800 c 0.0000,-11.4524 -9.2840,-20.7363 -20.7363 -20.7363c -11.4524,-0.0000 -20.7363,9.2840 -20.7363 20.7363c -0.0000,11.4524 9.2840,20.7363 20.7363 20.7363c 11.4524,0.0000 20.7363,-9.2840 20.7363 -20.7363Z"/></g><g fill="rgb(0,0,0)" stroke="rgb(0,0,0)" stroke-linecap="butt" stroke-width="1.3911827421098282" font-size="20.736315235116646px" stroke-miterlimit="10.0" fill-opacity="1.0" stroke-opacity="1.0" stroke-linejoin="miter"><text dominant-baseline="middle" stroke="none" transform="matrix(1.0000,0.0000,0.0000,1.0000,101.9214,144.5800)" text-anchor="middle">0</text></g><g fill="rgb(255,255,0)" stroke="rgb(0,0,0)" stroke-linecap="butt" stroke-width="1.3911827421098282" stroke-miterlimit="10.0" fill-opacity="1.0" stroke-opacity="1.0" stroke-linejoin="miter"><path d="M 244.3941,71.8183 c 0.0000,-0.1909 -0.1547,-0.3456 -0.3456 -0.3456c -0.1909,-0.0000 -0.3456,0.1547 -0.3456 0.3456c -0.0000,0.1909 0.1547,0.3456 0.3456 0.3456c 0.1909,0.0000 0.3456,-0.1547 0.3456 -0.3456Z"/></g><g fill="rgb(0,0,0)" stroke="rgb(0,0,0)" stroke-linecap="butt" stroke-width="1.3911827421098282" font-size="0.3456052539186108px" stroke-miterlimit="10.0" fill-opacity="1.0" stroke-opacity="1.0" stroke-linejoin="miter"><text dominant-baseline="middle" stroke="none" transform="matrix(1.0000,0.0000,0.0000,1.0000,244.0485,71.8183)" text-anchor="middle"></text></g><g fill="rgb(255,255,255)" stroke="rgb(255,165,0)" stroke-linecap="butt" stroke-width="1.3911827421098282" stroke-miterlimit="10.0" fill-opacity="1.0" stroke-opacity="1.0" stroke-linejoin="miter"><path d="M 118.9577,84.1181 l -0.0000,-0.3456 h -0.3456 l -0.0000,0.3456 Z"/></g><g fill="rgb(255,165,0)" stroke="rgb(0,0,0)" stroke-linecap="butt" stroke-width="1.3911827421098282" font-size="0.3456052539186108px" stroke-miterlimit="10.0" fill-opacity="1.0" stroke-opacity="1.0" stroke-linejoin="miter"><text dominant-baseline="middle" stroke="none" transform="matrix(1.0000,0.0000,0.0000,1.0000,118.7849,83.9453)" text-anchor="middle"></text></g><g fill="rgb(255,255,255)" stroke="rgb(255,165,0)" stroke-linecap="butt" stroke-width="1.3911827421098282" stroke-miterlimit="10.0" fill-opacity="1.0" stroke-opacity="1.0" stroke-linejoin="miter"><path d="M 188.8517,144.7528 l -0.0000,-0.3456 h -48.3847 l -0.0000,0.3456 Z"/></g><g fill="rgb(255,165,0)" stroke="rgb(0,0,0)" stroke-linecap="butt" stroke-width="1.3911827421098282" font-size="0.3456052539186108px" stroke-miterlimit="10.0" fill-opacity="1.0" stroke-opacity="1.0" stroke-linejoin="miter"><text dominant-baseline="middle" stroke="none" transform="matrix(1.0000,0.0000,0.0000,1.0000,164.6594,144.5800)" text-anchor="middle"></text></g><g fill="rgb(255,255,255)" stroke="rgb(255,165,0)" stroke-linecap="butt" stroke-width="1.3911827421098282" stroke-miterlimit="10.0" fill-opacity="1.0" stroke-opacity="1.0" stroke-linejoin="miter"><path d="M 285.7566,107.0659 l -0.0000,-24.1924 h -48.3847 l -0.0000,24.1924 Z"/></g><g fill="rgb(255,165,0)" stroke="rgb(0,0,0)" stroke-linecap="butt" stroke-width="1.3911827421098282" font-size="20.736315235116646px" stroke-miterlimit="10.0" fill-opacity="1.0" stroke-opacity="1.0" stroke-linejoin="miter"><text dominant-baseline="middle" stroke="none" transform="matrix(1.0000,0.0000,0.0000,1.0000,261.5642,94.9698)" text-anchor="middle">0+</text></g><g fill="rgb(144,238,144)" stroke="rgb(0,0,0)" stroke-linecap="butt" stroke-width="1.3911827421098282" stroke-miterlimit="10.0" fill-opacity="1.0" stroke-opacity="1.0" stroke-linejoin="miter"><path d="M 0.6912,144.5800 c 0.0000,-0.1909 -0.1547,-0.3456 -0.3456 -0.3456c -0.1909,-0.0000 -0.3456,0.1547 -0.3456 0.3456c -0.0000,0.1909 0.1547,0.3456 0.3456 0.3456c 0.1909,0.0000 0.3456,-0.1547 0.3456 -0.3456Z"/></g><g fill="rgb(0,0,0)" stroke="rgb(0,0,0)" stroke-linecap="butt" stroke-width="1.3911827421098282" font-size="0.3456052539186108px" stroke-miterlimit="10.0" fill-opacity="1.0" stroke-opacity="1.0" stroke-linejoin="miter"><text dominant-baseline="middle" stroke="none" transform="matrix(1.0000,0.0000,0.0000,1.0000,0.3456,144.5800)" text-anchor="middle">C</text></g><g fill="rgb(144,238,144)" stroke="rgb(0,0,0)" stroke-linecap="butt" stroke-width="1.3911827421098282" stroke-miterlimit="10.0" fill-opacity="1.0" stroke-opacity="1.0" stroke-linejoin="miter"><path d="M 236.4261,34.3350 c 0.0000,-11.4524 -9.2840,-20.7363 -20.7363 -20.7363c -11.4524,-0.0000 -20.7363,9.2840 -20.7363 20.7363c -0.0000,11.4524 9.2840,20.7363 20.7363 20.7363c 11.4524,0.0000 20.7363,-9.2840 20.7363 -20.7363Z"/></g><g fill="rgb(0,0,0)" stroke="rgb(0,0,0)" stroke-linecap="butt" stroke-width="1.3911827421098282" font-size="20.736315235116646px" stroke-miterlimit="10.0" fill-opacity="1.0" stroke-opacity="1.0" stroke-linejoin="miter"><text dominant-baseline="middle" stroke="none" transform="matrix(1.0000,0.0000,0.0000,1.0000,215.6898,34.3350)" text-anchor="middle">0</text></g><g fill="rgb(144,238,144)" stroke="rgb(0,0,0)" stroke-linecap="butt" stroke-width="1.3911827421098282" stroke-miterlimit="10.0" fill-opacity="1.0" stroke-opacity="1.0" stroke-linejoin="miter"><path d="M 319.8342,144.5800 c 0.0000,-11.4524 -9.2840,-20.7363 -20.7363 -20.7363c -11.4524,-0.0000 -20.7363,9.2840 -20.7363 20.7363c -0.0000,11.4524 9.2840,20.7363 20.7363 20.7363c 11.4524,0.0000 20.7363,-9.2840 20.7363 -20.7363Z"/></g><g fill="rgb(0,0,0)" stroke="rgb(0,0,0)" stroke-linecap="butt" stroke-width="1.3911827421098282" font-size="20.736315235116646px" stroke-miterlimit="10.0" fill-opacity="1.0" stroke-opacity="1.0" stroke-linejoin="miter"><text dominant-baseline="middle" stroke="none" transform="matrix(1.0000,0.0000,0.0000,1.0000,299.0979,144.5800)" text-anchor="middle">+</text></g><g fill="rgb(0,0,0)" stroke="rgb(0,0,0)" stroke-linecap="butt" stroke-width="1.3911827421098282" font-size="20.736315235116646px" stroke-miterlimit="10.0" fill-opacity="1.0" stroke-opacity="1.0" stroke-linejoin="miter"><text dominant-baseline="middle" stroke="none" transform="matrix(1.0000,0.0000,0.0000,1.0000,199.3595,107.8317)" text-anchor="middle">-0+ *</text></g></svg>