<?xml version="1.0" encoding="UTF-8"?>
<!DOCTYPE svg PUBLIC "-//W3C//DTD SVG 1.1//EN"
    "http://www.w3.org/Graphics/SVG/1.1/DTD/svg11.dtd"><svg stroke="rgb(0,0,0)" xmlns="http://www.w3.org/2000/svg" font-size="1" width="700.0000" stroke-opacity="1" xmlns:xlink="http://www.w3.org/1999/xlink" viewBox="0.0 0.0 700.0 200.0" height="200.0000" version="1.1"><defs></defs><g fill="rgb(144,238,144)" stroke="rgb(255,0,0)" stroke-linecap="butt" stroke-width="1.4753880892437972" stroke-miterlimit="10.0" fill-opacity="1.0" stroke-opacity="1.0" stroke-linejoin="miter" opacity="1.0"><path d="M 700.0000,148.5886 h 0.0000 c 0.0000,-8.9449 -7.2513,-16.1962 -16.1962 -16.1962h -32.3924 c -8.9449,-0.0000 -16.1962,7.2513 -16.1962 16.1962h 0.0000 c -0.0000,8.9449 7.2513,16.1962 16.1962 16.1962h 32.3924 c 8.9449,0.0000 16.1962,-7.2513 16.1962 -16.1962Z"/></g><g fill="rgb(0,0,0)" stroke="rgb(255,0,0)" stroke-linecap="butt" stroke-width="1.4753880892437972" font-size="16.196205460434985px" stroke-miterlimit="10.0" fill-opacity="1.0" stroke-opacity="1.0" stroke-linejoin="miter" opacity="1.0"><text dominant-baseline="middle" stroke="none" transform="matrix(1.0000,0.0000,0.0000,1.0000,667.6076,148.5886)" text-anchor="middle">+</text></g><g fill="rgb(144,238,144)" stroke="rgb(255,0,0)" stroke-linecap="butt" stroke-width="1.4753880892437972" stroke-miterlimit="10.0" fill-opacity="1.0" stroke-opacity="1.0" stroke-linejoin="miter" opacity="1.0"><path d="M 602.8228,148.5886 h 0.0000 c 0.0000,-8.9449 -7.2513,-16.1962 -16.1962 -16.1962h -32.3924 c -8.9449,-0.0000 -16.1962,7.2513 -16.1962 16.1962h 0.0000 c -0.0000,8.9449 7.2513,16.1962 16.1962 16.1962h 32.3924 c 8.9449,0.0000 16.1962,-7.2513 16.1962 -16.1962Z"/></g><g fill="rgb(0,0,0)" stroke="rgb(255,0,0)" stroke-linecap="butt" stroke-width="1.4753880892437972" font-size="16.196205460434985px" stroke-miterlimit="10.0" fill-opacity="1.0" stroke-opacity="1.0" stroke-linejoin="miter" opacity="1.0"><text dominant-baseline="middle" stroke="none" transform="matrix(1.0000,0.0000,0.0000,1.0000,570.4304,148.5886)" text-anchor="middle">0</text></g><g fill="rgb(144,238,144)" stroke="rgb(255,0,0)" stroke-linecap="butt" stroke-width="1.4753880892437972" stroke-miterlimit="10.0" fill-opacity="1.0" stroke-opacity="1.0" stroke-linejoin="miter" opacity="0.0"><path d="M 505.6455,148.5886 h 0.0000 c 0.0000,-8.9449 -7.2513,-16.1962 -16.1962 -16.1962h -32.3924 c -8.9449,-0.0000 -16.1962,7.2513 -16.1962 16.1962h 0.0000 c -0.0000,8.9449 7.2513,16.1962 16.1962 16.1962h 32.3924 c 8.9449,0.0000 16.1962,-7.2513 16.1962 -16.1962Z"/></g><g fill="rgb(0,0,0)" stroke="rgb(255,0,0)" stroke-linecap="butt" stroke-width="1.4753880892437972" font-size="16.196205460434985px" stroke-miterlimit="10.0" fill-opacity="1.0" stroke-opacity="1.0" stroke-linejoin="miter" opacity="0.0"><text dominant-baseline="middle" stroke="none" transform="matrix(1.0000,0.0000,0.0000,1.0000,473.2531,148.5886)" text-anchor="middle">-</text></g><g fill="rgb(255,165,0)" stroke="rgb(255,0,0)" stroke-linecap="butt" stroke-width="1.4753880892437972" stroke-miterlimit="10.0" fill-opacity="1.0" stroke-opacity="1.0" stroke-linejoin="miter" opacity="1.0"><path d="M 700.0000,83.8038 h 0.0000 c 0.0000,-8.9449 -7.2513,-16.1962 -16.1962 -16.1962h -32.3924 c -8.9449,-0.0000 -16.1962,7.2513 -16.1962 16.1962h 0.0000 c -0.0000,8.9449 7.2513,16.1962 16.1962 16.1962h 32.3924 c 8.9449,0.0000 16.1962,-7.2513 16.1962 -16.1962Z"/></g><g fill="rgb(0,0,0)" stroke="rgb(255,0,0)" stroke-linecap="butt" stroke-width="1.4753880892437972" font-size="16.196205460434985px" stroke-miterlimit="10.0" fill-opacity="1.0" stroke-opacity="1.0" stroke-linejoin="miter" opacity="1.0"><text dominant-baseline="middle" stroke="none" transform="matrix(1.0000,0.0000,0.0000,1.0000,667.6076,83.8038)" text-anchor="middle">0+</text></g><g fill="rgb(255,165,0)" stroke="rgb(255,0,0)" stroke-linecap="butt" stroke-width="1.4753880892437972" stroke-miterlimit="10.0" fill-opacity="1.0" stroke-opacity="1.0" stroke-linejoin="miter" opacity="1.0"><path d="M 602.8228,83.8038 h 0.0000 c 0.0000,-8.9449 -7.2513,-16.1962 -16.1962 -16.1962h -32.3924 c -8.9449,-0.0000 -16.1962,7.2513 -16.1962 16.1962h 0.0000 c -0.0000,8.9449 7.2513,16.1962 16.1962 16.1962h 32.3924 c 8.9449,0.0000 16.1962,-7.2513 16.1962 -16.1962Z"/></g><g fill="rgb(0,0,0)" stroke="rgb(255,0,0)" stroke-linecap="butt" stroke-width="1.4753880892437972" font-size="16.196205460434985px" stroke-miterlimit="10.0" fill-opacity="1.0" stroke-opacity="1.0" stroke-linejoin="miter" opacity="1.0"><text dominant-baseline="middle" stroke="none" transform="matrix(1.0000,0.0000,0.0000,1.0000,570.4304,83.8038)" text-anchor="middle">-+ *</text></g><g fill="rgb(255,165,0)" stroke="rgb(255,0,0)" stroke-linecap="butt" stroke-width="1.4753880892437972" stroke-miterlimit="10.0" fill-opacity="1.0" stroke-opacity="1.0" stroke-linejoin="miter" opacity="0.0"><path d="M 505.6455,83.8038 h 0.0000 c 0.0000,-8.9449 -7.2513,-16.1962 -16.1962 -16.1962h -32.3924 c -8.9449,-0.0000 -16.1962,7.2513 -16.1962 16.1962h 0.0000 c -0.0000,8.9449 7.2513,16.1962 16.1962 16.1962h 32.3924 c 8.9449,0.0000 16.1962,-7.2513 16.1962 -16.1962Z"/></g><g fill="rgb(0,0,0)" stroke="rgb(255,0,0)" stroke-linecap="butt" stroke-width="1.4753880892437972" font-size="16.196205460434985px" stroke-miterlimit="10.0" fill-opacity="1.0" stroke-opacity="1.0" stroke-linejoin="miter" opacity="0.0"><text dominant-baseline="middle" stroke="none" transform="matrix(1.0000,0.0000,0.0000,1.0000,473.2531,83.8038)" text-anchor="middle">-0</text></g><g fill="rgb(173,216,230)" stroke="rgb(255,0,0)" stroke-linecap="butt" stroke-width="1.4753880892437972" stroke-miterlimit="10.0" fill-opacity="1.0" stroke-opacity="1.0" stroke-linejoin="miter" opacity="1.0"><path d="M 602.8228,19.0190 h 0.0000 c 0.0000,-8.9449 -7.2513,-16.1962 -16.1962 -16.1962h -32.3924 c -8.9449,-0.0000 -16.1962,7.2513 -16.1962 16.1962h 0.0000 c -0.0000,8.9449 7.2513,16.1962 16.1962 16.1962h 32.3924 c 8.9449,0.0000 16.1962,-7.2513 16.1962 -16.1962Z"/></g><g fill="rgb(0,0,0)" stroke="rgb(255,0,0)" stroke-linecap="butt" stroke-width="1.4753880892437972" font-size="16.196205460434985px" stroke-miterlimit="10.0" fill-opacity="1.0" stroke-opacity="1.0" stroke-linejoin="miter" opacity="1.0"><text dominant-baseline="middle" stroke="none" transform="matrix(1.0000,0.0000,0.0000,1.0000,570.4304,19.0190)" text-anchor="middle">-0+</text></g><g fill="rgb(0,0,0)" stroke="rgb(255,0,0)" stroke-linecap="butt" stroke-width="1.4753880892437972" stroke-miterlimit="10.0" fill-opacity="0.0" stroke-opacity="1.0" stroke-linejoin="miter"><path d="M 667.6076,100.0000 l 0.0000,19.4828 "/></g><g fill="rgb(255,0,0)" stroke="rgb(255,0,0)" stroke-linecap="butt" stroke-width="0.0" stroke-miterlimit="10.0" fill-opacity="1.0" stroke-opacity="1.0" stroke-linejoin="miter"></g><g fill="rgb(255,0,0)" stroke="rgb(255,0,0)" stroke-linecap="butt" stroke-width="0.0" stroke-miterlimit="10.0" fill-opacity="1.0" stroke-opacity="1.0" stroke-linejoin="miter"></g><g fill="rgb(255,0,0)" stroke="rgb(255,0,0)" stroke-linecap="butt" stroke-width="0.0" stroke-miterlimit="10.0" fill-opacity="1.0" stroke-opacity="1.0" stroke-linejoin="miter"><path d="M 667.6076,132.3924 l 4.9068,-15.1015 l -4.9068,2.5796 l -4.9068,-2.5796 Z"/></g><g fill="rgb(255,0,0)" stroke="rgb(255,0,0)" stroke-linecap="butt" stroke-width="0.0" stroke-miterlimit="10.0" fill-opacity="1.0" stroke-opacity="1.0" stroke-linejoin="miter"><path d="M 667.6076,119.8706 l -0.0000,-0.3878 l 0.7377,-0.0000 l -0.7377,0.3878 l -0.0000,-0.3878 l -0.7377,0.0000 Z"/></g><g fill="rgb(0,0,0)" stroke="rgb(255,0,0)" stroke-linecap="butt" stroke-width="1.4753880892437972" stroke-miterlimit="10.0" fill-opacity="0.0" stroke-opacity="1.0" stroke-linejoin="miter"><path d="M 645.1779,98.7570 l -41.5763,27.7175 "/></g><g fill="rgb(255,0,0)" stroke="rgb(255,0,0)" stroke-linecap="butt" stroke-width="0.0" stroke-miterlimit="10.0" fill-opacity="1.0" stroke-opacity="1.0" stroke-linejoin="miter"></g><g fill="rgb(255,0,0)" stroke="rgb(255,0,0)" stroke-linecap="butt" stroke-width="0.0" stroke-miterlimit="10.0" fill-opacity="1.0" stroke-opacity="1.0" stroke-linejoin="miter"></g><g fill="rgb(255,0,0)" stroke="rgb(255,0,0)" stroke-linecap="butt" stroke-width="0.0" stroke-miterlimit="10.0" fill-opacity="1.0" stroke-opacity="1.0" stroke-linejoin="miter"><path d="M 592.8601,133.6355 l 15.2869,-4.2941 l -4.8682,-2.6517 l -0.5754,-5.5136 Z"/></g><g fill="rgb(255,0,0)" stroke="rgb(255,0,0)" stroke-linecap="butt" stroke-width="0.0" stroke-miterlimit="10.0" fill-opacity="1.0" stroke-opacity="1.0" stroke-linejoin="miter"><path d="M 603.2789,126.6896 l 0.3227,-0.2151 l 0.4092,0.6138 l -0.7319,-0.3987 l 0.3227,-0.2151 l -0.4092,-0.6138 Z"/></g><g fill="rgb(0,0,0)" stroke="rgb(255,0,0)" stroke-linecap="butt" stroke-width="1.4753880892437972" stroke-miterlimit="10.0" fill-opacity="0.0" stroke-opacity="1.0" stroke-linejoin="miter"><path d="M 592.8601,98.7570 l 41.5763,27.7175 "/></g><g fill="rgb(255,0,0)" stroke="rgb(255,0,0)" stroke-linecap="butt" stroke-width="0.0" stroke-miterlimit="10.0" fill-opacity="1.0" stroke-opacity="1.0" stroke-linejoin="miter"></g><g fill="rgb(255,0,0)" stroke="rgb(255,0,0)" stroke-linecap="butt" stroke-width="0.0" stroke-miterlimit="10.0" fill-opacity="1.0" stroke-opacity="1.0" stroke-linejoin="miter"></g><g fill="rgb(255,0,0)" stroke="rgb(255,0,0)" stroke-linecap="butt" stroke-width="0.0" stroke-miterlimit="10.0" fill-opacity="1.0" stroke-opacity="1.0" stroke-linejoin="miter"><path d="M 645.1779,133.6355 l -9.8434,-12.4594 l -0.5754,5.5136 l -4.8682,2.6517 Z"/></g><g fill="rgb(255,0,0)" stroke="rgb(255,0,0)" stroke-linecap="butt" stroke-width="0.0" stroke-miterlimit="10.0" fill-opacity="1.0" stroke-opacity="1.0" stroke-linejoin="miter"><path d="M 634.7591,126.6896 l -0.3227,-0.2151 l 0.4092,-0.6138 l -0.0865,0.8289 l -0.3227,-0.2151 l -0.4092,0.6138 Z"/></g><g fill="rgb(0,0,0)" stroke="rgb(255,0,0)" stroke-linecap="butt" stroke-width="1.4753880892437972" stroke-miterlimit="10.0" fill-opacity="0.0" stroke-opacity="1.0" stroke-linejoin="miter"><path d="M 592.8601,33.9721 l 41.5763,27.7175 "/></g><g fill="rgb(255,0,0)" stroke="rgb(255,0,0)" stroke-linecap="butt" stroke-width="0.0" stroke-miterlimit="10.0" fill-opacity="1.0" stroke-opacity="1.0" stroke-linejoin="miter"></g><g fill="rgb(255,0,0)" stroke="rgb(255,0,0)" stroke-linecap="butt" stroke-width="0.0" stroke-miterlimit="10.0" fill-opacity="1.0" stroke-opacity="1.0" stroke-linejoin="miter"></g><g fill="rgb(255,0,0)" stroke="rgb(255,0,0)" stroke-linecap="butt" stroke-width="0.0" stroke-miterlimit="10.0" fill-opacity="1.0" stroke-opacity="1.0" stroke-linejoin="miter"><path d="M 645.1779,68.8506 l -9.8434,-12.4594 l -0.5754,5.5136 l -4.8682,2.6517 Z"/></g><g fill="rgb(255,0,0)" stroke="rgb(255,0,0)" stroke-linecap="butt" stroke-width="0.0" stroke-miterlimit="10.0" fill-opacity="1.0" stroke-opacity="1.0" stroke-linejoin="miter"><path d="M 634.7591,61.9048 l -0.3227,-0.2151 l 0.4092,-0.6138 l -0.0865,0.8289 l -0.3227,-0.2151 l -0.4092,0.6138 Z"/></g><g fill="rgb(0,0,0)" stroke="rgb(255,0,0)" stroke-linecap="butt" stroke-width="1.4753880892437972" stroke-miterlimit="10.0" fill-opacity="0.0" stroke-opacity="1.0" stroke-linejoin="miter"><path d="M 570.4304,35.2152 l 0.0000,19.4828 "/></g><g fill="rgb(255,0,0)" stroke="rgb(255,0,0)" stroke-linecap="butt" stroke-width="0.0" stroke-miterlimit="10.0" fill-opacity="1.0" stroke-opacity="1.0" stroke-linejoin="miter"></g><g fill="rgb(255,0,0)" stroke="rgb(255,0,0)" stroke-linecap="butt" stroke-width="0.0" stroke-miterlimit="10.0" fill-opacity="1.0" stroke-opacity="1.0" stroke-linejoin="miter"></g><g fill="rgb(255,0,0)" stroke="rgb(255,0,0)" stroke-linecap="butt" stroke-width="0.0" stroke-miterlimit="10.0" fill-opacity="1.0" stroke-opacity="1.0" stroke-linejoin="miter"><path d="M 570.4304,67.6076 l 4.9068,-15.1015 l -4.9068,2.5796 l -4.9068,-2.5796 Z"/></g><g fill="rgb(255,0,0)" stroke="rgb(255,0,0)" stroke-linecap="butt" stroke-width="0.0" stroke-miterlimit="10.0" fill-opacity="1.0" stroke-opacity="1.0" stroke-linejoin="miter"><path d="M 570.4304,55.0858 l -0.0000,-0.3878 l 0.7377,-0.0000 l -0.7377,0.3878 l -0.0000,-0.3878 l -0.7377,0.0000 Z"/></g><g fill="rgb(173,216,230)" stroke="rgb(173,216,230)" stroke-linecap="butt" stroke-width="0.7376940446218986" stroke-miterlimit="10.0" fill-opacity="1.0" stroke-opacity="1.0" stroke-linejoin="miter"><path d="M 324.2480,164.7848 l -64.7848,-129.5696 l -259.1393,129.5696 Z"/></g><g fill="rgb(0,0,0)" stroke="rgb(255,165,0)" stroke-linecap="butt" stroke-width="2.7663526673321197" stroke-miterlimit="10.0" fill-opacity="0.0" stroke-opacity="1.0" stroke-linejoin="miter"><path d="M 324.2480,164.7848 l -64.7848,-129.5696 "/></g><g fill="rgb(0,0,0)" stroke="rgb(255,165,0)" stroke-linecap="butt" stroke-width="2.7663526673321197" stroke-miterlimit="10.0" fill-opacity="0.0" stroke-opacity="1.0" stroke-linejoin="miter"><path d="M 324.2480,164.7848 h -323.9241 "/></g><g fill="rgb(255,255,255)" stroke="rgb(255,165,0)" stroke-linecap="butt" stroke-width="1.4753880892437972" stroke-miterlimit="10.0" fill-opacity="1.0" stroke-opacity="1.0" stroke-linejoin="miter"><path d="M 143.0125,93.6835 l -0.0000,-0.3239 h -0.3239 l -0.0000,0.3239 Z"/></g><g fill="rgb(255,165,0)" stroke="rgb(0,0,0)" stroke-linecap="butt" stroke-width="1.4753880892437972" font-size="0.3239241092086997px" stroke-miterlimit="10.0" fill-opacity="1.0" stroke-opacity="1.0" stroke-linejoin="miter"><text dominant-baseline="middle" stroke="none" transform="matrix(1.0000,0.0000,0.0000,1.0000,142.8505,93.5215)" text-anchor="middle">-0</text></g><g fill="rgb(255,255,255)" stroke="rgb(255,165,0)" stroke-linecap="butt" stroke-width="1.4753880892437972" stroke-miterlimit="10.0" fill-opacity="1.0" stroke-opacity="1.0" stroke-linejoin="miter"><path d="M 201.1569,176.1222 l -0.0000,-22.6747 h -45.3494 l -0.0000,22.6747 Z"/></g><g fill="rgb(255,165,0)" stroke="rgb(0,0,0)" stroke-linecap="butt" stroke-width="1.4753880892437972" font-size="19.43544655252198px" stroke-miterlimit="10.0" fill-opacity="1.0" stroke-opacity="1.0" stroke-linejoin="miter"><text dominant-baseline="middle" stroke="none" transform="matrix(1.0000,0.0000,0.0000,1.0000,178.4822,164.7848)" text-anchor="middle">+-</text></g><g fill="rgb(255,255,255)" stroke="rgb(255,165,0)" stroke-linecap="butt" stroke-width="1.4753880892437972" stroke-miterlimit="10.0" fill-opacity="1.0" stroke-opacity="1.0" stroke-linejoin="miter"><path d="M 317.7696,117.8158 l -0.0000,-22.6747 h -45.3494 l -0.0000,22.6747 Z"/></g><g fill="rgb(255,165,0)" stroke="rgb(0,0,0)" stroke-linecap="butt" stroke-width="1.4753880892437972" font-size="19.43544655252198px" stroke-miterlimit="10.0" fill-opacity="1.0" stroke-opacity="1.0" stroke-linejoin="miter"><text dominant-baseline="middle" stroke="none" transform="matrix(1.0000,0.0000,0.0000,1.0000,295.0949,106.4785)" text-anchor="middle">0+</text></g><g fill="rgb(0,0,0)" stroke="rgb(0,0,0)" stroke-linecap="butt" stroke-width="1.4753880892437972" font-size="19.43544655252198px" stroke-miterlimit="10.0" fill-opacity="1.0" stroke-opacity="1.0" stroke-linejoin="miter"><text dominant-baseline="middle" stroke="none" transform="matrix(1.0000,0.0000,0.0000,1.0000,233.5493,100.0000)" text-anchor="middle">-0+</text></g><g fill="rgb(0,0,0)" stroke="rgb(0,0,0)" stroke-linecap="butt" stroke-width="1.4753880892437972" stroke-miterlimit="10.0" fill-opacity="0.0" stroke-opacity="1.0" stroke-linejoin="miter"><path d="M 194.6784,100.0000 l 3.8285,3.8285 "/></g><g fill="rgb(0,0,0)" stroke="rgb(0,0,0)" stroke-linecap="butt" stroke-width="0.0" stroke-miterlimit="10.0" fill-opacity="1.0" stroke-opacity="1.0" stroke-linejoin="miter"></g><g fill="rgb(0,0,0)" stroke="rgb(0,0,0)" stroke-linecap="butt" stroke-width="0.0" stroke-miterlimit="10.0" fill-opacity="1.0" stroke-opacity="1.0" stroke-linejoin="miter"></g><g fill="rgb(0,0,0)" stroke="rgb(0,0,0)" stroke-linecap="butt" stroke-width="0.0" stroke-miterlimit="10.0" fill-opacity="1.0" stroke-opacity="1.0" stroke-linejoin="miter"><path d="M 207.6354,112.9570 l -7.2087,-14.1479 l -1.6455,5.2937 l -5.2937,1.6455 Z"/></g><g fill="rgb(0,0,0)" stroke="rgb(0,0,0)" stroke-linecap="butt" stroke-width="0.0" stroke-miterlimit="10.0" fill-opacity="1.0" stroke-opacity="1.0" stroke-linejoin="miter"><path d="M 198.7811,104.1027 l -0.2742,-0.2742 l 0.5216,-0.5216 l -0.2474,0.7959 l -0.2742,-0.2742 l -0.5216,0.5216 Z"/></g><g fill="rgb(0,0,0)" stroke="rgb(0,0,255)" stroke-linecap="butt" stroke-width="2.7663526673321197" stroke-miterlimit="10.0" fill-opacity="0.0" stroke-opacity="1.0" stroke-linejoin="miter"><path d="M 97.5012,197.1772 l 194.3545,-194.3545 "/></g><g fill="rgb(144,238,144)" stroke="rgb(0,0,0)" stroke-linecap="butt" stroke-width="1.4753880892437972" stroke-miterlimit="10.0" fill-opacity="1.0" stroke-opacity="1.0" stroke-linejoin="miter"><path d="M 0.6478,164.7848 c 0.0000,-0.1789 -0.1450,-0.3239 -0.3239 -0.3239c -0.1789,-0.0000 -0.3239,0.1450 -0.3239 0.3239c -0.0000,0.1789 0.1450,0.3239 0.3239 0.3239c 0.1789,0.0000 0.3239,-0.1450 0.3239 -0.3239Z"/></g><g fill="rgb(0,0,0)" stroke="rgb(0,0,0)" stroke-linecap="butt" stroke-width="1.4753880892437972" font-size="0.3239241092086997px" stroke-miterlimit="10.0" fill-opacity="1.0" stroke-opacity="1.0" stroke-linejoin="miter"><text dominant-baseline="middle" stroke="none" transform="matrix(1.0000,0.0000,0.0000,1.0000,0.3239,164.7848)" text-anchor="middle">-</text></g><g fill="rgb(144,238,144)" stroke="rgb(0,0,0)" stroke-linecap="butt" stroke-width="1.4753880892437972" stroke-miterlimit="10.0" fill-opacity="1.0" stroke-opacity="1.0" stroke-linejoin="miter"><path d="M 278.8987,35.2152 c 0.0000,-10.7339 -8.7015,-19.4354 -19.4354 -19.4354c -10.7339,-0.0000 -19.4354,8.7015 -19.4354 19.4354c -0.0000,10.7339 8.7015,19.4354 19.4354 19.4354c 10.7339,0.0000 19.4354,-8.7015 19.4354 -19.4354Z"/></g><g fill="rgb(0,0,0)" stroke="rgb(0,0,0)" stroke-linecap="butt" stroke-width="1.4753880892437972" font-size="19.43544655252198px" stroke-miterlimit="10.0" fill-opacity="1.0" stroke-opacity="1.0" stroke-linejoin="miter"><text dominant-baseline="middle" stroke="none" transform="matrix(1.0000,0.0000,0.0000,1.0000,259.4632,35.2152)" text-anchor="middle">0</text></g><g fill="rgb(144,238,144)" stroke="rgb(0,0,0)" stroke-linecap="butt" stroke-width="1.4753880892437972" stroke-miterlimit="10.0" fill-opacity="1.0" stroke-opacity="1.0" stroke-linejoin="miter"><path d="M 343.6835,164.7848 c 0.0000,-10.7339 -8.7015,-19.4354 -19.4354 -19.4354c -10.7339,-0.0000 -19.4354,8.7015 -19.4354 19.4354c -0.0000,10.7339 8.7015,19.4354 19.4354 19.4354c 10.7339,0.0000 19.4354,-8.7015 19.4354 -19.4354Z"/></g><g fill="rgb(0,0,0)" stroke="rgb(0,0,0)" stroke-linecap="butt" stroke-width="1.4753880892437972" font-size="19.43544655252198px" stroke-miterlimit="10.0" fill-opacity="1.0" stroke-opacity="1.0" stroke-linejoin="miter"><text dominant-baseline="middle" stroke="none" transform="matrix(1.0000,0.0000,0.0000,1.0000,324.2480,164.7848)" text-anchor="middle">+</text></g></svg>