<?xml version="1.0" encoding="UTF-8"?>
<!DOCTYPE svg PUBLIC "-//W3C//DTD SVG 1.1//EN"
    "http://www.w3.org/Graphics/SVG/1.1/DTD/svg11.dtd"><svg stroke="rgb(0,0,0)" xmlns="http://www.w3.org/2000/svg" font-size="1" width="700.0000" stroke-opacity="1" xmlns:xlink="http://www.w3.org/1999/xlink" viewBox="0.0 0.0 700.0 200.0" height="200.0000" version="1.1"><defs></defs><g fill="rgb(144,238,144)" stroke="rgb(255,0,0)" stroke-linecap="butt" stroke-width="1.4911050655451819" stroke-miterlimit="10.0" fill-opacity="1.0" stroke-opacity="1.0" stroke-linejoin="miter"><path d="M 697.4054,150.0000 h 0.0000 c 0.0000,-9.2047 -7.4619,-16.6667 -16.6667 -16.6667h -33.3333 c -9.2047,-0.0000 -16.6667,7.4619 -16.6667 16.6667h 0.0000 c -0.0000,9.2047 7.4619,16.6667 16.6667 16.6667h 33.3333 c 9.2047,0.0000 16.6667,-7.4619 16.6667 -16.6667Z"/></g><g fill="rgb(0,0,0)" stroke="rgb(255,0,0)" stroke-linecap="butt" stroke-width="1.4911050655451819" font-size="16.666666666666668px" stroke-miterlimit="10.0" fill-opacity="1.0" stroke-opacity="1.0" stroke-linejoin="miter"><text dominant-baseline="middle" stroke="none" transform="matrix(1.0000,0.0000,0.0000,1.0000,664.0720,150.0000)" text-anchor="middle">+</text></g><g fill="rgb(144,238,144)" stroke="rgb(255,0,0)" stroke-linecap="butt" stroke-width="1.4911050655451819" stroke-miterlimit="10.0" fill-opacity="1.0" stroke-opacity="1.0" stroke-linejoin="miter"><path d="M 597.4054,150.0000 h 0.0000 c 0.0000,-9.2047 -7.4619,-16.6667 -16.6667 -16.6667h -33.3333 c -9.2047,-0.0000 -16.6667,7.4619 -16.6667 16.6667h 0.0000 c -0.0000,9.2047 7.4619,16.6667 16.6667 16.6667h 33.3333 c 9.2047,0.0000 16.6667,-7.4619 16.6667 -16.6667Z"/></g><g fill="rgb(0,0,0)" stroke="rgb(255,0,0)" stroke-linecap="butt" stroke-width="1.4911050655451819" font-size="16.666666666666668px" stroke-miterlimit="10.0" fill-opacity="1.0" stroke-opacity="1.0" stroke-linejoin="miter"><text dominant-baseline="middle" stroke="none" transform="matrix(1.0000,0.0000,0.0000,1.0000,564.0720,150.0000)" text-anchor="middle">0</text></g><g fill="rgb(144,238,144)" stroke="rgb(255,0,0)" stroke-linecap="butt" stroke-width="1.4911050655451819" stroke-miterlimit="10.0" fill-opacity="1.0" stroke-opacity="1.0" stroke-linejoin="miter"><path d="M 497.4054,150.0000 h 0.0000 c 0.0000,-9.2047 -7.4619,-16.6667 -16.6667 -16.6667h -33.3333 c -9.2047,-0.0000 -16.6667,7.4619 -16.6667 16.6667h 0.0000 c -0.0000,9.2047 7.4619,16.6667 16.6667 16.6667h 33.3333 c 9.2047,0.0000 16.6667,-7.4619 16.6667 -16.6667Z"/></g><g fill="rgb(0,0,0)" stroke="rgb(255,0,0)" stroke-linecap="butt" stroke-width="1.4911050655451819" font-size="16.666666666666668px" stroke-miterlimit="10.0" fill-opacity="1.0" stroke-opacity="1.0" stroke-linejoin="miter"><text dominant-baseline="middle" stroke="none" transform="matrix(1.0000,0.0000,0.0000,1.0000,464.0720,150.0000)" text-anchor="middle">-</text></g><g fill="rgb(255,165,0)" stroke="rgb(255,0,0)" stroke-linecap="butt" stroke-width="1.4911050655451819" stroke-miterlimit="10.0" fill-opacity="1.0" stroke-opacity="1.0" stroke-linejoin="miter"><path d="M 697.4054,83.3333 h 0.0000 c 0.0000,-9.2047 -7.4619,-16.6667 -16.6667 -16.6667h -33.3333 c -9.2047,-0.0000 -16.6667,7.4619 -16.6667 16.6667h 0.0000 c -0.0000,9.2047 7.4619,16.6667 16.6667 16.6667h 33.3333 c 9.2047,0.0000 16.6667,-7.4619 16.6667 -16.6667Z"/></g><g fill="rgb(0,0,0)" stroke="rgb(255,0,0)" stroke-linecap="butt" stroke-width="1.4911050655451819" font-size="16.666666666666668px" stroke-miterlimit="10.0" fill-opacity="1.0" stroke-opacity="1.0" stroke-linejoin="miter"><text dominant-baseline="middle" stroke="none" transform="matrix(1.0000,0.0000,0.0000,1.0000,664.0720,83.3333)" text-anchor="middle">0+</text></g><g fill="rgb(255,165,0)" stroke="rgb(255,0,0)" stroke-linecap="butt" stroke-width="1.4911050655451819" stroke-miterlimit="10.0" fill-opacity="1.0" stroke-opacity="1.0" stroke-linejoin="miter"><path d="M 597.4054,83.3333 h 0.0000 c 0.0000,-9.2047 -7.4619,-16.6667 -16.6667 -16.6667h -33.3333 c -9.2047,-0.0000 -16.6667,7.4619 -16.6667 16.6667h 0.0000 c -0.0000,9.2047 7.4619,16.6667 16.6667 16.6667h 33.3333 c 9.2047,0.0000 16.6667,-7.4619 16.6667 -16.6667Z"/></g><g fill="rgb(0,0,0)" stroke="rgb(255,0,0)" stroke-linecap="butt" stroke-width="1.4911050655451819" font-size="16.666666666666668px" stroke-miterlimit="10.0" fill-opacity="1.0" stroke-opacity="1.0" stroke-linejoin="miter"><text dominant-baseline="middle" stroke="none" transform="matrix(1.0000,0.0000,0.0000,1.0000,564.0720,83.3333)" text-anchor="middle">-+</text></g><g fill="rgb(255,165,0)" stroke="rgb(255,0,0)" stroke-linecap="butt" stroke-width="1.4911050655451819" stroke-miterlimit="10.0" fill-opacity="1.0" stroke-opacity="1.0" stroke-linejoin="miter"><path d="M 497.4054,83.3333 h 0.0000 c 0.0000,-9.2047 -7.4619,-16.6667 -16.6667 -16.6667h -33.3333 c -9.2047,-0.0000 -16.6667,7.4619 -16.6667 16.6667h 0.0000 c -0.0000,9.2047 7.4619,16.6667 16.6667 16.6667h 33.3333 c 9.2047,0.0000 16.6667,-7.4619 16.6667 -16.6667Z"/></g><g fill="rgb(0,0,0)" stroke="rgb(255,0,0)" stroke-linecap="butt" stroke-width="1.4911050655451819" font-size="16.666666666666668px" stroke-miterlimit="10.0" fill-opacity="1.0" stroke-opacity="1.0" stroke-linejoin="miter"><text dominant-baseline="middle" stroke="none" transform="matrix(1.0000,0.0000,0.0000,1.0000,464.0720,83.3333)" text-anchor="middle">-0</text></g><g fill="rgb(173,216,230)" stroke="rgb(255,0,0)" stroke-linecap="butt" stroke-width="1.4911050655451819" stroke-miterlimit="10.0" fill-opacity="1.0" stroke-opacity="1.0" stroke-linejoin="miter"><path d="M 597.4054,16.6667 h 0.0000 c 0.0000,-9.2047 -7.4619,-16.6667 -16.6667 -16.6667h -33.3333 c -9.2047,-0.0000 -16.6667,7.4619 -16.6667 16.6667h 0.0000 c -0.0000,9.2047 7.4619,16.6667 16.6667 16.6667h 33.3333 c 9.2047,0.0000 16.6667,-7.4619 16.6667 -16.6667Z"/></g><g fill="rgb(0,0,0)" stroke="rgb(255,0,0)" stroke-linecap="butt" stroke-width="1.4911050655451819" font-size="16.666666666666668px" stroke-miterlimit="10.0" fill-opacity="1.0" stroke-opacity="1.0" stroke-linejoin="miter"><text dominant-baseline="middle" stroke="none" transform="matrix(1.0000,0.0000,0.0000,1.0000,564.0720,16.6667)" text-anchor="middle">-0+</text></g><g fill="rgb(0,0,0)" stroke="rgb(255,0,0)" stroke-linecap="butt" stroke-width="1.4911050655451819" stroke-miterlimit="10.0" fill-opacity="0.0" stroke-opacity="1.0" stroke-linejoin="miter"><path d="M 664.0720,100.0000 l 0.0000,20.2862 "/></g><g fill="rgb(255,0,0)" stroke="rgb(255,0,0)" stroke-linecap="butt" stroke-width="0.0" stroke-miterlimit="10.0" fill-opacity="1.0" stroke-opacity="1.0" stroke-linejoin="miter"></g><g fill="rgb(255,0,0)" stroke="rgb(255,0,0)" stroke-linecap="butt" stroke-width="0.0" stroke-miterlimit="10.0" fill-opacity="1.0" stroke-opacity="1.0" stroke-linejoin="miter"></g><g fill="rgb(255,0,0)" stroke="rgb(255,0,0)" stroke-linecap="butt" stroke-width="0.0" stroke-miterlimit="10.0" fill-opacity="1.0" stroke-opacity="1.0" stroke-linejoin="miter"><path d="M 664.0720,133.3333 l 4.9590,-15.2623 l -4.9590,2.6071 l -4.9590,-2.6071 Z"/></g><g fill="rgb(255,0,0)" stroke="rgb(255,0,0)" stroke-linecap="butt" stroke-width="0.0" stroke-miterlimit="10.0" fill-opacity="1.0" stroke-opacity="1.0" stroke-linejoin="miter"><path d="M 664.0720,120.6781 l -0.0000,-0.3920 l 0.7456,-0.0000 l -0.7456,0.3920 l -0.0000,-0.3920 l -0.7456,0.0000 Z"/></g><g fill="rgb(0,0,0)" stroke="rgb(255,0,0)" stroke-linecap="butt" stroke-width="1.4911050655451819" stroke-miterlimit="10.0" fill-opacity="0.0" stroke-opacity="1.0" stroke-linejoin="miter"><path d="M 640.9908,98.7208 l -42.9816,28.6544 "/></g><g fill="rgb(255,0,0)" stroke="rgb(255,0,0)" stroke-linecap="butt" stroke-width="0.0" stroke-miterlimit="10.0" fill-opacity="1.0" stroke-opacity="1.0" stroke-linejoin="miter"></g><g fill="rgb(255,0,0)" stroke="rgb(255,0,0)" stroke-linecap="butt" stroke-width="0.0" stroke-miterlimit="10.0" fill-opacity="1.0" stroke-opacity="1.0" stroke-linejoin="miter"></g><g fill="rgb(255,0,0)" stroke="rgb(255,0,0)" stroke-linecap="butt" stroke-width="0.0" stroke-miterlimit="10.0" fill-opacity="1.0" stroke-opacity="1.0" stroke-linejoin="miter"><path d="M 587.1533,134.6125 l 15.4498,-4.3399 l -4.9200,-2.6800 l -0.5815,-5.5723 Z"/></g><g fill="rgb(255,0,0)" stroke="rgb(255,0,0)" stroke-linecap="butt" stroke-width="0.0" stroke-miterlimit="10.0" fill-opacity="1.0" stroke-opacity="1.0" stroke-linejoin="miter"><path d="M 597.6831,127.5926 l 0.3261,-0.2174 l 0.4136,0.6203 l -0.7397,-0.4029 l 0.3261,-0.2174 l -0.4136,-0.6203 Z"/></g><g fill="rgb(0,0,0)" stroke="rgb(255,0,0)" stroke-linecap="butt" stroke-width="1.4911050655451819" stroke-miterlimit="10.0" fill-opacity="0.0" stroke-opacity="1.0" stroke-linejoin="miter"><path d="M 587.1533,98.7208 l 42.9816,28.6544 "/></g><g fill="rgb(255,0,0)" stroke="rgb(255,0,0)" stroke-linecap="butt" stroke-width="0.0" stroke-miterlimit="10.0" fill-opacity="1.0" stroke-opacity="1.0" stroke-linejoin="miter"></g><g fill="rgb(255,0,0)" stroke="rgb(255,0,0)" stroke-linecap="butt" stroke-width="0.0" stroke-miterlimit="10.0" fill-opacity="1.0" stroke-opacity="1.0" stroke-linejoin="miter"></g><g fill="rgb(255,0,0)" stroke="rgb(255,0,0)" stroke-linecap="butt" stroke-width="0.0" stroke-miterlimit="10.0" fill-opacity="1.0" stroke-opacity="1.0" stroke-linejoin="miter"><path d="M 640.9908,134.6125 l -9.9482,-12.5922 l -0.5815,5.5723 l -4.9200,2.6800 Z"/></g><g fill="rgb(255,0,0)" stroke="rgb(255,0,0)" stroke-linecap="butt" stroke-width="0.0" stroke-miterlimit="10.0" fill-opacity="1.0" stroke-opacity="1.0" stroke-linejoin="miter"><path d="M 630.4610,127.5926 l -0.3261,-0.2174 l 0.4136,-0.6203 l -0.0874,0.8378 l -0.3261,-0.2174 l -0.4136,0.6203 Z"/></g><g fill="rgb(0,0,0)" stroke="rgb(255,0,0)" stroke-linecap="butt" stroke-width="1.4911050655451819" stroke-miterlimit="10.0" fill-opacity="0.0" stroke-opacity="1.0" stroke-linejoin="miter"><path d="M 540.9908,98.7208 l -42.9816,28.6544 "/></g><g fill="rgb(255,0,0)" stroke="rgb(255,0,0)" stroke-linecap="butt" stroke-width="0.0" stroke-miterlimit="10.0" fill-opacity="1.0" stroke-opacity="1.0" stroke-linejoin="miter"></g><g fill="rgb(255,0,0)" stroke="rgb(255,0,0)" stroke-linecap="butt" stroke-width="0.0" stroke-miterlimit="10.0" fill-opacity="1.0" stroke-opacity="1.0" stroke-linejoin="miter"></g><g fill="rgb(255,0,0)" stroke="rgb(255,0,0)" stroke-linecap="butt" stroke-width="0.0" stroke-miterlimit="10.0" fill-opacity="1.0" stroke-opacity="1.0" stroke-linejoin="miter"><path d="M 487.1533,134.6125 l 15.4498,-4.3399 l -4.9200,-2.6800 l -0.5815,-5.5723 Z"/></g><g fill="rgb(255,0,0)" stroke="rgb(255,0,0)" stroke-linecap="butt" stroke-width="0.0" stroke-miterlimit="10.0" fill-opacity="1.0" stroke-opacity="1.0" stroke-linejoin="miter"><path d="M 497.6831,127.5926 l 0.3261,-0.2174 l 0.4136,0.6203 l -0.7397,-0.4029 l 0.3261,-0.2174 l -0.4136,-0.6203 Z"/></g><g fill="rgb(0,0,0)" stroke="rgb(255,0,0)" stroke-linecap="butt" stroke-width="1.4911050655451819" stroke-miterlimit="10.0" fill-opacity="0.0" stroke-opacity="1.0" stroke-linejoin="miter"><path d="M 487.1533,98.7208 l 42.9816,28.6544 "/></g><g fill="rgb(255,0,0)" stroke="rgb(255,0,0)" stroke-linecap="butt" stroke-width="0.0" stroke-miterlimit="10.0" fill-opacity="1.0" stroke-opacity="1.0" stroke-linejoin="miter"></g><g fill="rgb(255,0,0)" stroke="rgb(255,0,0)" stroke-linecap="butt" stroke-width="0.0" stroke-miterlimit="10.0" fill-opacity="1.0" stroke-opacity="1.0" stroke-linejoin="miter"></g><g fill="rgb(255,0,0)" stroke="rgb(255,0,0)" stroke-linecap="butt" stroke-width="0.0" stroke-miterlimit="10.0" fill-opacity="1.0" stroke-opacity="1.0" stroke-linejoin="miter"><path d="M 540.9908,134.6125 l -9.9482,-12.5922 l -0.5815,5.5723 l -4.9200,2.6800 Z"/></g><g fill="rgb(255,0,0)" stroke="rgb(255,0,0)" stroke-linecap="butt" stroke-width="0.0" stroke-miterlimit="10.0" fill-opacity="1.0" stroke-opacity="1.0" stroke-linejoin="miter"><path d="M 530.4610,127.5926 l -0.3261,-0.2174 l 0.4136,-0.6203 l -0.0874,0.8378 l -0.3261,-0.2174 l -0.4136,0.6203 Z"/></g><g fill="rgb(0,0,0)" stroke="rgb(255,0,0)" stroke-linecap="butt" stroke-width="1.4911050655451819" stroke-miterlimit="10.0" fill-opacity="0.0" stroke-opacity="1.0" stroke-linejoin="miter"><path d="M 464.0720,100.0000 l 0.0000,20.2862 "/></g><g fill="rgb(255,0,0)" stroke="rgb(255,0,0)" stroke-linecap="butt" stroke-width="0.0" stroke-miterlimit="10.0" fill-opacity="1.0" stroke-opacity="1.0" stroke-linejoin="miter"></g><g fill="rgb(255,0,0)" stroke="rgb(255,0,0)" stroke-linecap="butt" stroke-width="0.0" stroke-miterlimit="10.0" fill-opacity="1.0" stroke-opacity="1.0" stroke-linejoin="miter"></g><g fill="rgb(255,0,0)" stroke="rgb(255,0,0)" stroke-linecap="butt" stroke-width="0.0" stroke-miterlimit="10.0" fill-opacity="1.0" stroke-opacity="1.0" stroke-linejoin="miter"><path d="M 464.0720,133.3333 l 4.9590,-15.2623 l -4.9590,2.6071 l -4.9590,-2.6071 Z"/></g><g fill="rgb(255,0,0)" stroke="rgb(255,0,0)" stroke-linecap="butt" stroke-width="0.0" stroke-miterlimit="10.0" fill-opacity="1.0" stroke-opacity="1.0" stroke-linejoin="miter"><path d="M 464.0720,120.6781 l -0.0000,-0.3920 l 0.7456,-0.0000 l -0.7456,0.3920 l -0.0000,-0.3920 l -0.7456,0.0000 Z"/></g><g fill="rgb(0,0,0)" stroke="rgb(255,0,0)" stroke-linecap="butt" stroke-width="1.4911050655451819" stroke-miterlimit="10.0" fill-opacity="0.0" stroke-opacity="1.0" stroke-linejoin="miter"><path d="M 587.1533,32.0542 l 42.9816,28.6544 "/></g><g fill="rgb(255,0,0)" stroke="rgb(255,0,0)" stroke-linecap="butt" stroke-width="0.0" stroke-miterlimit="10.0" fill-opacity="1.0" stroke-opacity="1.0" stroke-linejoin="miter"></g><g fill="rgb(255,0,0)" stroke="rgb(255,0,0)" stroke-linecap="butt" stroke-width="0.0" stroke-miterlimit="10.0" fill-opacity="1.0" stroke-opacity="1.0" stroke-linejoin="miter"></g><g fill="rgb(255,0,0)" stroke="rgb(255,0,0)" stroke-linecap="butt" stroke-width="0.0" stroke-miterlimit="10.0" fill-opacity="1.0" stroke-opacity="1.0" stroke-linejoin="miter"><path d="M 640.9908,67.9458 l -9.9482,-12.5922 l -0.5815,5.5723 l -4.9200,2.6800 Z"/></g><g fill="rgb(255,0,0)" stroke="rgb(255,0,0)" stroke-linecap="butt" stroke-width="0.0" stroke-miterlimit="10.0" fill-opacity="1.0" stroke-opacity="1.0" stroke-linejoin="miter"><path d="M 630.4610,60.9260 l -0.3261,-0.2174 l 0.4136,-0.6203 l -0.0874,0.8378 l -0.3261,-0.2174 l -0.4136,0.6203 Z"/></g><g fill="rgb(0,0,0)" stroke="rgb(255,0,0)" stroke-linecap="butt" stroke-width="1.4911050655451819" stroke-miterlimit="10.0" fill-opacity="0.0" stroke-opacity="1.0" stroke-linejoin="miter"><path d="M 564.0720,33.3333 l 0.0000,20.2862 "/></g><g fill="rgb(255,0,0)" stroke="rgb(255,0,0)" stroke-linecap="butt" stroke-width="0.0" stroke-miterlimit="10.0" fill-opacity="1.0" stroke-opacity="1.0" stroke-linejoin="miter"></g><g fill="rgb(255,0,0)" stroke="rgb(255,0,0)" stroke-linecap="butt" stroke-width="0.0" stroke-miterlimit="10.0" fill-opacity="1.0" stroke-opacity="1.0" stroke-linejoin="miter"></g><g fill="rgb(255,0,0)" stroke="rgb(255,0,0)" stroke-linecap="butt" stroke-width="0.0" stroke-miterlimit="10.0" fill-opacity="1.0" stroke-opacity="1.0" stroke-linejoin="miter"><path d="M 564.0720,66.6667 l 4.9590,-15.2623 l -4.9590,2.6071 l -4.9590,-2.6071 Z"/></g><g fill="rgb(255,0,0)" stroke="rgb(255,0,0)" stroke-linecap="butt" stroke-width="0.0" stroke-miterlimit="10.0" fill-opacity="1.0" stroke-opacity="1.0" stroke-linejoin="miter"><path d="M 564.0720,54.0115 l -0.0000,-0.3920 l 0.7456,-0.0000 l -0.7456,0.3920 l -0.0000,-0.3920 l -0.7456,0.0000 Z"/></g><g fill="rgb(0,0,0)" stroke="rgb(255,0,0)" stroke-linecap="butt" stroke-width="1.4911050655451819" stroke-miterlimit="10.0" fill-opacity="0.0" stroke-opacity="1.0" stroke-linejoin="miter"><path d="M 540.9908,32.0542 l -42.9816,28.6544 "/></g><g fill="rgb(255,0,0)" stroke="rgb(255,0,0)" stroke-linecap="butt" stroke-width="0.0" stroke-miterlimit="10.0" fill-opacity="1.0" stroke-opacity="1.0" stroke-linejoin="miter"></g><g fill="rgb(255,0,0)" stroke="rgb(255,0,0)" stroke-linecap="butt" stroke-width="0.0" stroke-miterlimit="10.0" fill-opacity="1.0" stroke-opacity="1.0" stroke-linejoin="miter"></g><g fill="rgb(255,0,0)" stroke="rgb(255,0,0)" stroke-linecap="butt" stroke-width="0.0" stroke-miterlimit="10.0" fill-opacity="1.0" stroke-opacity="1.0" stroke-linejoin="miter"><path d="M 487.1533,67.9458 l 15.4498,-4.3399 l -4.9200,-2.6800 l -0.5815,-5.5723 Z"/></g><g fill="rgb(255,0,0)" stroke="rgb(255,0,0)" stroke-linecap="butt" stroke-width="0.0" stroke-miterlimit="10.0" fill-opacity="1.0" stroke-opacity="1.0" stroke-linejoin="miter"><path d="M 497.6831,60.9260 l 0.3261,-0.2174 l 0.4136,0.6203 l -0.7397,-0.4029 l 0.3261,-0.2174 l -0.4136,-0.6203 Z"/></g><g fill="rgb(173,216,230)" stroke="rgb(255,165,0)" stroke-linecap="butt" stroke-width="3.0" stroke-miterlimit="10.0" fill-opacity="1.0" stroke-opacity="1.0" stroke-linejoin="miter"><path d="M 310.7387,135.4435 l -80.4464,-106.3304 l -207.6976,106.3304 Z"/></g><g fill="rgb(144,238,144)" stroke="rgb(0,0,0)" stroke-linecap="butt" stroke-width="1.4911050655451819" stroke-miterlimit="10.0" fill-opacity="1.0" stroke-opacity="1.0" stroke-linejoin="miter"><path d="M 42.5946,135.4435 c 0.0000,-11.0457 -8.9543,-20.0000 -20.0000 -20.0000c -11.0457,-0.0000 -20.0000,8.9543 -20.0000 20.0000c -0.0000,11.0457 8.9543,20.0000 20.0000 20.0000c 11.0457,0.0000 20.0000,-8.9543 20.0000 -20.0000Z"/></g><g fill="rgb(0,0,0)" stroke="rgb(0,0,0)" stroke-linecap="butt" stroke-width="1.4911050655451819" font-size="20.0px" stroke-miterlimit="10.0" fill-opacity="1.0" stroke-opacity="1.0" stroke-linejoin="miter"><text dominant-baseline="middle" stroke="none" transform="matrix(1.0000,0.0000,0.0000,1.0000,22.5946,135.4435)" text-anchor="middle">-</text></g><g fill="rgb(144,238,144)" stroke="rgb(0,0,0)" stroke-linecap="butt" stroke-width="1.4911050655451819" stroke-miterlimit="10.0" fill-opacity="1.0" stroke-opacity="1.0" stroke-linejoin="miter"><path d="M 250.2922,29.1131 c 0.0000,-11.0457 -8.9543,-20.0000 -20.0000 -20.0000c -11.0457,-0.0000 -20.0000,8.9543 -20.0000 20.0000c -0.0000,11.0457 8.9543,20.0000 20.0000 20.0000c 11.0457,0.0000 20.0000,-8.9543 20.0000 -20.0000Z"/></g><g fill="rgb(0,0,0)" stroke="rgb(0,0,0)" stroke-linecap="butt" stroke-width="1.4911050655451819" font-size="20.0px" stroke-miterlimit="10.0" fill-opacity="1.0" stroke-opacity="1.0" stroke-linejoin="miter"><text dominant-baseline="middle" stroke="none" transform="matrix(1.0000,0.0000,0.0000,1.0000,230.2922,29.1131)" text-anchor="middle">0</text></g><g fill="rgb(144,238,144)" stroke="rgb(0,0,0)" stroke-linecap="butt" stroke-width="1.4911050655451819" stroke-miterlimit="10.0" fill-opacity="1.0" stroke-opacity="1.0" stroke-linejoin="miter"><path d="M 330.7387,135.4435 c 0.0000,-11.0457 -8.9543,-20.0000 -20.0000 -20.0000c -11.0457,-0.0000 -20.0000,8.9543 -20.0000 20.0000c -0.0000,11.0457 8.9543,20.0000 20.0000 20.0000c 11.0457,0.0000 20.0000,-8.9543 20.0000 -20.0000Z"/></g><g fill="rgb(0,0,0)" stroke="rgb(0,0,0)" stroke-linecap="butt" stroke-width="1.4911050655451819" font-size="20.0px" stroke-miterlimit="10.0" fill-opacity="1.0" stroke-opacity="1.0" stroke-linejoin="miter"><text dominant-baseline="middle" stroke="none" transform="matrix(1.0000,0.0000,0.0000,1.0000,310.7387,135.4435)" text-anchor="middle">+</text></g><g fill="rgb(255,255,255)" stroke="rgb(255,165,0)" stroke-linecap="butt" stroke-width="1.4911050655451819" stroke-miterlimit="10.0" fill-opacity="1.0" stroke-opacity="1.0" stroke-linejoin="miter"><path d="M 149.7768,93.9449 l -0.0000,-23.3333 h -46.6667 l -0.0000,23.3333 Z"/></g><g fill="rgb(255,165,0)" stroke="rgb(0,0,0)" stroke-linecap="butt" stroke-width="1.4911050655451819" font-size="20.0px" stroke-miterlimit="10.0" fill-opacity="1.0" stroke-opacity="1.0" stroke-linejoin="miter"><text dominant-baseline="middle" stroke="none" transform="matrix(1.0000,0.0000,0.0000,1.0000,126.4434,82.2783)" text-anchor="middle">-0</text></g><g fill="rgb(255,255,255)" stroke="rgb(255,165,0)" stroke-linecap="butt" stroke-width="1.4911050655451819" stroke-miterlimit="10.0" fill-opacity="1.0" stroke-opacity="1.0" stroke-linejoin="miter"><path d="M 190.0000,147.1101 l -0.0000,-23.3333 h -46.6667 l -0.0000,23.3333 Z"/></g><g fill="rgb(255,165,0)" stroke="rgb(0,0,0)" stroke-linecap="butt" stroke-width="1.4911050655451819" font-size="20.0px" stroke-miterlimit="10.0" fill-opacity="1.0" stroke-opacity="1.0" stroke-linejoin="miter"><text dominant-baseline="middle" stroke="none" transform="matrix(1.0000,0.0000,0.0000,1.0000,166.6667,135.4435)" text-anchor="middle">-+</text></g><g fill="rgb(255,255,255)" stroke="rgb(255,165,0)" stroke-linecap="butt" stroke-width="1.4911050655451819" stroke-miterlimit="10.0" fill-opacity="1.0" stroke-opacity="1.0" stroke-linejoin="miter"><path d="M 293.8488,93.9449 l -0.0000,-23.3333 h -46.6667 l -0.0000,23.3333 Z"/></g><g fill="rgb(255,165,0)" stroke="rgb(0,0,0)" stroke-linecap="butt" stroke-width="1.4911050655451819" font-size="20.0px" stroke-miterlimit="10.0" fill-opacity="1.0" stroke-opacity="1.0" stroke-linejoin="miter"><text dominant-baseline="middle" stroke="none" transform="matrix(1.0000,0.0000,0.0000,1.0000,270.5155,82.2783)" text-anchor="middle">0+</text></g><g fill="rgb(0,0,0)" stroke="rgb(0,0,0)" stroke-linecap="butt" stroke-width="1.4911050655451819" font-size="20.0px" stroke-miterlimit="10.0" fill-opacity="1.0" stroke-opacity="1.0" stroke-linejoin="miter"><text dominant-baseline="middle" stroke="none" transform="matrix(1.0000,0.0000,0.0000,1.0000,214.5419,100.0000)" text-anchor="middle">-0+</text></g><g fill="rgb(0,0,0)" stroke="rgb(0,0,0)" stroke-linecap="butt" stroke-width="1.4911050655451819" stroke-miterlimit="10.0" fill-opacity="0.0" stroke-opacity="1.0" stroke-linejoin="miter"><path d="M 154.5419,103.3333 l 4.1076,4.1076 "/></g><g fill="rgb(0,0,0)" stroke="rgb(0,0,0)" stroke-linecap="butt" stroke-width="0.0" stroke-miterlimit="10.0" fill-opacity="1.0" stroke-opacity="1.0" stroke-linejoin="miter"></g><g fill="rgb(0,0,0)" stroke="rgb(0,0,0)" stroke-linecap="butt" stroke-width="0.0" stroke-miterlimit="10.0" fill-opacity="1.0" stroke-opacity="1.0" stroke-linejoin="miter"></g><g fill="rgb(0,0,0)" stroke="rgb(0,0,0)" stroke-linecap="butt" stroke-width="0.0" stroke-miterlimit="10.0" fill-opacity="1.0" stroke-opacity="1.0" stroke-linejoin="miter"><path d="M 167.8752,116.6667 l -7.2855,-14.2987 l -1.6631,5.3501 l -5.3501,1.6631 Z"/></g><g fill="rgb(0,0,0)" stroke="rgb(0,0,0)" stroke-linecap="butt" stroke-width="0.0" stroke-miterlimit="10.0" fill-opacity="1.0" stroke-opacity="1.0" stroke-linejoin="miter"><path d="M 158.9266,107.7181 l -0.2772,-0.2772 l 0.5272,-0.5272 l -0.2500,0.8043 l -0.2772,-0.2772 l -0.5272,0.5272 Z"/></g><g fill="rgb(0,0,0)" stroke="rgb(255,0,0)" stroke-linecap="butt" stroke-width="2.7958219978972156" stroke-miterlimit="10.0" fill-opacity="0.0" stroke-opacity="1.0" stroke-linejoin="miter"><path d="M 57.8752,200.0000 l 203.3333,-200.0000 "/></g></svg>