<?xml version="1.0" encoding="UTF-8"?>
<!DOCTYPE svg PUBLIC "-//W3C//DTD SVG 1.1//EN"
    "http://www.w3.org/Graphics/SVG/1.1/DTD/svg11.dtd"><svg stroke="rgb(0,0,0)" xmlns="http://www.w3.org/2000/svg" font-size="1" width="700.0000" stroke-opacity="1" xmlns:xlink="http://www.w3.org/1999/xlink" viewBox="0.0 0.0 700.0 200.0" height="200.0000" version="1.1"><defs></defs><g fill="rgb(144,238,144)" stroke="rgb(255,0,0)" stroke-linecap="butt" stroke-width="2.0" stroke-miterlimit="10.0" fill-opacity="1.0" stroke-opacity="1.0" stroke-linejoin="miter"><path d="M 700.0000,161.5456 h 0.0000 c 0.0000,-8.9449 -7.2513,-16.1962 -16.1962 -16.1962h -32.3924 c -8.9449,-0.0000 -16.1962,7.2513 -16.1962 16.1962h 0.0000 c -0.0000,8.9449 7.2513,16.1962 16.1962 16.1962h 32.3924 c 8.9449,0.0000 16.1962,-7.2513 16.1962 -16.1962Z"/></g><g fill="rgb(0,0,0)" stroke="rgb(255,0,0)" stroke-linecap="butt" stroke-width="2.0" font-size="16.196205460434985px" stroke-miterlimit="10.0" fill-opacity="1.0" stroke-opacity="1.0" stroke-linejoin="miter"><text dominant-baseline="middle" stroke="none" transform="matrix(1.0000,0.0000,0.0000,1.0000,667.6076,161.5456)" text-anchor="middle">+</text></g><g fill="rgb(144,238,144)" stroke="rgb(255,0,0)" stroke-linecap="butt" stroke-width="2.0" stroke-miterlimit="10.0" fill-opacity="1.0" stroke-opacity="1.0" stroke-linejoin="miter"><path d="M 602.8228,161.5456 h 0.0000 c 0.0000,-8.9449 -7.2513,-16.1962 -16.1962 -16.1962h -32.3924 c -8.9449,-0.0000 -16.1962,7.2513 -16.1962 16.1962h 0.0000 c -0.0000,8.9449 7.2513,16.1962 16.1962 16.1962h 32.3924 c 8.9449,0.0000 16.1962,-7.2513 16.1962 -16.1962Z"/></g><g fill="rgb(0,0,0)" stroke="rgb(255,0,0)" stroke-linecap="butt" stroke-width="2.0" font-size="16.196205460434985px" stroke-miterlimit="10.0" fill-opacity="1.0" stroke-opacity="1.0" stroke-linejoin="miter"><text dominant-baseline="middle" stroke="none" transform="matrix(1.0000,0.0000,0.0000,1.0000,570.4304,161.5456)" text-anchor="middle">0</text></g><g fill="rgb(255,255,0)" stroke="rgb(255,0,0)" stroke-linecap="butt" stroke-width="2.0" stroke-miterlimit="10.0" fill-opacity="1.0" stroke-opacity="1.0" stroke-linejoin="miter"><path d="M 505.6455,161.5456 h 0.0000 c 0.0000,-8.9449 -7.2513,-16.1962 -16.1962 -16.1962h -32.3924 c -8.9449,-0.0000 -16.1962,7.2513 -16.1962 16.1962h 0.0000 c -0.0000,8.9449 7.2513,16.1962 16.1962 16.1962h 32.3924 c 8.9449,0.0000 16.1962,-7.2513 16.1962 -16.1962Z"/></g><g fill="rgb(0,0,0)" stroke="rgb(255,0,0)" stroke-linecap="butt" stroke-width="2.0" font-size="16.196205460434985px" stroke-miterlimit="10.0" fill-opacity="1.0" stroke-opacity="1.0" stroke-linejoin="miter"><text dominant-baseline="middle" stroke="none" transform="matrix(1.0000,0.0000,0.0000,1.0000,473.2531,161.5456)" text-anchor="middle">0</text></g><g fill="rgb(255,165,0)" stroke="rgb(255,0,0)" stroke-linecap="butt" stroke-width="2.0" stroke-miterlimit="10.0" fill-opacity="1.0" stroke-opacity="1.0" stroke-linejoin="miter"><path d="M 700.0000,96.7608 h 0.0000 c 0.0000,-8.9449 -7.2513,-16.1962 -16.1962 -16.1962h -32.3924 c -8.9449,-0.0000 -16.1962,7.2513 -16.1962 16.1962h 0.0000 c -0.0000,8.9449 7.2513,16.1962 16.1962 16.1962h 32.3924 c 8.9449,0.0000 16.1962,-7.2513 16.1962 -16.1962Z"/></g><g fill="rgb(0,0,0)" stroke="rgb(255,0,0)" stroke-linecap="butt" stroke-width="2.0" font-size="16.196205460434985px" stroke-miterlimit="10.0" fill-opacity="1.0" stroke-opacity="1.0" stroke-linejoin="miter"><text dominant-baseline="middle" stroke="none" transform="matrix(1.0000,0.0000,0.0000,1.0000,667.6076,96.7608)" text-anchor="middle">0+</text></g><g fill="rgb(255,165,0)" stroke="rgb(255,0,0)" stroke-linecap="butt" stroke-width="2.0" stroke-miterlimit="10.0" fill-opacity="1.0" stroke-opacity="1.0" stroke-linejoin="miter"><path d="M 602.8228,96.7608 h 0.0000 c 0.0000,-8.9449 -7.2513,-16.1962 -16.1962 -16.1962h -32.3924 c -8.9449,-0.0000 -16.1962,7.2513 -16.1962 16.1962h 0.0000 c -0.0000,8.9449 7.2513,16.1962 16.1962 16.1962h 32.3924 c 8.9449,0.0000 16.1962,-7.2513 16.1962 -16.1962Z"/></g><g fill="rgb(0,0,0)" stroke="rgb(255,0,0)" stroke-linecap="butt" stroke-width="2.0" font-size="16.196205460434985px" stroke-miterlimit="10.0" fill-opacity="1.0" stroke-opacity="1.0" stroke-linejoin="miter"><text dominant-baseline="middle" stroke="none" transform="matrix(1.0000,0.0000,0.0000,1.0000,570.4304,96.7608)" text-anchor="middle"></text></g><g fill="rgb(0,0,255)" stroke="rgb(255,0,0)" stroke-linecap="butt" stroke-width="2.0" stroke-miterlimit="10.0" fill-opacity="1.0" stroke-opacity="1.0" stroke-linejoin="miter"><path d="M 505.6455,96.7608 h 0.0000 c 0.0000,-8.9449 -7.2513,-16.1962 -16.1962 -16.1962h -32.3924 c -8.9449,-0.0000 -16.1962,7.2513 -16.1962 16.1962h 0.0000 c -0.0000,8.9449 7.2513,16.1962 16.1962 16.1962h 32.3924 c 8.9449,0.0000 16.1962,-7.2513 16.1962 -16.1962Z"/></g><g fill="rgb(0,0,0)" stroke="rgb(255,0,0)" stroke-linecap="butt" stroke-width="2.0" font-size="16.196205460434985px" stroke-miterlimit="10.0" fill-opacity="1.0" stroke-opacity="1.0" stroke-linejoin="miter"><text dominant-baseline="middle" stroke="none" transform="matrix(1.0000,0.0000,0.0000,1.0000,473.2531,96.7608)" text-anchor="middle">0</text></g><g fill="rgb(173,216,230)" stroke="rgb(255,0,0)" stroke-linecap="butt" stroke-width="2.0" stroke-miterlimit="10.0" fill-opacity="1.0" stroke-opacity="1.0" stroke-linejoin="miter"><path d="M 602.8228,31.9759 h 0.0000 c 0.0000,-8.9449 -7.2513,-16.1962 -16.1962 -16.1962h -32.3924 c -8.9449,-0.0000 -16.1962,7.2513 -16.1962 16.1962h 0.0000 c -0.0000,8.9449 7.2513,16.1962 16.1962 16.1962h 32.3924 c 8.9449,0.0000 16.1962,-7.2513 16.1962 -16.1962Z"/></g><g fill="rgb(0,0,0)" stroke="rgb(255,0,0)" stroke-linecap="butt" stroke-width="2.0" font-size="16.196205460434985px" stroke-miterlimit="10.0" fill-opacity="1.0" stroke-opacity="1.0" stroke-linejoin="miter"><text dominant-baseline="middle" stroke="none" transform="matrix(1.0000,0.0000,0.0000,1.0000,570.4304,31.9759)" text-anchor="middle">-0+ *</text></g><g fill="rgb(0,0,0)" stroke="rgb(255,0,0)" stroke-linecap="butt" stroke-width="2.0" stroke-miterlimit="10.0" fill-opacity="0.0" stroke-opacity="1.0" stroke-linejoin="miter"><path d="M 667.6076,112.9570 l 0.0000,20.3742 "/></g><g fill="rgb(255,0,0)" stroke="rgb(255,0,0)" stroke-linecap="butt" stroke-width="0.0" stroke-miterlimit="10.0" fill-opacity="1.0" stroke-opacity="1.0" stroke-linejoin="miter"></g><g fill="rgb(255,0,0)" stroke="rgb(255,0,0)" stroke-linecap="butt" stroke-width="0.0" stroke-miterlimit="10.0" fill-opacity="1.0" stroke-opacity="1.0" stroke-linejoin="miter"></g><g fill="rgb(255,0,0)" stroke="rgb(255,0,0)" stroke-linecap="butt" stroke-width="0.0" stroke-miterlimit="10.0" fill-opacity="1.0" stroke-opacity="1.0" stroke-linejoin="miter"><path d="M 667.6076,145.3494 l 4.5034,-13.8601 l -4.5034,2.3676 l -4.5034,-2.3676 Z"/></g><g fill="rgb(255,0,0)" stroke="rgb(255,0,0)" stroke-linecap="butt" stroke-width="0.0" stroke-miterlimit="10.0" fill-opacity="1.0" stroke-opacity="1.0" stroke-linejoin="miter"><path d="M 667.6076,133.8569 l -0.0000,-0.5257 l 1.0000,-0.0000 l -1.0000,0.5257 l -0.0000,-0.5257 l -1.0000,0.0000 Z"/></g><g fill="rgb(0,0,0)" stroke="rgb(255,0,0)" stroke-linecap="butt" stroke-width="2.0" stroke-miterlimit="10.0" fill-opacity="0.0" stroke-opacity="1.0" stroke-linejoin="miter"><path d="M 645.1779,111.7139 l -42.3180,28.2120 "/></g><g fill="rgb(255,0,0)" stroke="rgb(255,0,0)" stroke-linecap="butt" stroke-width="0.0" stroke-miterlimit="10.0" fill-opacity="1.0" stroke-opacity="1.0" stroke-linejoin="miter"></g><g fill="rgb(255,0,0)" stroke="rgb(255,0,0)" stroke-linecap="butt" stroke-width="0.0" stroke-miterlimit="10.0" fill-opacity="1.0" stroke-opacity="1.0" stroke-linejoin="miter"></g><g fill="rgb(255,0,0)" stroke="rgb(255,0,0)" stroke-linecap="butt" stroke-width="0.0" stroke-miterlimit="10.0" fill-opacity="1.0" stroke-opacity="1.0" stroke-linejoin="miter"><path d="M 592.8601,146.5924 l 14.0303,-3.9411 l -4.4680,-2.4338 l -0.5281,-5.0604 Z"/></g><g fill="rgb(255,0,0)" stroke="rgb(255,0,0)" stroke-linecap="butt" stroke-width="0.0" stroke-miterlimit="10.0" fill-opacity="1.0" stroke-opacity="1.0" stroke-linejoin="miter"><path d="M 602.4224,140.2175 l 0.4374,-0.2916 l 0.5547,0.8321 l -0.9921,-0.5404 l 0.4374,-0.2916 l -0.5547,-0.8321 Z"/></g><g fill="rgb(0,0,0)" stroke="rgb(255,0,0)" stroke-linecap="butt" stroke-width="2.0" stroke-miterlimit="10.0" fill-opacity="0.0" stroke-opacity="1.0" stroke-linejoin="miter"><path d="M 592.8601,111.7139 l 42.3180,28.2120 "/></g><g fill="rgb(255,0,0)" stroke="rgb(255,0,0)" stroke-linecap="butt" stroke-width="0.0" stroke-miterlimit="10.0" fill-opacity="1.0" stroke-opacity="1.0" stroke-linejoin="miter"></g><g fill="rgb(255,0,0)" stroke="rgb(255,0,0)" stroke-linecap="butt" stroke-width="0.0" stroke-miterlimit="10.0" fill-opacity="1.0" stroke-opacity="1.0" stroke-linejoin="miter"></g><g fill="rgb(255,0,0)" stroke="rgb(255,0,0)" stroke-linecap="butt" stroke-width="0.0" stroke-miterlimit="10.0" fill-opacity="1.0" stroke-opacity="1.0" stroke-linejoin="miter"><path d="M 645.1779,146.5924 l -9.0342,-11.4353 l -0.5281,5.0604 l -4.4680,2.4338 Z"/></g><g fill="rgb(255,0,0)" stroke="rgb(255,0,0)" stroke-linecap="butt" stroke-width="0.0" stroke-miterlimit="10.0" fill-opacity="1.0" stroke-opacity="1.0" stroke-linejoin="miter"><path d="M 635.6155,140.2175 l -0.4374,-0.2916 l 0.5547,-0.8321 l -0.1173,1.1237 l -0.4374,-0.2916 l -0.5547,0.8321 Z"/></g><g fill="rgb(0,0,0)" stroke="rgb(255,0,0)" stroke-linecap="butt" stroke-width="2.0" stroke-miterlimit="10.0" fill-opacity="0.0" stroke-opacity="1.0" stroke-linejoin="miter"><path d="M 548.0006,111.7139 l -42.3180,28.2120 "/></g><g fill="rgb(255,0,0)" stroke="rgb(255,0,0)" stroke-linecap="butt" stroke-width="0.0" stroke-miterlimit="10.0" fill-opacity="1.0" stroke-opacity="1.0" stroke-linejoin="miter"></g><g fill="rgb(255,0,0)" stroke="rgb(255,0,0)" stroke-linecap="butt" stroke-width="0.0" stroke-miterlimit="10.0" fill-opacity="1.0" stroke-opacity="1.0" stroke-linejoin="miter"></g><g fill="rgb(255,0,0)" stroke="rgb(255,0,0)" stroke-linecap="butt" stroke-width="0.0" stroke-miterlimit="10.0" fill-opacity="1.0" stroke-opacity="1.0" stroke-linejoin="miter"><path d="M 495.6829,146.5924 l 14.0303,-3.9411 l -4.4680,-2.4338 l -0.5281,-5.0604 Z"/></g><g fill="rgb(255,0,0)" stroke="rgb(255,0,0)" stroke-linecap="butt" stroke-width="0.0" stroke-miterlimit="10.0" fill-opacity="1.0" stroke-opacity="1.0" stroke-linejoin="miter"><path d="M 505.2452,140.2175 l 0.4374,-0.2916 l 0.5547,0.8321 l -0.9921,-0.5404 l 0.4374,-0.2916 l -0.5547,-0.8321 Z"/></g><g fill="rgb(0,0,0)" stroke="rgb(255,0,0)" stroke-linecap="butt" stroke-width="2.0" stroke-miterlimit="10.0" fill-opacity="0.0" stroke-opacity="1.0" stroke-linejoin="miter"><path d="M 592.8601,46.9291 l 42.3180,28.2120 "/></g><g fill="rgb(255,0,0)" stroke="rgb(255,0,0)" stroke-linecap="butt" stroke-width="0.0" stroke-miterlimit="10.0" fill-opacity="1.0" stroke-opacity="1.0" stroke-linejoin="miter"></g><g fill="rgb(255,0,0)" stroke="rgb(255,0,0)" stroke-linecap="butt" stroke-width="0.0" stroke-miterlimit="10.0" fill-opacity="1.0" stroke-opacity="1.0" stroke-linejoin="miter"></g><g fill="rgb(255,0,0)" stroke="rgb(255,0,0)" stroke-linecap="butt" stroke-width="0.0" stroke-miterlimit="10.0" fill-opacity="1.0" stroke-opacity="1.0" stroke-linejoin="miter"><path d="M 645.1779,81.8076 l -9.0342,-11.4353 l -0.5281,5.0604 l -4.4680,2.4338 Z"/></g><g fill="rgb(255,0,0)" stroke="rgb(255,0,0)" stroke-linecap="butt" stroke-width="0.0" stroke-miterlimit="10.0" fill-opacity="1.0" stroke-opacity="1.0" stroke-linejoin="miter"><path d="M 635.6155,75.4327 l -0.4374,-0.2916 l 0.5547,-0.8321 l -0.1173,1.1237 l -0.4374,-0.2916 l -0.5547,0.8321 Z"/></g><g fill="rgb(0,0,0)" stroke="rgb(255,0,0)" stroke-linecap="butt" stroke-width="2.0" stroke-miterlimit="10.0" fill-opacity="0.0" stroke-opacity="1.0" stroke-linejoin="miter"><path d="M 570.4304,48.1721 l 0.0000,20.3742 "/></g><g fill="rgb(255,0,0)" stroke="rgb(255,0,0)" stroke-linecap="butt" stroke-width="0.0" stroke-miterlimit="10.0" fill-opacity="1.0" stroke-opacity="1.0" stroke-linejoin="miter"></g><g fill="rgb(255,0,0)" stroke="rgb(255,0,0)" stroke-linecap="butt" stroke-width="0.0" stroke-miterlimit="10.0" fill-opacity="1.0" stroke-opacity="1.0" stroke-linejoin="miter"></g><g fill="rgb(255,0,0)" stroke="rgb(255,0,0)" stroke-linecap="butt" stroke-width="0.0" stroke-miterlimit="10.0" fill-opacity="1.0" stroke-opacity="1.0" stroke-linejoin="miter"><path d="M 570.4304,80.5646 l 4.5034,-13.8601 l -4.5034,2.3676 l -4.5034,-2.3676 Z"/></g><g fill="rgb(255,0,0)" stroke="rgb(255,0,0)" stroke-linecap="butt" stroke-width="0.0" stroke-miterlimit="10.0" fill-opacity="1.0" stroke-opacity="1.0" stroke-linejoin="miter"><path d="M 570.4304,69.0721 l -0.0000,-0.5257 l 1.0000,-0.0000 l -1.0000,0.5257 l -0.0000,-0.5257 l -1.0000,0.0000 Z"/></g><g fill="rgb(0,0,0)" stroke="rgb(255,255,0)" stroke-linecap="butt" stroke-width="3.0" stroke-miterlimit="10.0" fill-opacity="0.0" stroke-opacity="1.0" stroke-linejoin="miter"><path d="M 548.0006,111.7139 l -42.3180,28.2120 "/></g><g fill="rgb(255,255,0)" stroke="rgb(255,255,0)" stroke-linecap="butt" stroke-width="0.0" stroke-miterlimit="10.0" fill-opacity="1.0" stroke-opacity="1.0" stroke-linejoin="miter"></g><g fill="rgb(255,255,0)" stroke="rgb(255,255,0)" stroke-linecap="butt" stroke-width="0.0" stroke-miterlimit="10.0" fill-opacity="1.0" stroke-opacity="1.0" stroke-linejoin="miter"></g><g fill="rgb(255,255,0)" stroke="rgb(255,255,0)" stroke-linecap="butt" stroke-width="0.0" stroke-miterlimit="10.0" fill-opacity="1.0" stroke-opacity="1.0" stroke-linejoin="miter"><path d="M 495.6829,146.5924 l 13.7094,-3.8510 l -4.3658,-2.3781 l -0.5160,-4.9446 Z"/></g><g fill="rgb(255,255,0)" stroke="rgb(255,255,0)" stroke-linecap="butt" stroke-width="0.0" stroke-miterlimit="10.0" fill-opacity="1.0" stroke-opacity="1.0" stroke-linejoin="miter"><path d="M 505.0265,140.3633 l 0.6562,-0.4374 l 0.8321,1.2481 l -1.4882,-0.8106 l 0.6562,-0.4374 l -0.8321,-1.2481 Z"/></g><g fill="rgb(0,0,0)" stroke="rgb(0,0,255)" stroke-linecap="butt" stroke-width="4.0" stroke-miterlimit="10.0" fill-opacity="0.0" stroke-opacity="1.0" stroke-linejoin="miter"><path d="M 495.6829,111.7139 l 42.3180,28.2120 "/></g><g fill="rgb(0,0,255)" stroke="rgb(0,0,255)" stroke-linecap="butt" stroke-width="0.0" stroke-miterlimit="10.0" fill-opacity="1.0" stroke-opacity="1.0" stroke-linejoin="miter"></g><g fill="rgb(0,0,255)" stroke="rgb(0,0,255)" stroke-linecap="butt" stroke-width="0.0" stroke-miterlimit="10.0" fill-opacity="1.0" stroke-opacity="1.0" stroke-linejoin="miter"></g><g fill="rgb(0,0,255)" stroke="rgb(0,0,255)" stroke-linecap="butt" stroke-width="0.0" stroke-miterlimit="10.0" fill-opacity="1.0" stroke-opacity="1.0" stroke-linejoin="miter"><path d="M 548.0006,146.5924 l -8.6210,-10.9121 l -0.5039,4.8289 l -4.2636,2.3224 Z"/></g><g fill="rgb(0,0,255)" stroke="rgb(0,0,255)" stroke-linecap="butt" stroke-width="0.0" stroke-miterlimit="10.0" fill-opacity="1.0" stroke-opacity="1.0" stroke-linejoin="miter"><path d="M 538.8757,140.5092 l -0.8749,-0.5832 l 1.1094,-1.6641 l -0.2345,2.2473 l -0.8749,-0.5832 l -1.1094,1.6641 Z"/></g><g fill="rgb(0,0,0)" stroke="rgb(0,0,255)" stroke-linecap="butt" stroke-width="4.0" stroke-miterlimit="10.0" fill-opacity="0.0" stroke-opacity="1.0" stroke-linejoin="miter"><path d="M 473.2531,112.9570 l 0.0000,20.3742 "/></g><g fill="rgb(0,0,255)" stroke="rgb(0,0,255)" stroke-linecap="butt" stroke-width="0.0" stroke-miterlimit="10.0" fill-opacity="1.0" stroke-opacity="1.0" stroke-linejoin="miter"></g><g fill="rgb(0,0,255)" stroke="rgb(0,0,255)" stroke-linecap="butt" stroke-width="0.0" stroke-miterlimit="10.0" fill-opacity="1.0" stroke-opacity="1.0" stroke-linejoin="miter"></g><g fill="rgb(0,0,255)" stroke="rgb(0,0,255)" stroke-linecap="butt" stroke-width="0.0" stroke-miterlimit="10.0" fill-opacity="1.0" stroke-opacity="1.0" stroke-linejoin="miter"><path d="M 473.2531,145.3494 l 4.2974,-13.2260 l -4.2974,2.2593 l -4.2974,-2.2593 Z"/></g><g fill="rgb(0,0,255)" stroke="rgb(0,0,255)" stroke-linecap="butt" stroke-width="0.0" stroke-miterlimit="10.0" fill-opacity="1.0" stroke-opacity="1.0" stroke-linejoin="miter"><path d="M 473.2531,134.3826 l -0.0000,-1.0515 l 2.0000,-0.0000 l -2.0000,1.0515 l -0.0000,-1.0515 l -2.0000,0.0000 Z"/></g><g fill="rgb(0,0,0)" stroke="rgb(0,0,255)" stroke-linecap="butt" stroke-width="4.0" stroke-miterlimit="10.0" fill-opacity="0.0" stroke-opacity="1.0" stroke-linejoin="miter"><path d="M 548.0006,46.9291 l -42.3180,28.2120 "/></g><g fill="rgb(0,0,255)" stroke="rgb(0,0,255)" stroke-linecap="butt" stroke-width="0.0" stroke-miterlimit="10.0" fill-opacity="1.0" stroke-opacity="1.0" stroke-linejoin="miter"></g><g fill="rgb(0,0,255)" stroke="rgb(0,0,255)" stroke-linecap="butt" stroke-width="0.0" stroke-miterlimit="10.0" fill-opacity="1.0" stroke-opacity="1.0" stroke-linejoin="miter"></g><g fill="rgb(0,0,255)" stroke="rgb(0,0,255)" stroke-linecap="butt" stroke-width="0.0" stroke-miterlimit="10.0" fill-opacity="1.0" stroke-opacity="1.0" stroke-linejoin="miter"><path d="M 495.6829,81.8076 l 13.3885,-3.7608 l -4.2636,-2.3224 l -0.5039,-4.8289 Z"/></g><g fill="rgb(0,0,255)" stroke="rgb(0,0,255)" stroke-linecap="butt" stroke-width="0.0" stroke-miterlimit="10.0" fill-opacity="1.0" stroke-opacity="1.0" stroke-linejoin="miter"><path d="M 504.8078,75.7243 l 0.8749,-0.5832 l 1.1094,1.6641 l -1.9843,-1.0809 l 0.8749,-0.5832 l -1.1094,-1.6641 Z"/></g><g fill="rgb(0,0,0)" stroke="rgb(0,0,0)" stroke-linecap="butt" stroke-width="1.3735115623945315" stroke-miterlimit="10.0" fill-opacity="0.0" stroke-opacity="1.0" stroke-linejoin="miter" opacity="0.0"><path d="M 324.2480,164.7848 l -64.7848,-129.5696 l -259.1393,129.5696 Z"/></g><g fill="rgb(173,216,230)" stroke="rgb(173,216,230)" stroke-linecap="butt" stroke-width="0.6867557811972658" stroke-miterlimit="10.0" fill-opacity="1.0" stroke-opacity="1.0" stroke-linejoin="miter"><path d="M 324.2480,164.7848 l -64.7848,-129.5696 l -129.5696,129.5696 Z"/></g><g fill="rgb(0,0,0)" stroke="rgb(255,165,0)" stroke-linecap="butt" stroke-width="2.5753341794897464" stroke-miterlimit="10.0" fill-opacity="0.0" stroke-opacity="1.0" stroke-linejoin="miter"><path d="M 324.2480,164.7848 l -64.7848,-129.5696 "/></g><g fill="rgb(0,0,0)" stroke="rgb(255,165,0)" stroke-linecap="butt" stroke-width="2.5753341794897464" stroke-miterlimit="10.0" fill-opacity="0.0" stroke-opacity="1.0" stroke-linejoin="miter"><path d="M 324.2480,164.7848 h -194.3545 "/></g><g fill="rgb(255,255,255)" stroke="rgb(255,165,0)" stroke-linecap="butt" stroke-width="1.3735115623945315" stroke-miterlimit="10.0" fill-opacity="1.0" stroke-opacity="1.0" stroke-linejoin="miter"><path d="M 201.3188,93.6835 l -0.0000,-0.3239 h -0.3239 l -0.0000,0.3239 Z"/></g><g fill="rgb(255,165,0)" stroke="rgb(0,0,0)" stroke-linecap="butt" stroke-width="1.3735115623945315" font-size="0.3239241092086997px" stroke-miterlimit="10.0" fill-opacity="1.0" stroke-opacity="1.0" stroke-linejoin="miter"><text dominant-baseline="middle" stroke="none" transform="matrix(1.0000,0.0000,0.0000,1.0000,201.1569,93.5215)" text-anchor="middle"></text></g><g fill="rgb(255,255,255)" stroke="rgb(255,165,0)" stroke-linecap="butt" stroke-width="1.3735115623945315" stroke-miterlimit="10.0" fill-opacity="1.0" stroke-opacity="1.0" stroke-linejoin="miter"><path d="M 236.9505,164.9468 l -0.0000,-0.3239 h -0.3239 l -0.0000,0.3239 Z"/></g><g fill="rgb(255,165,0)" stroke="rgb(0,0,0)" stroke-linecap="butt" stroke-width="1.3735115623945315" font-size="0.3239241092086997px" stroke-miterlimit="10.0" fill-opacity="1.0" stroke-opacity="1.0" stroke-linejoin="miter"><text dominant-baseline="middle" stroke="none" transform="matrix(1.0000,0.0000,0.0000,1.0000,236.7885,164.7848)" text-anchor="middle"></text></g><g fill="rgb(255,255,255)" stroke="rgb(255,165,0)" stroke-linecap="butt" stroke-width="1.3735115623945315" stroke-miterlimit="10.0" fill-opacity="1.0" stroke-opacity="1.0" stroke-linejoin="miter"><path d="M 317.7696,117.8158 l -0.0000,-22.6747 h -45.3494 l -0.0000,22.6747 Z"/></g><g fill="rgb(255,165,0)" stroke="rgb(0,0,0)" stroke-linecap="butt" stroke-width="1.3735115623945315" font-size="19.43544655252198px" stroke-miterlimit="10.0" fill-opacity="1.0" stroke-opacity="1.0" stroke-linejoin="miter"><text dominant-baseline="middle" stroke="none" transform="matrix(1.0000,0.0000,0.0000,1.0000,295.0949,106.4785)" text-anchor="middle">0+</text></g><g fill="rgb(0,0,0)" stroke="rgb(0,0,0)" stroke-linecap="butt" stroke-width="1.3735115623945315" font-size="19.43544655252198px" stroke-miterlimit="10.0" fill-opacity="1.0" stroke-opacity="1.0" stroke-linejoin="miter"><text dominant-baseline="middle" stroke="none" transform="matrix(1.0000,0.0000,0.0000,1.0000,233.5493,100.0000)" text-anchor="middle">-0+ *</text></g><g fill="rgb(0,0,0)" stroke="rgb(0,0,255)" stroke-linecap="butt" stroke-width="2.5753341794897464" stroke-miterlimit="10.0" fill-opacity="0.0" stroke-opacity="1.0" stroke-linejoin="miter"><path d="M 259.4632,35.2152 l -129.5696,129.5696 "/></g><g fill="rgb(255,255,0)" stroke="rgb(0,0,0)" stroke-linecap="butt" stroke-width="1.3735115623945315" stroke-miterlimit="10.0" fill-opacity="1.0" stroke-opacity="1.0" stroke-linejoin="miter"><path d="M 149.3290,164.7848 c 0.0000,-10.7339 -8.7015,-19.4354 -19.4354 -19.4354c -10.7339,-0.0000 -19.4354,8.7015 -19.4354 19.4354c -0.0000,10.7339 8.7015,19.4354 19.4354 19.4354c 10.7339,0.0000 19.4354,-8.7015 19.4354 -19.4354Z"/></g><g fill="rgb(0,0,0)" stroke="rgb(0,0,0)" stroke-linecap="butt" stroke-width="1.3735115623945315" font-size="19.43544655252198px" stroke-miterlimit="10.0" fill-opacity="1.0" stroke-opacity="1.0" stroke-linejoin="miter"><text dominant-baseline="middle" stroke="none" transform="matrix(1.0000,0.0000,0.0000,1.0000,129.8936,164.7848)" text-anchor="middle">0</text></g><g fill="rgb(144,238,144)" stroke="rgb(0,0,0)" stroke-linecap="butt" stroke-width="1.3735115623945315" stroke-miterlimit="10.0" fill-opacity="1.0" stroke-opacity="1.0" stroke-linejoin="miter"><path d="M 0.6478,164.7848 c 0.0000,-0.1789 -0.1450,-0.3239 -0.3239 -0.3239c -0.1789,-0.0000 -0.3239,0.1450 -0.3239 0.3239c -0.0000,0.1789 0.1450,0.3239 0.3239 0.3239c 0.1789,0.0000 0.3239,-0.1450 0.3239 -0.3239Z"/></g><g fill="rgb(0,0,0)" stroke="rgb(0,0,0)" stroke-linecap="butt" stroke-width="1.3735115623945315" font-size="0.3239241092086997px" stroke-miterlimit="10.0" fill-opacity="1.0" stroke-opacity="1.0" stroke-linejoin="miter"><text dominant-baseline="middle" stroke="none" transform="matrix(1.0000,0.0000,0.0000,1.0000,0.3239,164.7848)" text-anchor="middle">-</text></g><g fill="rgb(144,238,144)" stroke="rgb(0,0,0)" stroke-linecap="butt" stroke-width="1.3735115623945315" stroke-miterlimit="10.0" fill-opacity="1.0" stroke-opacity="1.0" stroke-linejoin="miter"><path d="M 278.8987,35.2152 c 0.0000,-10.7339 -8.7015,-19.4354 -19.4354 -19.4354c -10.7339,-0.0000 -19.4354,8.7015 -19.4354 19.4354c -0.0000,10.7339 8.7015,19.4354 19.4354 19.4354c 10.7339,0.0000 19.4354,-8.7015 19.4354 -19.4354Z"/></g><g fill="rgb(0,0,0)" stroke="rgb(0,0,0)" stroke-linecap="butt" stroke-width="1.3735115623945315" font-size="19.43544655252198px" stroke-miterlimit="10.0" fill-opacity="1.0" stroke-opacity="1.0" stroke-linejoin="miter"><text dominant-baseline="middle" stroke="none" transform="matrix(1.0000,0.0000,0.0000,1.0000,259.4632,35.2152)" text-anchor="middle">0</text></g><g fill="rgb(144,238,144)" stroke="rgb(0,0,0)" stroke-linecap="butt" stroke-width="1.3735115623945315" stroke-miterlimit="10.0" fill-opacity="1.0" stroke-opacity="1.0" stroke-linejoin="miter"><path d="M 343.6835,164.7848 c 0.0000,-10.7339 -8.7015,-19.4354 -19.4354 -19.4354c -10.7339,-0.0000 -19.4354,8.7015 -19.4354 19.4354c -0.0000,10.7339 8.7015,19.4354 19.4354 19.4354c 10.7339,0.0000 19.4354,-8.7015 19.4354 -19.4354Z"/></g><g fill="rgb(0,0,0)" stroke="rgb(0,0,0)" stroke-linecap="butt" stroke-width="1.3735115623945315" font-size="19.43544655252198px" stroke-miterlimit="10.0" fill-opacity="1.0" stroke-opacity="1.0" stroke-linejoin="miter"><text dominant-baseline="middle" stroke="none" transform="matrix(1.0000,0.0000,0.0000,1.0000,324.2480,164.7848)" text-anchor="middle">+</text></g></svg>