<?xml version="1.0" encoding="UTF-8"?>
<!DOCTYPE svg PUBLIC "-//W3C//DTD SVG 1.1//EN"
    "http://www.w3.org/Graphics/SVG/1.1/DTD/svg11.dtd"><svg stroke="rgb(0,0,0)" xmlns="http://www.w3.org/2000/svg" font-size="1" width="300.0000" stroke-opacity="1" xmlns:xlink="http://www.w3.org/1999/xlink" viewBox="0.0 0.0 300.0 200.0" height="200.0000" version="1.1"><defs></defs><g fill="rgb(173,216,230)" stroke="rgb(255,165,0)" stroke-linecap="butt" stroke-width="3.0" stroke-miterlimit="10.0" fill-opacity="1.0" stroke-opacity="1.0" stroke-linejoin="miter"><path d="M 281.7153,132.4036 l -73.5468,-97.2107 l -189.8839,97.2107 Z"/></g><g fill="rgb(144,238,144)" stroke="rgb(0,0,0)" stroke-linecap="butt" stroke-width="0.9368368650572497" stroke-miterlimit="10.0" fill-opacity="1.0" stroke-opacity="1.0" stroke-linejoin="miter"><path d="M 36.5693,132.4036 c 0.0000,-10.0983 -8.1863,-18.2847 -18.2847 -18.2847c -10.0983,-0.0000 -18.2847,8.1863 -18.2847 18.2847c -0.0000,10.0983 8.1863,18.2847 18.2847 18.2847c 10.0983,0.0000 18.2847,-8.1863 18.2847 -18.2847Z"/></g><g fill="rgb(0,0,0)" stroke="rgb(0,0,0)" stroke-linecap="butt" stroke-width="0.9368368650572497" font-size="18.284652327714493px" stroke-miterlimit="10.0" fill-opacity="1.0" stroke-opacity="1.0" stroke-linejoin="miter"><text dominant-baseline="middle" stroke="none" transform="matrix(1.0000,0.0000,0.0000,1.0000,18.2847,132.4036)" text-anchor="middle">-</text></g><g fill="rgb(144,238,144)" stroke="rgb(0,0,0)" stroke-linecap="butt" stroke-width="0.9368368650572497" stroke-miterlimit="10.0" fill-opacity="1.0" stroke-opacity="1.0" stroke-linejoin="miter"><path d="M 226.4532,35.1929 c 0.0000,-10.0983 -8.1863,-18.2847 -18.2847 -18.2847c -10.0983,-0.0000 -18.2847,8.1863 -18.2847 18.2847c -0.0000,10.0983 8.1863,18.2847 18.2847 18.2847c 10.0983,0.0000 18.2847,-8.1863 18.2847 -18.2847Z"/></g><g fill="rgb(0,0,0)" stroke="rgb(0,0,0)" stroke-linecap="butt" stroke-width="0.9368368650572497" font-size="18.284652327714493px" stroke-miterlimit="10.0" fill-opacity="1.0" stroke-opacity="1.0" stroke-linejoin="miter"><text dominant-baseline="middle" stroke="none" transform="matrix(1.0000,0.0000,0.0000,1.0000,208.1686,35.1929)" text-anchor="middle">0</text></g><g fill="rgb(144,238,144)" stroke="rgb(0,0,0)" stroke-linecap="butt" stroke-width="0.9368368650572497" stroke-miterlimit="10.0" fill-opacity="1.0" stroke-opacity="1.0" stroke-linejoin="miter"><path d="M 300.0000,132.4036 c 0.0000,-10.0983 -8.1863,-18.2847 -18.2847 -18.2847c -10.0983,-0.0000 -18.2847,8.1863 -18.2847 18.2847c -0.0000,10.0983 8.1863,18.2847 18.2847 18.2847c 10.0983,0.0000 18.2847,-8.1863 18.2847 -18.2847Z"/></g><g fill="rgb(0,0,0)" stroke="rgb(0,0,0)" stroke-linecap="butt" stroke-width="0.9368368650572497" font-size="18.284652327714493px" stroke-miterlimit="10.0" fill-opacity="1.0" stroke-opacity="1.0" stroke-linejoin="miter"><text dominant-baseline="middle" stroke="none" transform="matrix(1.0000,0.0000,0.0000,1.0000,281.7153,132.4036)" text-anchor="middle">+</text></g><g fill="rgb(255,255,255)" stroke="rgb(255,165,0)" stroke-linecap="butt" stroke-width="0.9368368650572497" stroke-miterlimit="10.0" fill-opacity="1.0" stroke-opacity="1.0" stroke-linejoin="miter"><path d="M 134.5587,94.4643 l -0.0000,-21.3321 h -42.6642 l -0.0000,21.3321 Z"/></g><g fill="rgb(255,165,0)" stroke="rgb(0,0,0)" stroke-linecap="butt" stroke-width="0.9368368650572497" font-size="18.284652327714493px" stroke-miterlimit="10.0" fill-opacity="1.0" stroke-opacity="1.0" stroke-linejoin="miter"><text dominant-baseline="middle" stroke="none" transform="matrix(1.0000,0.0000,0.0000,1.0000,113.2266,83.7982)" text-anchor="middle">-0</text></g><g fill="rgb(255,255,255)" stroke="rgb(255,165,0)" stroke-linecap="butt" stroke-width="0.9368368650572497" stroke-miterlimit="10.0" fill-opacity="1.0" stroke-opacity="1.0" stroke-linejoin="miter"><path d="M 171.3321,143.0696 l -0.0000,-21.3321 h -42.6642 l -0.0000,21.3321 Z"/></g><g fill="rgb(255,165,0)" stroke="rgb(0,0,0)" stroke-linecap="butt" stroke-width="0.9368368650572497" font-size="18.284652327714493px" stroke-miterlimit="10.0" fill-opacity="1.0" stroke-opacity="1.0" stroke-linejoin="miter"><text dominant-baseline="middle" stroke="none" transform="matrix(1.0000,0.0000,0.0000,1.0000,150.0000,132.4036)" text-anchor="middle">-+</text></g><g fill="rgb(255,255,255)" stroke="rgb(255,165,0)" stroke-linecap="butt" stroke-width="0.9368368650572497" stroke-miterlimit="10.0" fill-opacity="1.0" stroke-opacity="1.0" stroke-linejoin="miter"><path d="M 266.2741,94.4643 l -0.0000,-21.3321 h -42.6642 l -0.0000,21.3321 Z"/></g><g fill="rgb(255,165,0)" stroke="rgb(0,0,0)" stroke-linecap="butt" stroke-width="0.9368368650572497" font-size="18.284652327714493px" stroke-miterlimit="10.0" fill-opacity="1.0" stroke-opacity="1.0" stroke-linejoin="miter"><text dominant-baseline="middle" stroke="none" transform="matrix(1.0000,0.0000,0.0000,1.0000,244.9420,83.7982)" text-anchor="middle">0+</text></g><g fill="rgb(0,0,0)" stroke="rgb(0,0,0)" stroke-linecap="butt" stroke-width="0.9368368650572497" font-size="18.284652327714493px" stroke-miterlimit="10.0" fill-opacity="1.0" stroke-opacity="1.0" stroke-linejoin="miter"><text dominant-baseline="middle" stroke="none" transform="matrix(1.0000,0.0000,0.0000,1.0000,169.3895,100.0000)" text-anchor="middle">-0+</text></g><g fill="rgb(0,0,0)" stroke="rgb(0,0,0)" stroke-linecap="butt" stroke-width="0.9368368650572497" stroke-miterlimit="10.0" fill-opacity="0.0" stroke-opacity="1.0" stroke-linejoin="miter"><path d="M 138.9151,103.0474 l 6.3934,6.3934 "/></g><g fill="rgb(0,0,0)" stroke="rgb(0,0,0)" stroke-linecap="butt" stroke-width="0.0" stroke-miterlimit="10.0" fill-opacity="1.0" stroke-opacity="1.0" stroke-linejoin="miter"></g><g fill="rgb(0,0,0)" stroke="rgb(0,0,0)" stroke-linecap="butt" stroke-width="0.0" stroke-miterlimit="10.0" fill-opacity="1.0" stroke-opacity="1.0" stroke-linejoin="miter"></g><g fill="rgb(0,0,0)" stroke="rgb(0,0,0)" stroke-linecap="butt" stroke-width="0.0" stroke-miterlimit="10.0" fill-opacity="1.0" stroke-opacity="1.0" stroke-linejoin="miter"><path d="M 151.1049,115.2372 l -4.5774,-8.9836 l -1.0449,3.3614 l -3.3614,1.0449 Z"/></g><g fill="rgb(0,0,0)" stroke="rgb(0,0,0)" stroke-linecap="butt" stroke-width="0.0" stroke-miterlimit="10.0" fill-opacity="1.0" stroke-opacity="1.0" stroke-linejoin="miter"><path d="M 145.4826,109.6150 l -0.1741,-0.1741 l 0.3312,-0.3312 l -0.1571,0.5054 l -0.1741,-0.1741 l -0.3312,0.3312 Z"/></g><g fill="rgb(0,0,0)" stroke="rgb(255,0,0)" stroke-linecap="butt" stroke-width="1.7565691219823432" stroke-miterlimit="10.0" fill-opacity="0.0" stroke-opacity="1.0" stroke-linejoin="miter"><path d="M 50.5393,191.4233 l 185.8940,-182.8465 "/></g></svg>