<?xml version="1.0" encoding="UTF-8"?>
<!DOCTYPE svg PUBLIC "-//W3C//DTD SVG 1.1//EN"
    "http://www.w3.org/Graphics/SVG/1.1/DTD/svg11.dtd"><svg stroke="rgb(0,0,0)" xmlns="http://www.w3.org/2000/svg" font-size="1" width="300.0000" stroke-opacity="1" xmlns:xlink="http://www.w3.org/1999/xlink" viewBox="0.0 0.0 300.0 200.0" height="200.0000" version="1.1"><defs></defs><g fill="rgb(173,216,230)" stroke="rgb(255,165,0)" stroke-linecap="butt" stroke-width="3.0" stroke-miterlimit="10.0" fill-opacity="1.0" stroke-opacity="1.0" stroke-linejoin="miter"><path d="M 299.7006,159.8802 l -59.8802,-119.7605 l -239.5210,119.7605 Z"/></g><g fill="rgb(144,238,144)" stroke="rgb(0,0,0)" stroke-linecap="butt" stroke-width="0.9285878790409643" stroke-miterlimit="10.0" fill-opacity="1.0" stroke-opacity="1.0" stroke-linejoin="miter"><path d="M 0.5988,159.8802 c 0.0000,-0.1654 -0.1340,-0.2994 -0.2994 -0.2994c -0.1654,-0.0000 -0.2994,0.1340 -0.2994 0.2994c -0.0000,0.1654 0.1340,0.2994 0.2994 0.2994c 0.1654,0.0000 0.2994,-0.1340 0.2994 -0.2994Z"/></g><g fill="rgb(0,0,0)" stroke="rgb(0,0,0)" stroke-linecap="butt" stroke-width="0.9285878790409643" font-size="0.29940119760479045px" stroke-miterlimit="10.0" fill-opacity="1.0" stroke-opacity="1.0" stroke-linejoin="miter"><text dominant-baseline="middle" stroke="none" transform="matrix(1.0000,0.0000,0.0000,1.0000,0.2994,159.8802)" text-anchor="middle"></text></g><g fill="rgb(144,238,144)" stroke="rgb(0,0,0)" stroke-linecap="butt" stroke-width="0.9285878790409643" stroke-miterlimit="10.0" fill-opacity="1.0" stroke-opacity="1.0" stroke-linejoin="miter"><path d="M 240.1198,40.1198 c 0.0000,-0.1654 -0.1340,-0.2994 -0.2994 -0.2994c -0.1654,-0.0000 -0.2994,0.1340 -0.2994 0.2994c -0.0000,0.1654 0.1340,0.2994 0.2994 0.2994c 0.1654,0.0000 0.2994,-0.1340 0.2994 -0.2994Z"/></g><g fill="rgb(0,0,0)" stroke="rgb(0,0,0)" stroke-linecap="butt" stroke-width="0.9285878790409643" font-size="0.29940119760479045px" stroke-miterlimit="10.0" fill-opacity="1.0" stroke-opacity="1.0" stroke-linejoin="miter"><text dominant-baseline="middle" stroke="none" transform="matrix(1.0000,0.0000,0.0000,1.0000,239.8204,40.1198)" text-anchor="middle"></text></g><g fill="rgb(144,238,144)" stroke="rgb(0,0,0)" stroke-linecap="butt" stroke-width="0.9285878790409643" stroke-miterlimit="10.0" fill-opacity="1.0" stroke-opacity="1.0" stroke-linejoin="miter"><path d="M 300.0000,159.8802 c 0.0000,-0.1654 -0.1340,-0.2994 -0.2994 -0.2994c -0.1654,-0.0000 -0.2994,0.1340 -0.2994 0.2994c -0.0000,0.1654 0.1340,0.2994 0.2994 0.2994c 0.1654,0.0000 0.2994,-0.1340 0.2994 -0.2994Z"/></g><g fill="rgb(0,0,0)" stroke="rgb(0,0,0)" stroke-linecap="butt" stroke-width="0.9285878790409643" font-size="0.29940119760479045px" stroke-miterlimit="10.0" fill-opacity="1.0" stroke-opacity="1.0" stroke-linejoin="miter"><text dominant-baseline="middle" stroke="none" transform="matrix(1.0000,0.0000,0.0000,1.0000,299.7006,159.8802)" text-anchor="middle"></text></g><g fill="rgb(0,0,0)" stroke="rgb(0,0,0)" stroke-linecap="butt" stroke-width="0.9285878790409643" stroke-miterlimit="10.0" fill-opacity="0.0" stroke-opacity="1.0" stroke-linejoin="miter"><path d="M 179.9401,100.0000 l 6.2307,6.2307 "/></g><g fill="rgb(0,0,0)" stroke="rgb(0,0,0)" stroke-linecap="butt" stroke-width="0.0" stroke-miterlimit="10.0" fill-opacity="1.0" stroke-opacity="1.0" stroke-linejoin="miter"></g><g fill="rgb(0,0,0)" stroke="rgb(0,0,0)" stroke-linecap="butt" stroke-width="0.0" stroke-miterlimit="10.0" fill-opacity="1.0" stroke-opacity="1.0" stroke-linejoin="miter"></g><g fill="rgb(0,0,0)" stroke="rgb(0,0,0)" stroke-linecap="butt" stroke-width="0.0" stroke-miterlimit="10.0" fill-opacity="1.0" stroke-opacity="1.0" stroke-linejoin="miter"><path d="M 191.9162,111.9760 l -4.5371,-8.9045 l -1.0357,3.3318 l -3.3318,1.0357 Z"/></g><g fill="rgb(0,0,0)" stroke="rgb(0,0,0)" stroke-linecap="butt" stroke-width="0.0" stroke-miterlimit="10.0" fill-opacity="1.0" stroke-opacity="1.0" stroke-linejoin="miter"><path d="M 186.3434,106.4033 l -0.1726,-0.1726 l 0.3283,-0.3283 l -0.1557,0.5009 l -0.1726,-0.1726 l -0.3283,0.3283 Z"/></g><g fill="rgb(0,0,0)" stroke="rgb(0,0,255)" stroke-linecap="butt" stroke-width="1.741102273201808" stroke-miterlimit="10.0" fill-opacity="0.0" stroke-opacity="1.0" stroke-linejoin="miter"><path d="M 90.1198,189.8204 l 179.6407,-179.6407 "/></g><g fill="rgb(0,0,0)" stroke="rgb(0,0,0)" stroke-linecap="butt" stroke-width="0.9285878790409643" font-size="17.964071856287426px" stroke-miterlimit="10.0" fill-opacity="1.0" stroke-opacity="1.0" stroke-linejoin="miter"><text dominant-baseline="middle" stroke="none" transform="matrix(1.0000,0.0000,0.0000,1.0000,215.8683,100.0000)" text-anchor="middle">T</text></g></svg>