<?xml version="1.0" encoding="UTF-8"?>
<!DOCTYPE svg PUBLIC "-//W3C//DTD SVG 1.1//EN"
    "http://www.w3.org/Graphics/SVG/1.1/DTD/svg11.dtd"><svg stroke="rgb(0,0,0)" xmlns="http://www.w3.org/2000/svg" font-size="1" width="700.0000" stroke-opacity="1" xmlns:xlink="http://www.w3.org/1999/xlink" viewBox="0.0 0.0 700.0 200.0" height="200.0000" version="1.1"><defs></defs><g fill="rgb(144,238,144)" stroke="rgb(255,0,0)" stroke-linecap="butt" stroke-width="1.4698506669594593" stroke-miterlimit="10.0" fill-opacity="1.0" stroke-opacity="1.0" stroke-linejoin="miter" opacity="1.0"><path d="M 687.5720,150.0000 h 0.0000 c 0.0000,-9.2047 -7.4619,-16.6667 -16.6667 -16.6667h -33.3333 c -9.2047,-0.0000 -16.6667,7.4619 -16.6667 16.6667h 0.0000 c -0.0000,9.2047 7.4619,16.6667 16.6667 16.6667h 33.3333 c 9.2047,0.0000 16.6667,-7.4619 16.6667 -16.6667Z"/></g><g fill="rgb(0,0,0)" stroke="rgb(255,0,0)" stroke-linecap="butt" stroke-width="1.4698506669594593" font-size="16.666666666666668px" stroke-miterlimit="10.0" fill-opacity="1.0" stroke-opacity="1.0" stroke-linejoin="miter" opacity="1.0"><text dominant-baseline="middle" stroke="none" transform="matrix(1.0000,0.0000,0.0000,1.0000,654.2387,150.0000)" text-anchor="middle">+</text></g><g fill="rgb(144,238,144)" stroke="rgb(255,0,0)" stroke-linecap="butt" stroke-width="1.4698506669594593" stroke-miterlimit="10.0" fill-opacity="1.0" stroke-opacity="1.0" stroke-linejoin="miter" opacity="1.0"><path d="M 587.5720,150.0000 h 0.0000 c 0.0000,-9.2047 -7.4619,-16.6667 -16.6667 -16.6667h -33.3333 c -9.2047,-0.0000 -16.6667,7.4619 -16.6667 16.6667h 0.0000 c -0.0000,9.2047 7.4619,16.6667 16.6667 16.6667h 33.3333 c 9.2047,0.0000 16.6667,-7.4619 16.6667 -16.6667Z"/></g><g fill="rgb(0,0,0)" stroke="rgb(255,0,0)" stroke-linecap="butt" stroke-width="1.4698506669594593" font-size="16.666666666666668px" stroke-miterlimit="10.0" fill-opacity="1.0" stroke-opacity="1.0" stroke-linejoin="miter" opacity="1.0"><text dominant-baseline="middle" stroke="none" transform="matrix(1.0000,0.0000,0.0000,1.0000,554.2387,150.0000)" text-anchor="middle">0</text></g><g fill="rgb(144,238,144)" stroke="rgb(255,0,0)" stroke-linecap="butt" stroke-width="1.4698506669594593" stroke-miterlimit="10.0" fill-opacity="1.0" stroke-opacity="1.0" stroke-linejoin="miter" opacity="0.0"><path d="M 487.5720,150.0000 h 0.0000 c 0.0000,-9.2047 -7.4619,-16.6667 -16.6667 -16.6667h -33.3333 c -9.2047,-0.0000 -16.6667,7.4619 -16.6667 16.6667h 0.0000 c -0.0000,9.2047 7.4619,16.6667 16.6667 16.6667h 33.3333 c 9.2047,0.0000 16.6667,-7.4619 16.6667 -16.6667Z"/></g><g fill="rgb(0,0,0)" stroke="rgb(255,0,0)" stroke-linecap="butt" stroke-width="1.4698506669594593" font-size="16.666666666666668px" stroke-miterlimit="10.0" fill-opacity="1.0" stroke-opacity="1.0" stroke-linejoin="miter" opacity="0.0"><text dominant-baseline="middle" stroke="none" transform="matrix(1.0000,0.0000,0.0000,1.0000,454.2387,150.0000)" text-anchor="middle">-</text></g><g fill="rgb(255,165,0)" stroke="rgb(255,0,0)" stroke-linecap="butt" stroke-width="1.4698506669594593" stroke-miterlimit="10.0" fill-opacity="1.0" stroke-opacity="1.0" stroke-linejoin="miter" opacity="1.0"><path d="M 687.5720,83.3333 h 0.0000 c 0.0000,-9.2047 -7.4619,-16.6667 -16.6667 -16.6667h -33.3333 c -9.2047,-0.0000 -16.6667,7.4619 -16.6667 16.6667h 0.0000 c -0.0000,9.2047 7.4619,16.6667 16.6667 16.6667h 33.3333 c 9.2047,0.0000 16.6667,-7.4619 16.6667 -16.6667Z"/></g><g fill="rgb(0,0,0)" stroke="rgb(255,0,0)" stroke-linecap="butt" stroke-width="1.4698506669594593" font-size="16.666666666666668px" stroke-miterlimit="10.0" fill-opacity="1.0" stroke-opacity="1.0" stroke-linejoin="miter" opacity="1.0"><text dominant-baseline="middle" stroke="none" transform="matrix(1.0000,0.0000,0.0000,1.0000,654.2387,83.3333)" text-anchor="middle">0+</text></g><g fill="rgb(255,165,0)" stroke="rgb(255,0,0)" stroke-linecap="butt" stroke-width="1.4698506669594593" stroke-miterlimit="10.0" fill-opacity="1.0" stroke-opacity="1.0" stroke-linejoin="miter" opacity="1.0"><path d="M 587.5720,83.3333 h 0.0000 c 0.0000,-9.2047 -7.4619,-16.6667 -16.6667 -16.6667h -33.3333 c -9.2047,-0.0000 -16.6667,7.4619 -16.6667 16.6667h 0.0000 c -0.0000,9.2047 7.4619,16.6667 16.6667 16.6667h 33.3333 c 9.2047,0.0000 16.6667,-7.4619 16.6667 -16.6667Z"/></g><g fill="rgb(0,0,0)" stroke="rgb(255,0,0)" stroke-linecap="butt" stroke-width="1.4698506669594593" font-size="16.666666666666668px" stroke-miterlimit="10.0" fill-opacity="1.0" stroke-opacity="1.0" stroke-linejoin="miter" opacity="1.0"><text dominant-baseline="middle" stroke="none" transform="matrix(1.0000,0.0000,0.0000,1.0000,554.2387,83.3333)" text-anchor="middle">-+ *</text></g><g fill="rgb(255,165,0)" stroke="rgb(255,0,0)" stroke-linecap="butt" stroke-width="1.4698506669594593" stroke-miterlimit="10.0" fill-opacity="1.0" stroke-opacity="1.0" stroke-linejoin="miter" opacity="0.0"><path d="M 487.5720,83.3333 h 0.0000 c 0.0000,-9.2047 -7.4619,-16.6667 -16.6667 -16.6667h -33.3333 c -9.2047,-0.0000 -16.6667,7.4619 -16.6667 16.6667h 0.0000 c -0.0000,9.2047 7.4619,16.6667 16.6667 16.6667h 33.3333 c 9.2047,0.0000 16.6667,-7.4619 16.6667 -16.6667Z"/></g><g fill="rgb(0,0,0)" stroke="rgb(255,0,0)" stroke-linecap="butt" stroke-width="1.4698506669594593" font-size="16.666666666666668px" stroke-miterlimit="10.0" fill-opacity="1.0" stroke-opacity="1.0" stroke-linejoin="miter" opacity="0.0"><text dominant-baseline="middle" stroke="none" transform="matrix(1.0000,0.0000,0.0000,1.0000,454.2387,83.3333)" text-anchor="middle">-0</text></g><g fill="rgb(173,216,230)" stroke="rgb(255,0,0)" stroke-linecap="butt" stroke-width="1.4698506669594593" stroke-miterlimit="10.0" fill-opacity="1.0" stroke-opacity="1.0" stroke-linejoin="miter" opacity="1.0"><path d="M 587.5720,16.6667 h 0.0000 c 0.0000,-9.2047 -7.4619,-16.6667 -16.6667 -16.6667h -33.3333 c -9.2047,-0.0000 -16.6667,7.4619 -16.6667 16.6667h 0.0000 c -0.0000,9.2047 7.4619,16.6667 16.6667 16.6667h 33.3333 c 9.2047,0.0000 16.6667,-7.4619 16.6667 -16.6667Z"/></g><g fill="rgb(0,0,0)" stroke="rgb(255,0,0)" stroke-linecap="butt" stroke-width="1.4698506669594593" font-size="16.666666666666668px" stroke-miterlimit="10.0" fill-opacity="1.0" stroke-opacity="1.0" stroke-linejoin="miter" opacity="1.0"><text dominant-baseline="middle" stroke="none" transform="matrix(1.0000,0.0000,0.0000,1.0000,554.2387,16.6667)" text-anchor="middle">-0+</text></g><g fill="rgb(0,0,0)" stroke="rgb(255,0,0)" stroke-linecap="butt" stroke-width="1.4698506669594593" stroke-miterlimit="10.0" fill-opacity="0.0" stroke-opacity="1.0" stroke-linejoin="miter"><path d="M 654.2387,100.0000 l 0.0000,20.4721 "/></g><g fill="rgb(255,0,0)" stroke="rgb(255,0,0)" stroke-linecap="butt" stroke-width="0.0" stroke-miterlimit="10.0" fill-opacity="1.0" stroke-opacity="1.0" stroke-linejoin="miter"></g><g fill="rgb(255,0,0)" stroke="rgb(255,0,0)" stroke-linecap="butt" stroke-width="0.0" stroke-miterlimit="10.0" fill-opacity="1.0" stroke-opacity="1.0" stroke-linejoin="miter"></g><g fill="rgb(255,0,0)" stroke="rgb(255,0,0)" stroke-linecap="butt" stroke-width="0.0" stroke-miterlimit="10.0" fill-opacity="1.0" stroke-opacity="1.0" stroke-linejoin="miter"><path d="M 654.2387,133.3333 l 4.8883,-15.0448 l -4.8883,2.5700 l -4.8883,-2.5700 Z"/></g><g fill="rgb(255,0,0)" stroke="rgb(255,0,0)" stroke-linecap="butt" stroke-width="0.0" stroke-miterlimit="10.0" fill-opacity="1.0" stroke-opacity="1.0" stroke-linejoin="miter"><path d="M 654.2387,120.8585 l -0.0000,-0.3864 l 0.7349,-0.0000 l -0.7349,0.3864 l -0.0000,-0.3864 l -0.7349,0.0000 Z"/></g><g fill="rgb(0,0,0)" stroke="rgb(255,0,0)" stroke-linecap="butt" stroke-width="1.4698506669594593" stroke-miterlimit="10.0" fill-opacity="0.0" stroke-opacity="1.0" stroke-linejoin="miter"><path d="M 631.1574,98.7208 l -43.1363,28.7575 "/></g><g fill="rgb(255,0,0)" stroke="rgb(255,0,0)" stroke-linecap="butt" stroke-width="0.0" stroke-miterlimit="10.0" fill-opacity="1.0" stroke-opacity="1.0" stroke-linejoin="miter"></g><g fill="rgb(255,0,0)" stroke="rgb(255,0,0)" stroke-linecap="butt" stroke-width="0.0" stroke-miterlimit="10.0" fill-opacity="1.0" stroke-opacity="1.0" stroke-linejoin="miter"></g><g fill="rgb(255,0,0)" stroke="rgb(255,0,0)" stroke-linecap="butt" stroke-width="0.0" stroke-miterlimit="10.0" fill-opacity="1.0" stroke-opacity="1.0" stroke-linejoin="miter"><path d="M 577.3200,134.6125 l 15.2296,-4.2780 l -4.8499,-2.6418 l -0.5732,-5.4929 Z"/></g><g fill="rgb(255,0,0)" stroke="rgb(255,0,0)" stroke-linecap="butt" stroke-width="0.0" stroke-miterlimit="10.0" fill-opacity="1.0" stroke-opacity="1.0" stroke-linejoin="miter"><path d="M 587.6996,127.6927 l 0.3215,-0.2143 l 0.4077,0.6115 l -0.7291,-0.3972 l 0.3215,-0.2143 l -0.4077,-0.6115 Z"/></g><g fill="rgb(0,0,0)" stroke="rgb(255,0,0)" stroke-linecap="butt" stroke-width="1.4698506669594593" stroke-miterlimit="10.0" fill-opacity="0.0" stroke-opacity="1.0" stroke-linejoin="miter"><path d="M 577.3200,98.7208 l 43.1363,28.7575 "/></g><g fill="rgb(255,0,0)" stroke="rgb(255,0,0)" stroke-linecap="butt" stroke-width="0.0" stroke-miterlimit="10.0" fill-opacity="1.0" stroke-opacity="1.0" stroke-linejoin="miter"></g><g fill="rgb(255,0,0)" stroke="rgb(255,0,0)" stroke-linecap="butt" stroke-width="0.0" stroke-miterlimit="10.0" fill-opacity="1.0" stroke-opacity="1.0" stroke-linejoin="miter"></g><g fill="rgb(255,0,0)" stroke="rgb(255,0,0)" stroke-linecap="butt" stroke-width="0.0" stroke-miterlimit="10.0" fill-opacity="1.0" stroke-opacity="1.0" stroke-linejoin="miter"><path d="M 631.1574,134.6125 l -9.8064,-12.4127 l -0.5732,5.4929 l -4.8499,2.6418 Z"/></g><g fill="rgb(255,0,0)" stroke="rgb(255,0,0)" stroke-linecap="butt" stroke-width="0.0" stroke-miterlimit="10.0" fill-opacity="1.0" stroke-opacity="1.0" stroke-linejoin="miter"><path d="M 620.7777,127.6927 l -0.3215,-0.2143 l 0.4077,-0.6115 l -0.0862,0.8258 l -0.3215,-0.2143 l -0.4077,0.6115 Z"/></g><g fill="rgb(0,0,0)" stroke="rgb(255,0,0)" stroke-linecap="butt" stroke-width="1.4698506669594593" stroke-miterlimit="10.0" fill-opacity="0.0" stroke-opacity="1.0" stroke-linejoin="miter"><path d="M 577.3200,32.0542 l 43.1363,28.7575 "/></g><g fill="rgb(255,0,0)" stroke="rgb(255,0,0)" stroke-linecap="butt" stroke-width="0.0" stroke-miterlimit="10.0" fill-opacity="1.0" stroke-opacity="1.0" stroke-linejoin="miter"></g><g fill="rgb(255,0,0)" stroke="rgb(255,0,0)" stroke-linecap="butt" stroke-width="0.0" stroke-miterlimit="10.0" fill-opacity="1.0" stroke-opacity="1.0" stroke-linejoin="miter"></g><g fill="rgb(255,0,0)" stroke="rgb(255,0,0)" stroke-linecap="butt" stroke-width="0.0" stroke-miterlimit="10.0" fill-opacity="1.0" stroke-opacity="1.0" stroke-linejoin="miter"><path d="M 631.1574,67.9458 l -9.8064,-12.4127 l -0.5732,5.4929 l -4.8499,2.6418 Z"/></g><g fill="rgb(255,0,0)" stroke="rgb(255,0,0)" stroke-linecap="butt" stroke-width="0.0" stroke-miterlimit="10.0" fill-opacity="1.0" stroke-opacity="1.0" stroke-linejoin="miter"><path d="M 620.7777,61.0260 l -0.3215,-0.2143 l 0.4077,-0.6115 l -0.0862,0.8258 l -0.3215,-0.2143 l -0.4077,0.6115 Z"/></g><g fill="rgb(0,0,0)" stroke="rgb(255,0,0)" stroke-linecap="butt" stroke-width="1.4698506669594593" stroke-miterlimit="10.0" fill-opacity="0.0" stroke-opacity="1.0" stroke-linejoin="miter"><path d="M 554.2387,33.3333 l 0.0000,20.4721 "/></g><g fill="rgb(255,0,0)" stroke="rgb(255,0,0)" stroke-linecap="butt" stroke-width="0.0" stroke-miterlimit="10.0" fill-opacity="1.0" stroke-opacity="1.0" stroke-linejoin="miter"></g><g fill="rgb(255,0,0)" stroke="rgb(255,0,0)" stroke-linecap="butt" stroke-width="0.0" stroke-miterlimit="10.0" fill-opacity="1.0" stroke-opacity="1.0" stroke-linejoin="miter"></g><g fill="rgb(255,0,0)" stroke="rgb(255,0,0)" stroke-linecap="butt" stroke-width="0.0" stroke-miterlimit="10.0" fill-opacity="1.0" stroke-opacity="1.0" stroke-linejoin="miter"><path d="M 554.2387,66.6667 l 4.8883,-15.0448 l -4.8883,2.5700 l -4.8883,-2.5700 Z"/></g><g fill="rgb(255,0,0)" stroke="rgb(255,0,0)" stroke-linecap="butt" stroke-width="0.0" stroke-miterlimit="10.0" fill-opacity="1.0" stroke-opacity="1.0" stroke-linejoin="miter"><path d="M 554.2387,54.1918 l -0.0000,-0.3864 l 0.7349,-0.0000 l -0.7349,0.3864 l -0.0000,-0.3864 l -0.7349,0.0000 Z"/></g><g fill="rgb(173,216,230)" stroke="rgb(0,0,0)" stroke-linecap="butt" stroke-width="1.4698506669594593" stroke-miterlimit="10.0" fill-opacity="1.0" stroke-opacity="1.0" stroke-linejoin="miter"><path d="M 300.9054,135.4435 l -80.4464,-106.3304 l -207.6976,106.3304 Z"/></g><g fill="rgb(0,0,0)" stroke="rgb(255,165,0)" stroke-linecap="butt" stroke-width="3.0" stroke-miterlimit="10.0" fill-opacity="0.0" stroke-opacity="1.0" stroke-linejoin="miter"><path d="M 12.7613,135.4435 l 288.1441,0.0000 "/></g><g fill="rgb(0,0,0)" stroke="rgb(173,216,230)" stroke-linecap="butt" stroke-width="1.0" stroke-miterlimit="10.0" fill-opacity="0.0" stroke-opacity="1.0" stroke-linejoin="miter"><path d="M 220.4589,29.1131 l -207.6976,106.3304 "/></g><g fill="rgb(0,0,0)" stroke="rgb(255,165,0)" stroke-linecap="butt" stroke-width="3.0" stroke-miterlimit="10.0" fill-opacity="0.0" stroke-opacity="1.0" stroke-linejoin="miter"><path d="M 300.9054,135.4435 l -80.4464,-106.3304 "/></g><g fill="rgb(255,255,255)" stroke="rgb(255,165,0)" stroke-linecap="butt" stroke-width="1.4698506669594593" stroke-miterlimit="10.0" fill-opacity="1.0" stroke-opacity="1.0" stroke-linejoin="miter"><path d="M 116.7768,82.4449 l -0.0000,-0.3333 h -0.3333 l -0.0000,0.3333 Z"/></g><g fill="rgb(255,165,0)" stroke="rgb(0,0,0)" stroke-linecap="butt" stroke-width="1.4698506669594593" font-size="0.33333333333333337px" stroke-miterlimit="10.0" fill-opacity="1.0" stroke-opacity="1.0" stroke-linejoin="miter"><text dominant-baseline="middle" stroke="none" transform="matrix(1.0000,0.0000,0.0000,1.0000,116.6101,82.2783)" text-anchor="middle"></text></g><g fill="rgb(255,255,255)" stroke="rgb(255,165,0)" stroke-linecap="butt" stroke-width="1.4698506669594593" stroke-miterlimit="10.0" fill-opacity="1.0" stroke-opacity="1.0" stroke-linejoin="miter"><path d="M 180.1667,147.1101 l -0.0000,-23.3333 h -46.6667 l -0.0000,23.3333 Z"/></g><g fill="rgb(255,165,0)" stroke="rgb(0,0,0)" stroke-linecap="butt" stroke-width="1.4698506669594593" font-size="20.0px" stroke-miterlimit="10.0" fill-opacity="1.0" stroke-opacity="1.0" stroke-linejoin="miter"><text dominant-baseline="middle" stroke="none" transform="matrix(1.0000,0.0000,0.0000,1.0000,156.8333,135.4435)" text-anchor="middle">-+</text></g><g fill="rgb(255,255,255)" stroke="rgb(255,165,0)" stroke-linecap="butt" stroke-width="1.4698506669594593" stroke-miterlimit="10.0" fill-opacity="1.0" stroke-opacity="1.0" stroke-linejoin="miter"><path d="M 284.0155,93.9449 l -0.0000,-23.3333 h -46.6667 l -0.0000,23.3333 Z"/></g><g fill="rgb(255,165,0)" stroke="rgb(0,0,0)" stroke-linecap="butt" stroke-width="1.4698506669594593" font-size="20.0px" stroke-miterlimit="10.0" fill-opacity="1.0" stroke-opacity="1.0" stroke-linejoin="miter"><text dominant-baseline="middle" stroke="none" transform="matrix(1.0000,0.0000,0.0000,1.0000,260.6821,82.2783)" text-anchor="middle">0+</text></g><g fill="rgb(144,238,144)" stroke="rgb(0,0,0)" stroke-linecap="butt" stroke-width="1.4698506669594593" stroke-miterlimit="10.0" fill-opacity="1.0" stroke-opacity="1.0" stroke-linejoin="miter"><path d="M 13.0946,135.4435 c 0.0000,-0.1841 -0.1492,-0.3333 -0.3333 -0.3333c -0.1841,-0.0000 -0.3333,0.1492 -0.3333 0.3333c -0.0000,0.1841 0.1492,0.3333 0.3333 0.3333c 0.1841,0.0000 0.3333,-0.1492 0.3333 -0.3333Z"/></g><g fill="rgb(0,0,0)" stroke="rgb(0,0,0)" stroke-linecap="butt" stroke-width="1.4698506669594593" font-size="0.33333333333333337px" stroke-miterlimit="10.0" fill-opacity="1.0" stroke-opacity="1.0" stroke-linejoin="miter"><text dominant-baseline="middle" stroke="none" transform="matrix(1.0000,0.0000,0.0000,1.0000,12.7613,135.4435)" text-anchor="middle">C</text></g><g fill="rgb(144,238,144)" stroke="rgb(0,0,0)" stroke-linecap="butt" stroke-width="1.4698506669594593" stroke-miterlimit="10.0" fill-opacity="1.0" stroke-opacity="1.0" stroke-linejoin="miter"><path d="M 240.4589,29.1131 c 0.0000,-11.0457 -8.9543,-20.0000 -20.0000 -20.0000c -11.0457,-0.0000 -20.0000,8.9543 -20.0000 20.0000c -0.0000,11.0457 8.9543,20.0000 20.0000 20.0000c 11.0457,0.0000 20.0000,-8.9543 20.0000 -20.0000Z"/></g><g fill="rgb(0,0,0)" stroke="rgb(0,0,0)" stroke-linecap="butt" stroke-width="1.4698506669594593" font-size="20.0px" stroke-miterlimit="10.0" fill-opacity="1.0" stroke-opacity="1.0" stroke-linejoin="miter"><text dominant-baseline="middle" stroke="none" transform="matrix(1.0000,0.0000,0.0000,1.0000,220.4589,29.1131)" text-anchor="middle">0</text></g><g fill="rgb(144,238,144)" stroke="rgb(0,0,0)" stroke-linecap="butt" stroke-width="1.4698506669594593" stroke-miterlimit="10.0" fill-opacity="1.0" stroke-opacity="1.0" stroke-linejoin="miter"><path d="M 320.9054,135.4435 c 0.0000,-11.0457 -8.9543,-20.0000 -20.0000 -20.0000c -11.0457,-0.0000 -20.0000,8.9543 -20.0000 20.0000c -0.0000,11.0457 8.9543,20.0000 20.0000 20.0000c 11.0457,0.0000 20.0000,-8.9543 20.0000 -20.0000Z"/></g><g fill="rgb(0,0,0)" stroke="rgb(0,0,0)" stroke-linecap="butt" stroke-width="1.4698506669594593" font-size="20.0px" stroke-miterlimit="10.0" fill-opacity="1.0" stroke-opacity="1.0" stroke-linejoin="miter"><text dominant-baseline="middle" stroke="none" transform="matrix(1.0000,0.0000,0.0000,1.0000,300.9054,135.4435)" text-anchor="middle">+</text></g><g fill="rgb(0,0,0)" stroke="rgb(0,0,0)" stroke-linecap="butt" stroke-width="1.4698506669594593" stroke-miterlimit="10.0" fill-opacity="0.0" stroke-opacity="1.0" stroke-linejoin="miter"><path d="M 144.7085,103.3333 l 4.2391,4.2391 "/></g><g fill="rgb(0,0,0)" stroke="rgb(0,0,0)" stroke-linecap="butt" stroke-width="0.0" stroke-miterlimit="10.0" fill-opacity="1.0" stroke-opacity="1.0" stroke-linejoin="miter"></g><g fill="rgb(0,0,0)" stroke="rgb(0,0,0)" stroke-linecap="butt" stroke-width="0.0" stroke-miterlimit="10.0" fill-opacity="1.0" stroke-opacity="1.0" stroke-linejoin="miter"></g><g fill="rgb(0,0,0)" stroke="rgb(0,0,0)" stroke-linecap="butt" stroke-width="0.0" stroke-miterlimit="10.0" fill-opacity="1.0" stroke-opacity="1.0" stroke-linejoin="miter"><path d="M 158.0419,116.6667 l -7.1817,-14.0948 l -1.6393,5.2738 l -5.2738,1.6393 Z"/></g><g fill="rgb(0,0,0)" stroke="rgb(0,0,0)" stroke-linecap="butt" stroke-width="0.0" stroke-miterlimit="10.0" fill-opacity="1.0" stroke-opacity="1.0" stroke-linejoin="miter"><path d="M 149.2208,107.8456 l -0.2732,-0.2732 l 0.5197,-0.5197 l -0.2465,0.7929 l -0.2732,-0.2732 l -0.5197,0.5197 Z"/></g><g fill="rgb(0,0,0)" stroke="rgb(0,0,0)" stroke-linecap="butt" stroke-width="1.4698506669594593" font-size="20.0px" stroke-miterlimit="10.0" fill-opacity="1.0" stroke-opacity="1.0" stroke-linejoin="miter"><text dominant-baseline="middle" stroke="none" transform="matrix(1.0000,0.0000,0.0000,1.0000,204.7085,100.0000)" text-anchor="middle">-0+</text></g><g fill="rgb(0,0,0)" stroke="rgb(255,0,0)" stroke-linecap="butt" stroke-width="2.7559700005489858" stroke-miterlimit="10.0" fill-opacity="0.0" stroke-opacity="1.0" stroke-linejoin="miter"><path d="M 48.0419,200.0000 l 203.3333,-200.0000 "/></g></svg>