<?xml version="1.0" encoding="UTF-8"?>
<!DOCTYPE svg PUBLIC "-//W3C//DTD SVG 1.1//EN"
    "http://www.w3.org/Graphics/SVG/1.1/DTD/svg11.dtd"><svg stroke="rgb(0,0,0)" xmlns="http://www.w3.org/2000/svg" font-size="1" width="200.0000" stroke-opacity="1" xmlns:xlink="http://www.w3.org/1999/xlink" viewBox="0.0 0.0 200.0 200.0" height="200.0000" version="1.1"><defs></defs><g fill="rgb(144,238,144)" stroke="rgb(144,238,144)" stroke-linecap="butt" stroke-width="0.8" stroke-miterlimit="10.0" fill-opacity="1.0" stroke-opacity="1.0" stroke-linejoin="miter"><path d="M 80.0000,200.0000 l 40.0000,-200.0000 h 80.0000 v 200.0000 Z"/></g><g fill="rgb(255,192,203)" stroke="rgb(255,192,203)" stroke-linecap="butt" stroke-width="0.8" stroke-miterlimit="10.0" fill-opacity="1.0" stroke-opacity="1.0" stroke-linejoin="miter"><path d="M 80.0000,200.0000 l 40.0000,-200.0000 h -120.0000 v 200.0000 Z"/></g><g fill="rgb(0,0,0)" stroke="rgb(0,0,0)" stroke-linecap="butt" stroke-width="0.8" stroke-miterlimit="10.0" fill-opacity="0.0" stroke-opacity="1.0" stroke-linejoin="miter"><path d="M 100.0000,100.0000 l 13.1359,2.6272 "/></g><g fill="rgb(0,0,0)" stroke="rgb(0,0,0)" stroke-linecap="butt" stroke-width="0.0" stroke-miterlimit="10.0" fill-opacity="1.0" stroke-opacity="1.0" stroke-linejoin="miter"></g><g fill="rgb(0,0,0)" stroke="rgb(0,0,0)" stroke-linecap="butt" stroke-width="0.0" stroke-miterlimit="10.0" fill-opacity="1.0" stroke-opacity="1.0" stroke-linejoin="miter"></g><g fill="rgb(0,0,0)" stroke="rgb(0,0,0)" stroke-linecap="butt" stroke-width="0.0" stroke-miterlimit="10.0" fill-opacity="1.0" stroke-opacity="1.0" stroke-linejoin="miter"><path d="M 120.0000,104.0000 l -7.5077,-4.2148 l 0.8498,2.8832 l -1.8934,2.3346 Z"/></g><g fill="rgb(0,0,0)" stroke="rgb(0,0,0)" stroke-linecap="butt" stroke-width="0.0" stroke-miterlimit="10.0" fill-opacity="1.0" stroke-opacity="1.0" stroke-linejoin="miter"><path d="M 113.3421,102.6684 l -0.2062,-0.0412 l 0.0784,-0.3922 l 0.1278,0.4335 l -0.2062,-0.0412 l -0.0784,0.3922 Z"/></g><g fill="rgb(0,0,0)" stroke="rgb(0,0,0)" stroke-linecap="butt" stroke-width="1.5" stroke-miterlimit="10.0" fill-opacity="0.0" stroke-opacity="1.0" stroke-linejoin="miter"><path d="M 80.0000,200.0000 l 40.0000,-200.0000 "/></g><g fill="rgb(255,255,255)" stroke="rgb(0,0,0)" stroke-linecap="butt" stroke-width="0.8" stroke-miterlimit="10.0" fill-opacity="1.0" stroke-opacity="1.0" stroke-linejoin="miter"><path d="M 106.0000,140.0000 c 0.0000,-8.8366 -7.1634,-16.0000 -16.0000 -16.0000c -8.8366,-0.0000 -16.0000,7.1634 -16.0000 16.0000c -0.0000,8.8366 7.1634,16.0000 16.0000 16.0000c 8.8366,0.0000 16.0000,-7.1634 16.0000 -16.0000Z"/></g><g fill="rgb(0,0,0)" stroke="rgb(0,0,0)" stroke-linecap="butt" stroke-width="0.8" font-size="16.0px" stroke-miterlimit="10.0" fill-opacity="1.0" stroke-opacity="1.0" stroke-linejoin="miter"><text dominant-baseline="middle" stroke="none" transform="matrix(1.0000,0.0000,0.0000,1.0000,90.0000,140.0000)" text-anchor="middle">H0</text></g><g fill="rgb(255,192,203)" stroke="rgb(0,0,0)" stroke-linecap="butt" stroke-width="0.8" stroke-miterlimit="10.0" fill-opacity="1.0" stroke-opacity="1.0" stroke-linejoin="miter"><path d="M 66.0000,100.0000 c 0.0000,-8.8366 -7.1634,-16.0000 -16.0000 -16.0000c -8.8366,-0.0000 -16.0000,7.1634 -16.0000 16.0000c -0.0000,8.8366 7.1634,16.0000 16.0000 16.0000c 8.8366,0.0000 16.0000,-7.1634 16.0000 -16.0000Z"/></g><g fill="rgb(0,0,0)" stroke="rgb(0,0,0)" stroke-linecap="butt" stroke-width="0.8" font-size="16.0px" stroke-miterlimit="10.0" fill-opacity="1.0" stroke-opacity="1.0" stroke-linejoin="miter"><text dominant-baseline="middle" stroke="none" transform="matrix(1.0000,0.0000,0.0000,1.0000,50.0000,100.0000)" text-anchor="middle">H-</text></g><g fill="rgb(144,238,144)" stroke="rgb(0,0,0)" stroke-linecap="butt" stroke-width="0.8" stroke-miterlimit="10.0" fill-opacity="1.0" stroke-opacity="1.0" stroke-linejoin="miter"><path d="M 162.0000,100.0000 c 0.0000,-8.8366 -7.1634,-16.0000 -16.0000 -16.0000c -8.8366,-0.0000 -16.0000,7.1634 -16.0000 16.0000c -0.0000,8.8366 7.1634,16.0000 16.0000 16.0000c 8.8366,0.0000 16.0000,-7.1634 16.0000 -16.0000Z"/></g><g fill="rgb(0,0,0)" stroke="rgb(0,0,0)" stroke-linecap="butt" stroke-width="0.8" font-size="16.0px" stroke-miterlimit="10.0" fill-opacity="1.0" stroke-opacity="1.0" stroke-linejoin="miter"><text dominant-baseline="middle" stroke="none" transform="matrix(1.0000,0.0000,0.0000,1.0000,146.0000,100.0000)" text-anchor="middle">H+</text></g></svg>