<?xml version="1.0" encoding="UTF-8"?>
<!DOCTYPE svg PUBLIC "-//W3C//DTD SVG 1.1//EN"
    "http://www.w3.org/Graphics/SVG/1.1/DTD/svg11.dtd"><svg stroke="rgb(0,0,0)" xmlns="http://www.w3.org/2000/svg" font-size="1" width="700.0000" stroke-opacity="1" xmlns:xlink="http://www.w3.org/1999/xlink" viewBox="0.0 0.0 700.0 200.0" height="200.0000" version="1.1"><defs></defs><g fill="rgb(144,238,144)" stroke="rgb(0,0,0)" stroke-linecap="butt" stroke-width="1.3713526488524026" stroke-miterlimit="10.0" fill-opacity="1.0" stroke-opacity="1.0" stroke-linejoin="miter"><path d="M 700.0000,167.1646 h 0.0000 c 0.0000,-9.2735 -7.5177,-16.7911 -16.7911 -16.7911h -33.5823 c -9.2735,-0.0000 -16.7911,7.5177 -16.7911 16.7911h 0.0000 c -0.0000,9.2735 7.5177,16.7911 16.7911 16.7911h 33.5823 c 9.2735,0.0000 16.7911,-7.5177 16.7911 -16.7911Z"/></g><g fill="rgb(0,0,0)" stroke="rgb(0,0,0)" stroke-linecap="butt" stroke-width="1.3713526488524026" font-size="16.79114363852233px" stroke-miterlimit="10.0" fill-opacity="1.0" stroke-opacity="1.0" stroke-linejoin="miter"><text dominant-baseline="middle" stroke="none" transform="matrix(1.0000,0.0000,0.0000,1.0000,666.4177,167.1646)" text-anchor="middle">C</text></g><g fill="rgb(144,238,144)" stroke="rgb(0,0,0)" stroke-linecap="butt" stroke-width="1.3713526488524026" stroke-miterlimit="10.0" fill-opacity="1.0" stroke-opacity="1.0" stroke-linejoin="miter"><path d="M 599.2531,167.1646 h 0.0000 c 0.0000,-9.2735 -7.5177,-16.7911 -16.7911 -16.7911h -33.5823 c -9.2735,-0.0000 -16.7911,7.5177 -16.7911 16.7911h 0.0000 c -0.0000,9.2735 7.5177,16.7911 16.7911 16.7911h 33.5823 c 9.2735,0.0000 16.7911,-7.5177 16.7911 -16.7911Z"/></g><g fill="rgb(0,0,0)" stroke="rgb(0,0,0)" stroke-linecap="butt" stroke-width="1.3713526488524026" font-size="16.79114363852233px" stroke-miterlimit="10.0" fill-opacity="1.0" stroke-opacity="1.0" stroke-linejoin="miter"><text dominant-baseline="middle" stroke="none" transform="matrix(1.0000,0.0000,0.0000,1.0000,565.6709,167.1646)" text-anchor="middle">B</text></g><g fill="rgb(144,238,144)" stroke="rgb(0,0,0)" stroke-linecap="butt" stroke-width="1.3713526488524026" stroke-miterlimit="10.0" fill-opacity="1.0" stroke-opacity="1.0" stroke-linejoin="miter"><path d="M 498.5063,167.1646 h 0.0000 c 0.0000,-9.2735 -7.5177,-16.7911 -16.7911 -16.7911h -33.5823 c -9.2735,-0.0000 -16.7911,7.5177 -16.7911 16.7911h 0.0000 c -0.0000,9.2735 7.5177,16.7911 16.7911 16.7911h 33.5823 c 9.2735,0.0000 16.7911,-7.5177 16.7911 -16.7911Z"/></g><g fill="rgb(0,0,0)" stroke="rgb(0,0,0)" stroke-linecap="butt" stroke-width="1.3713526488524026" font-size="16.79114363852233px" stroke-miterlimit="10.0" fill-opacity="1.0" stroke-opacity="1.0" stroke-linejoin="miter"><text dominant-baseline="middle" stroke="none" transform="matrix(1.0000,0.0000,0.0000,1.0000,464.9240,167.1646)" text-anchor="middle">C</text></g><g fill="rgb(255,165,0)" stroke="rgb(0,0,0)" stroke-linecap="butt" stroke-width="1.3713526488524026" stroke-miterlimit="10.0" fill-opacity="1.0" stroke-opacity="1.0" stroke-linejoin="miter"><path d="M 700.0000,100.0000 h 0.0000 c 0.0000,-9.2735 -7.5177,-16.7911 -16.7911 -16.7911h -33.5823 c -9.2735,-0.0000 -16.7911,7.5177 -16.7911 16.7911h 0.0000 c -0.0000,9.2735 7.5177,16.7911 16.7911 16.7911h 33.5823 c 9.2735,0.0000 16.7911,-7.5177 16.7911 -16.7911Z"/></g><g fill="rgb(0,0,0)" stroke="rgb(0,0,0)" stroke-linecap="butt" stroke-width="1.3713526488524026" font-size="16.79114363852233px" stroke-miterlimit="10.0" fill-opacity="1.0" stroke-opacity="1.0" stroke-linejoin="miter"><text dominant-baseline="middle" stroke="none" transform="matrix(1.0000,0.0000,0.0000,1.0000,666.4177,100.0000)" text-anchor="middle">c</text></g><g fill="rgb(255,165,0)" stroke="rgb(0,0,0)" stroke-linecap="butt" stroke-width="1.3713526488524026" stroke-miterlimit="10.0" fill-opacity="1.0" stroke-opacity="1.0" stroke-linejoin="miter"><path d="M 599.2531,100.0000 h 0.0000 c 0.0000,-9.2735 -7.5177,-16.7911 -16.7911 -16.7911h -33.5823 c -9.2735,-0.0000 -16.7911,7.5177 -16.7911 16.7911h 0.0000 c -0.0000,9.2735 7.5177,16.7911 16.7911 16.7911h 33.5823 c 9.2735,0.0000 16.7911,-7.5177 16.7911 -16.7911Z"/></g><g fill="rgb(0,0,0)" stroke="rgb(0,0,0)" stroke-linecap="butt" stroke-width="1.3713526488524026" font-size="16.79114363852233px" stroke-miterlimit="10.0" fill-opacity="1.0" stroke-opacity="1.0" stroke-linejoin="miter"><text dominant-baseline="middle" stroke="none" transform="matrix(1.0000,0.0000,0.0000,1.0000,565.6709,100.0000)" text-anchor="middle">b</text></g><g fill="rgb(255,165,0)" stroke="rgb(0,0,0)" stroke-linecap="butt" stroke-width="1.3713526488524026" stroke-miterlimit="10.0" fill-opacity="1.0" stroke-opacity="1.0" stroke-linejoin="miter"><path d="M 498.5063,100.0000 h 0.0000 c 0.0000,-9.2735 -7.5177,-16.7911 -16.7911 -16.7911h -33.5823 c -9.2735,-0.0000 -16.7911,7.5177 -16.7911 16.7911h 0.0000 c -0.0000,9.2735 7.5177,16.7911 16.7911 16.7911h 33.5823 c 9.2735,0.0000 16.7911,-7.5177 16.7911 -16.7911Z"/></g><g fill="rgb(0,0,0)" stroke="rgb(0,0,0)" stroke-linecap="butt" stroke-width="1.3713526488524026" font-size="16.79114363852233px" stroke-miterlimit="10.0" fill-opacity="1.0" stroke-opacity="1.0" stroke-linejoin="miter"><text dominant-baseline="middle" stroke="none" transform="matrix(1.0000,0.0000,0.0000,1.0000,464.9240,100.0000)" text-anchor="middle">a</text></g><g fill="rgb(173,216,230)" stroke="rgb(0,0,0)" stroke-linecap="butt" stroke-width="1.3713526488524026" stroke-miterlimit="10.0" fill-opacity="1.0" stroke-opacity="1.0" stroke-linejoin="miter"><path d="M 599.2531,32.8354 h 0.0000 c 0.0000,-9.2735 -7.5177,-16.7911 -16.7911 -16.7911h -33.5823 c -9.2735,-0.0000 -16.7911,7.5177 -16.7911 16.7911h 0.0000 c -0.0000,9.2735 7.5177,16.7911 16.7911 16.7911h 33.5823 c 9.2735,0.0000 16.7911,-7.5177 16.7911 -16.7911Z"/></g><g fill="rgb(0,0,0)" stroke="rgb(0,0,0)" stroke-linecap="butt" stroke-width="1.3713526488524026" font-size="16.79114363852233px" stroke-miterlimit="10.0" fill-opacity="1.0" stroke-opacity="1.0" stroke-linejoin="miter"><text dominant-baseline="middle" stroke="none" transform="matrix(1.0000,0.0000,0.0000,1.0000,565.6709,32.8354)" text-anchor="middle">T</text></g><g fill="rgb(0,0,0)" stroke="rgb(0,0,0)" stroke-linecap="butt" stroke-width="1.3713526488524026" stroke-miterlimit="10.0" fill-opacity="0.0" stroke-opacity="1.0" stroke-linejoin="miter"><path d="M 666.4177,116.7911 l 0.0000,21.5830 "/></g><g fill="rgb(0,0,0)" stroke="rgb(0,0,0)" stroke-linecap="butt" stroke-width="0.0" stroke-miterlimit="10.0" fill-opacity="1.0" stroke-opacity="1.0" stroke-linejoin="miter"></g><g fill="rgb(0,0,0)" stroke="rgb(0,0,0)" stroke-linecap="butt" stroke-width="0.0" stroke-miterlimit="10.0" fill-opacity="1.0" stroke-opacity="1.0" stroke-linejoin="miter"></g><g fill="rgb(0,0,0)" stroke="rgb(0,0,0)" stroke-linecap="butt" stroke-width="0.0" stroke-miterlimit="10.0" fill-opacity="1.0" stroke-opacity="1.0" stroke-linejoin="miter"><path d="M 666.4177,150.3734 l 4.5608,-14.0366 l -4.5608,2.3977 l -4.5608,-2.3977 Z"/></g><g fill="rgb(0,0,0)" stroke="rgb(0,0,0)" stroke-linecap="butt" stroke-width="0.0" stroke-miterlimit="10.0" fill-opacity="1.0" stroke-opacity="1.0" stroke-linejoin="miter"><path d="M 666.4177,138.7346 l -0.0000,-0.3605 l 0.6857,-0.0000 l -0.6857,0.3605 l -0.0000,-0.3605 l -0.6857,0.0000 Z"/></g><g fill="rgb(0,0,0)" stroke="rgb(0,0,0)" stroke-linecap="butt" stroke-width="1.3713526488524026" stroke-miterlimit="10.0" fill-opacity="0.0" stroke-opacity="1.0" stroke-linejoin="miter"><path d="M 643.1641,115.5024 l -44.2555,29.5037 "/></g><g fill="rgb(0,0,0)" stroke="rgb(0,0,0)" stroke-linecap="butt" stroke-width="0.0" stroke-miterlimit="10.0" fill-opacity="1.0" stroke-opacity="1.0" stroke-linejoin="miter"></g><g fill="rgb(0,0,0)" stroke="rgb(0,0,0)" stroke-linecap="butt" stroke-width="0.0" stroke-miterlimit="10.0" fill-opacity="1.0" stroke-opacity="1.0" stroke-linejoin="miter"></g><g fill="rgb(0,0,0)" stroke="rgb(0,0,0)" stroke-linecap="butt" stroke-width="0.0" stroke-miterlimit="10.0" fill-opacity="1.0" stroke-opacity="1.0" stroke-linejoin="miter"><path d="M 588.9245,151.6621 l 14.2090,-3.9913 l -4.5249,-2.4648 l -0.5348,-5.1248 Z"/></g><g fill="rgb(0,0,0)" stroke="rgb(0,0,0)" stroke-linecap="butt" stroke-width="0.0" stroke-miterlimit="10.0" fill-opacity="1.0" stroke-opacity="1.0" stroke-linejoin="miter"><path d="M 598.6086,145.2061 l 0.2999,-0.2000 l 0.3803,0.5705 l -0.6803,-0.3706 l 0.2999,-0.2000 l -0.3803,-0.5705 Z"/></g><g fill="rgb(0,0,0)" stroke="rgb(0,0,0)" stroke-linecap="butt" stroke-width="1.3713526488524026" stroke-miterlimit="10.0" fill-opacity="0.0" stroke-opacity="1.0" stroke-linejoin="miter"><path d="M 588.9245,115.5024 l 44.2555,29.5037 "/></g><g fill="rgb(0,0,0)" stroke="rgb(0,0,0)" stroke-linecap="butt" stroke-width="0.0" stroke-miterlimit="10.0" fill-opacity="1.0" stroke-opacity="1.0" stroke-linejoin="miter"></g><g fill="rgb(0,0,0)" stroke="rgb(0,0,0)" stroke-linecap="butt" stroke-width="0.0" stroke-miterlimit="10.0" fill-opacity="1.0" stroke-opacity="1.0" stroke-linejoin="miter"></g><g fill="rgb(0,0,0)" stroke="rgb(0,0,0)" stroke-linecap="butt" stroke-width="0.0" stroke-miterlimit="10.0" fill-opacity="1.0" stroke-opacity="1.0" stroke-linejoin="miter"><path d="M 643.1641,151.6621 l -9.1493,-11.5809 l -0.5348,5.1248 l -4.5249,2.4648 Z"/></g><g fill="rgb(0,0,0)" stroke="rgb(0,0,0)" stroke-linecap="butt" stroke-width="0.0" stroke-miterlimit="10.0" fill-opacity="1.0" stroke-opacity="1.0" stroke-linejoin="miter"><path d="M 633.4799,145.2061 l -0.2999,-0.2000 l 0.3803,-0.5705 l -0.0804,0.7705 l -0.2999,-0.2000 l -0.3803,0.5705 Z"/></g><g fill="rgb(0,0,0)" stroke="rgb(0,0,0)" stroke-linecap="butt" stroke-width="1.3713526488524026" stroke-miterlimit="10.0" fill-opacity="0.0" stroke-opacity="1.0" stroke-linejoin="miter"><path d="M 542.4172,115.5024 l -44.2555,29.5037 "/></g><g fill="rgb(0,0,0)" stroke="rgb(0,0,0)" stroke-linecap="butt" stroke-width="0.0" stroke-miterlimit="10.0" fill-opacity="1.0" stroke-opacity="1.0" stroke-linejoin="miter"></g><g fill="rgb(0,0,0)" stroke="rgb(0,0,0)" stroke-linecap="butt" stroke-width="0.0" stroke-miterlimit="10.0" fill-opacity="1.0" stroke-opacity="1.0" stroke-linejoin="miter"></g><g fill="rgb(0,0,0)" stroke="rgb(0,0,0)" stroke-linecap="butt" stroke-width="0.0" stroke-miterlimit="10.0" fill-opacity="1.0" stroke-opacity="1.0" stroke-linejoin="miter"><path d="M 488.1776,151.6621 l 14.2090,-3.9913 l -4.5249,-2.4648 l -0.5348,-5.1248 Z"/></g><g fill="rgb(0,0,0)" stroke="rgb(0,0,0)" stroke-linecap="butt" stroke-width="0.0" stroke-miterlimit="10.0" fill-opacity="1.0" stroke-opacity="1.0" stroke-linejoin="miter"><path d="M 497.8618,145.2061 l 0.2999,-0.2000 l 0.3803,0.5705 l -0.6803,-0.3706 l 0.2999,-0.2000 l -0.3803,-0.5705 Z"/></g><g fill="rgb(0,0,0)" stroke="rgb(0,0,0)" stroke-linecap="butt" stroke-width="1.3713526488524026" stroke-miterlimit="10.0" fill-opacity="0.0" stroke-opacity="1.0" stroke-linejoin="miter"><path d="M 488.1776,115.5024 l 44.2555,29.5037 "/></g><g fill="rgb(0,0,0)" stroke="rgb(0,0,0)" stroke-linecap="butt" stroke-width="0.0" stroke-miterlimit="10.0" fill-opacity="1.0" stroke-opacity="1.0" stroke-linejoin="miter"></g><g fill="rgb(0,0,0)" stroke="rgb(0,0,0)" stroke-linecap="butt" stroke-width="0.0" stroke-miterlimit="10.0" fill-opacity="1.0" stroke-opacity="1.0" stroke-linejoin="miter"></g><g fill="rgb(0,0,0)" stroke="rgb(0,0,0)" stroke-linecap="butt" stroke-width="0.0" stroke-miterlimit="10.0" fill-opacity="1.0" stroke-opacity="1.0" stroke-linejoin="miter"><path d="M 542.4172,151.6621 l -9.1493,-11.5809 l -0.5348,5.1248 l -4.5249,2.4648 Z"/></g><g fill="rgb(0,0,0)" stroke="rgb(0,0,0)" stroke-linecap="butt" stroke-width="0.0" stroke-miterlimit="10.0" fill-opacity="1.0" stroke-opacity="1.0" stroke-linejoin="miter"><path d="M 532.7331,145.2061 l -0.2999,-0.2000 l 0.3803,-0.5705 l -0.0804,0.7705 l -0.2999,-0.2000 l -0.3803,0.5705 Z"/></g><g fill="rgb(0,0,0)" stroke="rgb(0,0,0)" stroke-linecap="butt" stroke-width="1.3713526488524026" stroke-miterlimit="10.0" fill-opacity="0.0" stroke-opacity="1.0" stroke-linejoin="miter"><path d="M 464.9240,116.7911 l 0.0000,21.5830 "/></g><g fill="rgb(0,0,0)" stroke="rgb(0,0,0)" stroke-linecap="butt" stroke-width="0.0" stroke-miterlimit="10.0" fill-opacity="1.0" stroke-opacity="1.0" stroke-linejoin="miter"></g><g fill="rgb(0,0,0)" stroke="rgb(0,0,0)" stroke-linecap="butt" stroke-width="0.0" stroke-miterlimit="10.0" fill-opacity="1.0" stroke-opacity="1.0" stroke-linejoin="miter"></g><g fill="rgb(0,0,0)" stroke="rgb(0,0,0)" stroke-linecap="butt" stroke-width="0.0" stroke-miterlimit="10.0" fill-opacity="1.0" stroke-opacity="1.0" stroke-linejoin="miter"><path d="M 464.9240,150.3734 l 4.5608,-14.0366 l -4.5608,2.3977 l -4.5608,-2.3977 Z"/></g><g fill="rgb(0,0,0)" stroke="rgb(0,0,0)" stroke-linecap="butt" stroke-width="0.0" stroke-miterlimit="10.0" fill-opacity="1.0" stroke-opacity="1.0" stroke-linejoin="miter"><path d="M 464.9240,138.7346 l -0.0000,-0.3605 l 0.6857,-0.0000 l -0.6857,0.3605 l -0.0000,-0.3605 l -0.6857,0.0000 Z"/></g><g fill="rgb(0,0,0)" stroke="rgb(0,0,0)" stroke-linecap="butt" stroke-width="1.3713526488524026" stroke-miterlimit="10.0" fill-opacity="0.0" stroke-opacity="1.0" stroke-linejoin="miter"><path d="M 588.9245,48.3379 l 44.2555,29.5037 "/></g><g fill="rgb(0,0,0)" stroke="rgb(0,0,0)" stroke-linecap="butt" stroke-width="0.0" stroke-miterlimit="10.0" fill-opacity="1.0" stroke-opacity="1.0" stroke-linejoin="miter"></g><g fill="rgb(0,0,0)" stroke="rgb(0,0,0)" stroke-linecap="butt" stroke-width="0.0" stroke-miterlimit="10.0" fill-opacity="1.0" stroke-opacity="1.0" stroke-linejoin="miter"></g><g fill="rgb(0,0,0)" stroke="rgb(0,0,0)" stroke-linecap="butt" stroke-width="0.0" stroke-miterlimit="10.0" fill-opacity="1.0" stroke-opacity="1.0" stroke-linejoin="miter"><path d="M 643.1641,84.4976 l -9.1493,-11.5809 l -0.5348,5.1248 l -4.5249,2.4648 Z"/></g><g fill="rgb(0,0,0)" stroke="rgb(0,0,0)" stroke-linecap="butt" stroke-width="0.0" stroke-miterlimit="10.0" fill-opacity="1.0" stroke-opacity="1.0" stroke-linejoin="miter"><path d="M 633.4799,78.0415 l -0.2999,-0.2000 l 0.3803,-0.5705 l -0.0804,0.7705 l -0.2999,-0.2000 l -0.3803,0.5705 Z"/></g><g fill="rgb(0,0,0)" stroke="rgb(0,0,0)" stroke-linecap="butt" stroke-width="1.3713526488524026" stroke-miterlimit="10.0" fill-opacity="0.0" stroke-opacity="1.0" stroke-linejoin="miter"><path d="M 565.6709,49.6266 l 0.0000,21.5830 "/></g><g fill="rgb(0,0,0)" stroke="rgb(0,0,0)" stroke-linecap="butt" stroke-width="0.0" stroke-miterlimit="10.0" fill-opacity="1.0" stroke-opacity="1.0" stroke-linejoin="miter"></g><g fill="rgb(0,0,0)" stroke="rgb(0,0,0)" stroke-linecap="butt" stroke-width="0.0" stroke-miterlimit="10.0" fill-opacity="1.0" stroke-opacity="1.0" stroke-linejoin="miter"></g><g fill="rgb(0,0,0)" stroke="rgb(0,0,0)" stroke-linecap="butt" stroke-width="0.0" stroke-miterlimit="10.0" fill-opacity="1.0" stroke-opacity="1.0" stroke-linejoin="miter"><path d="M 565.6709,83.2089 l 4.5608,-14.0366 l -4.5608,2.3977 l -4.5608,-2.3977 Z"/></g><g fill="rgb(0,0,0)" stroke="rgb(0,0,0)" stroke-linecap="butt" stroke-width="0.0" stroke-miterlimit="10.0" fill-opacity="1.0" stroke-opacity="1.0" stroke-linejoin="miter"><path d="M 565.6709,71.5700 l -0.0000,-0.3605 l 0.6857,-0.0000 l -0.6857,0.3605 l -0.0000,-0.3605 l -0.6857,0.0000 Z"/></g><g fill="rgb(0,0,0)" stroke="rgb(0,0,0)" stroke-linecap="butt" stroke-width="1.3713526488524026" stroke-miterlimit="10.0" fill-opacity="0.0" stroke-opacity="1.0" stroke-linejoin="miter"><path d="M 542.4172,48.3379 l -44.2555,29.5037 "/></g><g fill="rgb(0,0,0)" stroke="rgb(0,0,0)" stroke-linecap="butt" stroke-width="0.0" stroke-miterlimit="10.0" fill-opacity="1.0" stroke-opacity="1.0" stroke-linejoin="miter"></g><g fill="rgb(0,0,0)" stroke="rgb(0,0,0)" stroke-linecap="butt" stroke-width="0.0" stroke-miterlimit="10.0" fill-opacity="1.0" stroke-opacity="1.0" stroke-linejoin="miter"></g><g fill="rgb(0,0,0)" stroke="rgb(0,0,0)" stroke-linecap="butt" stroke-width="0.0" stroke-miterlimit="10.0" fill-opacity="1.0" stroke-opacity="1.0" stroke-linejoin="miter"><path d="M 488.1776,84.4976 l 14.2090,-3.9913 l -4.5249,-2.4648 l -0.5348,-5.1248 Z"/></g><g fill="rgb(0,0,0)" stroke="rgb(0,0,0)" stroke-linecap="butt" stroke-width="0.0" stroke-miterlimit="10.0" fill-opacity="1.0" stroke-opacity="1.0" stroke-linejoin="miter"><path d="M 497.8618,78.0415 l 0.2999,-0.2000 l 0.3803,0.5705 l -0.6803,-0.3706 l 0.2999,-0.2000 l -0.3803,-0.5705 Z"/></g><g fill="rgb(173,216,230)" stroke="rgb(255,165,0)" stroke-linecap="butt" stroke-width="3.0" stroke-miterlimit="10.0" fill-opacity="1.0" stroke-opacity="1.0" stroke-linejoin="miter"><path d="M 310.4455,143.3182 l -81.0473,-107.1245 l -209.2488,107.1245 Z"/></g><g fill="rgb(144,238,144)" stroke="rgb(0,0,0)" stroke-linecap="butt" stroke-width="1.3713526488524026" stroke-miterlimit="10.0" fill-opacity="1.0" stroke-opacity="1.0" stroke-linejoin="miter"><path d="M 40.2987,143.3182 c 0.0000,-11.1282 -9.0212,-20.1494 -20.1494 -20.1494c -11.1282,-0.0000 -20.1494,9.0212 -20.1494 20.1494c -0.0000,11.1282 9.0212,20.1494 20.1494 20.1494c 11.1282,0.0000 20.1494,-9.0212 20.1494 -20.1494Z"/></g><g fill="rgb(0,0,0)" stroke="rgb(0,0,0)" stroke-linecap="butt" stroke-width="1.3713526488524026" font-size="20.149372366226793px" stroke-miterlimit="10.0" fill-opacity="1.0" stroke-opacity="1.0" stroke-linejoin="miter"><text dominant-baseline="middle" stroke="none" transform="matrix(1.0000,0.0000,0.0000,1.0000,20.1494,143.3182)" text-anchor="middle">C</text></g><g fill="rgb(144,238,144)" stroke="rgb(0,0,0)" stroke-linecap="butt" stroke-width="1.3713526488524026" stroke-miterlimit="10.0" fill-opacity="1.0" stroke-opacity="1.0" stroke-linejoin="miter"><path d="M 249.5476,36.1937 c 0.0000,-11.1282 -9.0212,-20.1494 -20.1494 -20.1494c -11.1282,-0.0000 -20.1494,9.0212 -20.1494 20.1494c -0.0000,11.1282 9.0212,20.1494 20.1494 20.1494c 11.1282,0.0000 20.1494,-9.0212 20.1494 -20.1494Z"/></g><g fill="rgb(0,0,0)" stroke="rgb(0,0,0)" stroke-linecap="butt" stroke-width="1.3713526488524026" font-size="20.149372366226793px" stroke-miterlimit="10.0" fill-opacity="1.0" stroke-opacity="1.0" stroke-linejoin="miter"><text dominant-baseline="middle" stroke="none" transform="matrix(1.0000,0.0000,0.0000,1.0000,229.3982,36.1937)" text-anchor="middle">B</text></g><g fill="rgb(144,238,144)" stroke="rgb(0,0,0)" stroke-linecap="butt" stroke-width="1.3713526488524026" stroke-miterlimit="10.0" fill-opacity="1.0" stroke-opacity="1.0" stroke-linejoin="miter"><path d="M 330.5948,143.3182 c 0.0000,-11.1282 -9.0212,-20.1494 -20.1494 -20.1494c -11.1282,-0.0000 -20.1494,9.0212 -20.1494 20.1494c -0.0000,11.1282 9.0212,20.1494 20.1494 20.1494c 11.1282,0.0000 20.1494,-9.0212 20.1494 -20.1494Z"/></g><g fill="rgb(0,0,0)" stroke="rgb(0,0,0)" stroke-linecap="butt" stroke-width="1.3713526488524026" font-size="20.149372366226793px" stroke-miterlimit="10.0" fill-opacity="1.0" stroke-opacity="1.0" stroke-linejoin="miter"><text dominant-baseline="middle" stroke="none" transform="matrix(1.0000,0.0000,0.0000,1.0000,310.4455,143.3182)" text-anchor="middle">A</text></g><g fill="rgb(255,255,255)" stroke="rgb(255,165,0)" stroke-linecap="butt" stroke-width="1.3713526488524026" stroke-miterlimit="10.0" fill-opacity="1.0" stroke-opacity="1.0" stroke-linejoin="miter"><path d="M 136.5276,101.5097 l -0.0000,-23.5076 h -23.5076 l -0.0000,23.5076 Z"/></g><g fill="rgb(255,165,0)" stroke="rgb(0,0,0)" stroke-linecap="butt" stroke-width="1.3713526488524026" font-size="20.149372366226793px" stroke-miterlimit="10.0" fill-opacity="1.0" stroke-opacity="1.0" stroke-linejoin="miter"><text dominant-baseline="middle" stroke="none" transform="matrix(1.0000,0.0000,0.0000,1.0000,124.7738,89.7559)" text-anchor="middle">a</text></g><g fill="rgb(255,255,255)" stroke="rgb(255,165,0)" stroke-linecap="butt" stroke-width="1.3713526488524026" stroke-miterlimit="10.0" fill-opacity="1.0" stroke-opacity="1.0" stroke-linejoin="miter"><path d="M 177.0512,155.0720 l -0.0000,-23.5076 h -23.5076 l -0.0000,23.5076 Z"/></g><g fill="rgb(255,165,0)" stroke="rgb(0,0,0)" stroke-linecap="butt" stroke-width="1.3713526488524026" font-size="20.149372366226793px" stroke-miterlimit="10.0" fill-opacity="1.0" stroke-opacity="1.0" stroke-linejoin="miter"><text dominant-baseline="middle" stroke="none" transform="matrix(1.0000,0.0000,0.0000,1.0000,165.2974,143.3182)" text-anchor="middle">b</text></g><g fill="rgb(255,255,255)" stroke="rgb(255,165,0)" stroke-linecap="butt" stroke-width="1.3713526488524026" stroke-miterlimit="10.0" fill-opacity="1.0" stroke-opacity="1.0" stroke-linejoin="miter"><path d="M 281.6756,101.5097 l -0.0000,-23.5076 h -23.5076 l -0.0000,23.5076 Z"/></g><g fill="rgb(255,165,0)" stroke="rgb(0,0,0)" stroke-linecap="butt" stroke-width="1.3713526488524026" font-size="20.149372366226793px" stroke-miterlimit="10.0" fill-opacity="1.0" stroke-opacity="1.0" stroke-linejoin="miter"><text dominant-baseline="middle" stroke="none" transform="matrix(1.0000,0.0000,0.0000,1.0000,269.9218,89.7559)" text-anchor="middle">c</text></g><g fill="rgb(0,0,0)" stroke="rgb(0,0,0)" stroke-linecap="butt" stroke-width="1.3713526488524026" font-size="20.149372366226793px" stroke-miterlimit="10.0" fill-opacity="1.0" stroke-opacity="1.0" stroke-linejoin="miter"><text dominant-baseline="middle" stroke="none" transform="matrix(1.0000,0.0000,0.0000,1.0000,186.6643,107.6100)" text-anchor="middle">T</text></g></svg>